<svg xmlns="http://www.w3.org/2000/svg" xmlns:xlink="http://www.w3.org/1999/xlink">
  <path id="exterior" d="M160.206 -64.767 l-0.046 1.008 0.481 0.528 -0.023 0.504 -0.023 0.504 -0.023 0.504 0.481 0.528 -0.023 0.504 -0.023 0.504 -0.023 0.504 -0.023 0.504 -0.023 0.504 -0.023 0.504 -0.046 1.008 -0.023 0.504 -0.046 1.008 -0.023 0.504 -0.023 0.504 -0.023 0.504 -0.046 1.008 0.481 0.528 -0.023 0.504 -0.023 0.504 -0.023 0.504 -0.023 0.504 -0.046 1.008 0.481 0.528 -0.023 0.504 -0.023 0.504 -0.023 0.504 -0.023 0.504 -0.023 0.504 -0.023 0.504 -0.023 0.504 -0.046 1.008 -0.023 0.504 -0.023 0.504 -0.092 2.016 0.481 0.528 -0.023 0.504 -0.023 0.504 -0.023 0.504 -0.023 0.504 -0.023 0.504 -0.023 0.504 -0.046 1.008 -0.023 0.504 -0.023 0.504 -0.046 1.008 -0.527 0.48 -0.023 0.504 -0.023 0.504 -0.023 0.504 -0.046 1.008 -0.023 0.504 -0.023 0.504 -0.023 0.504 -0.023 0.504 -0.046 1.008 -0.023 0.504 -0.023 0.504 -0.023 0.504 -0.139 3.023 -0.023 0.504 -0.023 0.504 -0.023 0.504 -0.023 0.504 -0.023 0.504 -0.023 0.504 -0.527 0.48 -0.023 0.504 -0.023 0.504 -0.023 0.504 -0.046 1.008 -0.023 0.504 -0.093 2.015 -0.023 0.504 -0.023 0.504 -0.023 0.504 -0.046 1.008 -0.023 0.504 -0.023 0.504 -0.023 0.504 -0.023 0.504 -0.528 0.48 -0.023 0.504 -0.046 1.007 -0.023 0.504 -0.023 0.504 -0.046 1.007 -0.162 3.526 -0.023 0.504 -0.528 0.48 -0.023 0.504 -0.023 0.504 -0.046 1.007 -0.023 0.504 -0.023 0.504 -0.023 0.504 -0.023 0.504 -0.023 0.504 -0.046 1.007 -0.528 0.48 -0.023 0.504 -0.023 0.504 -0.023 0.504 -0.023 0.504 -0.023 0.504 -0.047 1.007 -0.528 0.48 -0.07 1.511 -0.023 0.504 -0.023 0.504 -0.023 0.504 -0.528 0.48 -0.047 1.007 -0.023 0.504 -0.023 0.504 -0.023 0.504 -0.528 0.48 -0.023 0.504 -0.023 0.504 -0.023 0.504 -0.023 0.504 -0.023 0.504 -0.528 0.48 -0.023 0.504 -0.023 0.504 -0.023 0.504 -0.023 0.504 -0.023 0.504 -0.528 0.48 -0.07 1.511 -0.023 0.504 -0.528 0.48 -0.047 1.007 -0.023 0.504 -0.023 0.504 -0.023 0.504 -0.528 0.48 -0.023 0.504 -0.023 0.504 -0.023 0.504 -0.023 0.504 -0.528 0.48 -0.023 0.504 -0.047 1.007 -0.023 0.504 -0.528 0.48 -0.023 0.504 -0.023 0.504 -0.023 0.504 -0.023 0.504 -0.528 0.48 -0.023 0.504 -0.023 0.504 -0.023 0.504 -0.023 0.504 -0.023 0.504 -0.528 0.48 -0.047 1.007 -0.023 0.504 -0.023 0.504 -0.528 0.48 -0.023 0.504 -0.023 0.504 -0.047 1.007 -0.023 0.504 -0.528 0.48 -0.047 1.007 -0.023 0.504 -0.023 0.504 -0.528 0.48 -0.094 2.014 -0.528 0.48 -0.023 0.504 -0.023 0.504 -0.07 1.511 -0.528 0.48 -0.023 0.504 -0.023 0.503 -0.023 0.504 -0.023 0.504 -0.528 0.48 -0.023 0.504 -0.047 1.007 -0.023 0.503 -0.023 0.504 -0.528 0.48 -0.023 0.504 -0.023 0.504 -0.023 0.503 -0.023 0.504 -0.528 0.48 -0.047 1.007 -0.023 0.503 -0.023 0.504 -0.023 0.504 -0.528 0.48 -0.023 0.504 -0.023 0.503 -0.047 1.007 -0.528 0.48 -0.023 0.504 -0.528 0.48 -0.023 0.504 -0.023 0.503 -0.528 0.48 -0.023 0.504 -0.023 0.503 -0.023 0.504 -0.023 0.504 -0.023 0.503 -0.023 0.504 -0.023 0.503 -0.023 0.504 -0.023 0.503 -0.528 0.48 -0.023 0.504 -0.023 0.503 -0.023 0.504 -0.528 0.48 -0.023 0.503 -0.528 0.48 -0.023 0.504 -1.056 0.96 -0.528 0.48 -0.528 0.48 -0.504 -0.024 -0.528 0.48 -0.504 -0.024 -0.504 -0.024 -0.528 0.48 -0.504 -0.024 -0.504 -0.024 -0.504 -0.024 -0.528 0.48 -0.504 -0.024 -0.504 -0.024 -1.009 -0.047 -1.513 -0.071 -0.504 -0.024 -0.505 -0.024 -0.528 0.48 -0.505 -0.024 -0.505 -0.024 -0.505 -0.024 -0.481 -0.527 -1.009 -0.047 -1.009 -0.047 -0.505 -0.024 -0.505 -0.024 -0.505 -0.024 -0.505 -0.024 -0.528 0.48 -0.505 -0.024 -0.528 0.48 -0.505 -0.024 -0.505 -0.024 -1.514 -0.071 -1.009 -0.047 -0.505 -0.024 -0.505 -0.024 -0.505 -0.024 -0.505 -0.024 -0.505 -0.024 -0.505 -0.024 -0.505 -0.024 -0.505 -0.024 -0.505 -0.024 -0.505 -0.024 -0.505 -0.024 -0.505 -0.024 -1.009 -0.047 -1.009 -0.047 -0.505 -0.024 -0.505 -0.024 -0.505 -0.024 -0.505 -0.024 -1.01 -0.047 -0.505 -0.024 -0.505 -0.024 -0.505 -0.024 -0.505 -0.024 -0.528 0.48 -0.505 -0.024 -0.505 -0.024 -0.505 -0.024 -0.505 -0.024 -0.505 -0.024 -1.515 -0.071 -0.505 -0.024 -1.01 -0.047 -0.505 -0.024 -0.505 -0.024 -1.01 -0.047 -0.505 -0.024 -1.01 -0.047 -0.505 -0.024 -0.505 -0.024 -0.505 -0.024 -0.505 -0.024 -1.01 -0.047 -0.505 -0.024 -1.01 -0.047 -0.505 -0.024 -0.505 -0.024 -0.505 -0.024 -1.01 -0.047 -0.505 -0.024 -0.505 -0.024 -0.505 -0.024 -0.505 -0.024 -0.505 -0.024 -0.505 -0.024 -0.505 -0.024 -0.505 -0.024 -0.505 -0.024 -0.505 -0.024 -0.505 -0.024 -0.505 -0.024 -0.505 -0.024 -0.505 -0.024 -0.505 -0.024 -0.505 -0.024 -0.505 -0.024 -0.505 -0.024 -0.505 -0.024 -0.505 -0.024 -0.505 -0.024 -0.505 -0.024 -0.505 -0.024 -0.505 -0.024 -0.505 -0.024 -0.505 -0.024 -0.505 -0.024 -0.505 -0.024 -0.505 -0.024 -0.505 -0.024 -0.505 -0.024 -0.482 -0.527 -0.505 -0.024 -0.505 -0.024 -0.505 -0.024 -0.505 -0.024 -0.505 -0.024 -0.505 -0.024 -0.505 -0.024 -0.505 -0.024 -0.505 -0.024 -0.505 -0.024 -1.011 -0.047 -0.505 -0.024 -0.505 -0.024 -0.505 -0.024 -0.505 -0.024 -0.505 -0.024 -0.505 -0.024 -0.505 -0.024 -0.505 -0.024 -0.482 -0.527 -0.505 -0.024 -0.505 -0.024 -0.505 -0.024 -1.011 -0.047 -0.505 -0.024 -0.506 -0.024 -0.506 -0.024 -0.482 -0.527 -0.506 -0.024 -0.506 -0.024 -0.506 -0.024 -0.506 -0.024 -0.506 -0.024 -0.506 -0.024 -0.506 -0.024 -0.506 -0.024 -0.482 -0.527 -0.506 -0.024 -0.506 -0.024 -0.506 -0.024 -1.011 -0.047 -0.506 -0.024 -0.506 -0.024 -0.506 -0.024 -0.506 -0.024 -0.482 -0.528 -0.506 -0.024 -0.506 -0.024 -0.506 -0.024 -0.506 -0.024 -0.506 -0.024 -0.506 -0.024 -0.506 -0.024 -0.506 -0.024 -0.482 -0.528 -0.506 -0.024 -0.506 -0.024 -0.506 -0.024 -0.506 -0.024 -0.506 -0.024 -0.506 -0.024 -0.506 -0.024 -0.506 -0.024 -0.506 -0.024 -0.506 -0.024 -0.506 -0.024 -0.482 -0.528 -0.506 -0.024 -0.506 -0.024 -0.506 -0.024 -0.506 -0.024 -0.506 -0.024 -0.506 -0.024 -0.506 -0.024 -0.506 -0.024 -0.506 -0.024 -0.506 -0.024 -0.506 -0.024 -0.506 -0.024 -0.506 -0.024 -0.506 -0.024 -0.483 -0.528 -0.506 -0.024 -0.506 -0.024 -0.506 -0.024 -0.506 -0.024 -0.506 -0.024 -0.506 -0.024 -0.506 -0.024 -0.506 -0.024 -0.506 -0.024 -0.506 -0.024 -0.506 -0.024 -0.506 -0.024 -0.506 -0.024 -0.506 -0.024 -0.506 -0.024 -0.506 -0.024 -0.506 -0.024 -0.483 -0.528 -0.506 -0.024 -0.506 -0.024 -0.506 -0.024 -0.506 -0.024 -0.506 -0.024 -0.506 -0.024 -0.506 -0.024 -0.506 -0.024 -0.506 -0.024 -0.506 -0.024 -0.506 -0.024 -0.506 -0.024 -0.506 -0.024 -0.506 -0.024 -0.506 -0.024 -0.506 -0.024 -0.506 -0.024 -0.506 -0.024 -0.483 -0.528 -0.53 0.481 -0.506 -0.024 -0.483 -0.528 -0.506 -0.024 -0.506 -0.024 -1.013 -0.047 -0.506 -0.024 -0.506 -0.024 -0.506 -0.024 -0.506 -0.024 -0.506 -0.024 -0.506 -0.024 -0.506 -0.024 -0.506 -0.024 -0.506 -0.024 -0.506 -0.024 -0.506 -0.024 -0.506 -0.024 -0.506 -0.024 -0.507 -0.024 -0.507 -0.024 -0.507 -0.024 -0.507 -0.024 -0.507 -0.024 -0.507 -0.024 -0.507 -0.024 -1.013 -0.047 -0.507 -0.024 -0.507 -0.024 -0.507 -0.024 -0.507 -0.024 -0.507 -0.024 -0.507 -0.024 -0.507 -0.024 -0.507 -0.024 -0.507 -0.024 -1.013 -0.047 -0.507 -0.024 -0.507 -0.024 -0.507 -0.024 -0.507 -0.024 -0.507 -0.024 -0.507 -0.024 -0.507 -0.024 -0.507 -0.024 -0.507 -0.024 -0.507 -0.024 -0.507 -0.024 -0.483 -0.528 -0.507 -0.024 -0.507 -0.024 -0.507 -0.024 -0.507 -0.024 -0.507 -0.024 -1.014 -0.047 -0.507 -0.024 -0.507 -0.024 -0.507 -0.024 -0.507 -0.024 -0.507 -0.024 -0.507 -0.024 -0.507 -0.024 -0.507 -0.024 -0.507 -0.024 -0.507 -0.024 -0.507 -0.024 -0.507 -0.024 -0.507 -0.024 -0.507 -0.024 -0.507 -0.024 -0.507 -0.024 -0.507 -0.024 -1.014 -0.047 -0.507 -0.024 -0.507 -0.024 -1.521 -0.071 -0.507 -0.024 -1.521 -0.071 -0.507 -0.024 -1.014 -0.047 -0.507 -0.024 -0.507 -0.024 -0.507 -0.024 -0.507 -0.024 -0.507 -0.024 -0.507 -0.024 -0.507 -0.024 -1.014 -0.047 -0.507 -0.024 -1.015 -0.047 -1.015 -0.047 -0.507 -0.024 -2.029 -0.095 -0.507 -0.024 -0.507 -0.024 -0.484 -0.528 -1.015 -0.047 -0.507 -0.024 -0.507 -0.024 -0.507 -0.024 -0.507 -0.024 -0.507 -0.024 -0.507 -0.024 -1.522 -0.071 -0.507 -0.024 -0.507 -0.024 -0.508 -0.024 -0.507 -0.024 -0.508 -0.024 -0.508 -0.024 -2.03 -0.095 -0.508 -0.024 -0.508 -0.024 -0.508 -0.024 -1.015 -0.047 -0.508 -0.024 -0.508 -0.024 -0.508 -0.024 -2.031 -0.095 -0.508 -0.024 -0.508 -0.024 -0.508 -0.024 -1.015 -0.047 -1.016 -0.047 -0.508 -0.024 -1.523 -0.071 -1.523 -0.071 -0.508 -0.024 -0.508 -0.024 -0.508 -0.024 -1.524 -0.071 -1.016 -0.047 -0.508 -0.024 -0.508 -0.024 -0.508 -0.024 -0.508 -0.024 -1.524 -0.071 -1.016 -0.047 -1.016 -0.047 -0.485 -0.528 -0.531 0.481 -0.508 -0.024 -0.485 -0.529 -1.524 -0.071 -1.016 -0.047 -0.531 0.481 -0.508 -0.024 -0.485 -0.529 -0.508 -0.024 -0.532 0.481 -1.016 -0.047 -0.485 -0.529 -0.508 -0.024 -0.532 0.481 -0.485 -0.529 -0.508 -0.024 -0.532 0.481 -0.508 -0.024 -0.485 -0.529 -0.508 -0.024 -0.532 0.481 -0.508 -0.024 -0.508 -0.024 -1.017 -0.047 -1.525 -0.071 -1.017 -0.047 -0.508 -0.024 -0.508 -0.024 -0.508 -0.024 -2.034 -0.095 -1.017 -0.047 -1.526 -0.071 -1.526 -0.071 -0.509 -0.024 -0.509 -0.024 -0.509 -0.024 -1.526 -0.071 -1.017 -0.047 -1.526 -0.071 -0.509 -0.024 -0.509 -0.024 -0.509 -0.024 -0.509 -0.024 -0.509 -0.024 -0.509 -0.024 -0.509 -0.024 -0.509 -0.024 -0.532 0.481 -0.509 -0.024 -1.018 -0.047 -1.018 -0.047 -0.509 -0.024 -0.509 -0.024 -0.509 -0.024 -1.527 -0.071 -0.509 -0.024 -0.509 -0.024 -0.532 0.481 -0.509 -0.024 -0.509 -0.024 -1.018 -0.047 -0.509 -0.024 -0.532 0.481 -0.509 -0.024 -0.509 -0.024 -0.509 -0.024 -0.509 -0.024 -0.509 -0.024 -0.509 -0.024 -0.532 0.481 -0.509 -0.024 -0.509 -0.024 -0.509 -0.024 -0.532 0.481 -0.509 -0.024 -0.532 0.481 -0.509 -0.024 -0.509 -0.024 -0.532 0.482 -0.509 -0.024 -0.532 0.482 -0.509 -0.024 -0.509 -0.024 -0.533 0.482 -0.533 0.482 -0.509 -0.024 -0.533 0.482 -0.533 0.482 -0.533 0.482 -0.509 -0.024 -0.533 0.482 -0.533 0.482 -0.509 -0.024 -1.065 0.963 -0.509 -0.024 -1.019 -0.047 -0.509 -0.024 -1.019 -0.047 -0.486 -0.529 -0.509 -0.024 -0.509 -0.024 -1.019 -0.047 -0.509 -0.024 -0.509 -0.024 -0.509 -0.024 -0.486 -0.529 -0.533 0.482 -0.486 -0.529 -0.51 -0.024 -0.486 -0.529 -0.972 -1.058 0.023 -0.505 0.533 -0.482 0.023 -0.505 0.023 -0.505 0.023 -0.505 0.023 -0.505 0.023 -0.505 0.023 -0.505 0.533 -0.482 0.023 -0.505 0.023 -0.505 0.023 -0.505 0.023 -0.505 0.023 -0.505 0.023 -0.505 0.023 -0.505 0.533 -0.482 0.023 -0.505 0.023 -0.505 0.023 -0.505 0.023 -0.505 0.023 -0.505 0.023 -0.505 0.023 -0.505 0.533 -0.482 0.023 -0.505 0.023 -0.505 0.023 -0.505 0.023 -0.505 0.023 -0.505 0.023 -0.505 0.533 -0.482 0.023 -0.505 0.023 -0.505 0.023 -0.505 0.023 -0.505 0.046 -1.011 0.023 -0.505 0.023 -0.505 0.533 -0.482 0.023 -0.505 0.023 -0.505 0.046 -1.011 0.023 -0.505 0.023 -0.505 0.046 -1.011 0.023 -0.505 0.533 -0.481 0.069 -1.516 0.023 -0.505 0.069 -1.516 0.533 -0.481 0.023 -0.505 0.023 -0.505 0.023 -0.505 0.023 -0.505 0.046 -1.011 0.023 -0.505 0.046 -1.011 0.533 -0.481 0.046 -1.011 0.023 -0.505 0.023 -0.505 0.023 -0.505 0.023 -0.505 0.023 -0.505 0.023 -0.505 0.023 -0.505 0.023 -0.505 0.532 -0.481 0.023 -0.505 0.046 -1.011 0.023 -0.505 0.046 -1.011 0.023 -0.505 0.023 -0.505 0.023 -0.505 0.023 -0.505 0.023 -0.505 0.023 -0.505 0.023 -0.505 0.023 -0.505 0.046 -1.011 0.023 -0.505 0.532 -0.481 0.023 -0.505 0.023 -0.505 -0.487 -0.529 0.046 -1.011 0.023 -0.505 0.023 -0.505 0.023 -0.505 0.023 -0.505 0.046 -1.011 0.023 -0.505 0.114 -2.527 0.023 -0.505 0.023 -0.505 -0.487 -0.53 0.023 -0.505 0.023 -0.506 0.023 -0.505 0.023 -0.506 0.023 -0.505 0.023 -0.506 -0.487 -0.53 0.068 -1.517 0.023 -0.505 0.023 -0.506 -0.487 -0.53 0.023 -0.506 -0.487 -0.53 0.023 -0.506 0.046 -1.011 -0.487 -0.53 0.023 -0.506 0.023 -0.506 -0.487 -0.53 0.023 -0.506 0.023 -0.506 -0.487 -0.53 0.023 -0.506 0.023 -0.506 -0.487 -0.53 0.023 -0.506 0.023 -0.506 -0.487 -0.53 0.023 -0.506 -0.487 -0.53 0.023 -0.506 0.023 -0.506 -0.487 -0.53 0.023 -0.506 -0.487 -0.53 0.023 -0.506 0.023 -0.506 -0.487 -0.53 0.023 -0.506 -0.487 -0.53 0.023 -0.506 -0.487 -0.53 0.045 -1.011 -0.487 -0.53 0.023 -0.506 -0.487 -0.53 0.023 -0.506 0.023 -0.506 -0.487 -0.53 0.023 -0.506 -0.487 -0.53 0.023 -0.506 -0.487 -0.53 0.045 -1.011 -0.487 -0.53 0.023 -0.506 -0.487 -0.53 0.023 -0.506 0.023 -0.506 -0.487 -0.53 0.045 -1.012 -0.487 -0.53 0.023 -0.506 -0.487 -0.53 0.023 -0.506 0.023 -0.506 -0.487 -0.53 0.023 -0.506 0.023 -0.506 -0.487 -0.53 0.023 -0.506 0.022 -0.506 -0.487 -0.53 0.023 -0.506 -0.487 -0.53 0.022 -0.506 0.023 -0.506 -0.487 -0.53 0.022 -0.506 -0.487 -0.53 0.045 -1.012 -0.487 -0.53 0.022 -0.506 0.022 -0.506 -0.487 -0.53 0.045 -1.012 -0.487 -0.53 0.022 -0.506 -0.487 -0.53 0.022 -0.506 -0.488 -0.531 0.045 -1.012 -0.488 -0.531 0.022 -0.506 -0.488 -0.531 0.022 -0.506 0.022 -0.506 -0.488 -0.531 0.022 -0.506 0.022 -0.506 -0.488 -0.531 0.022 -0.506 -0.488 -0.531 0.022 -0.506 0.022 -0.506 -0.488 -0.531 0.022 -0.506 -0.488 -0.531 0.045 -1.012 -0.488 -0.531 0.022 -0.506 -0.488 -0.531 0.022 -0.506 -0.488 -0.531 0.022 -0.506 -0.488 -0.531 0.022 -0.506 0.022 -0.506 -0.488 -0.531 1.597 -1.444 0.51 0.025 0.51 0.025 0.532 -0.481 1.53 0.074 0.51 0.025 0.51 0.025 0.51 0.025 0.51 0.025 0.51 0.025 0.51 0.025 0.51 0.025 0.51 0.025 0.532 -0.481 0.51 0.025 0.51 0.025 0.51 0.025 0.51 0.025 0.51 0.025 0.51 0.025 0.51 0.025 1.02 0.05 0.51 0.025 0.51 0.025 0.51 0.025 0.532 -0.481 0.51 0.025 0.51 0.025 0.51 0.025 0.51 0.025 0.51 0.025 0.51 0.025 0.51 0.025 0.51 0.025 0.51 0.025 0.51 0.025 1.019 0.05 0.51 0.025 0.51 0.025 0.51 0.025 0.51 0.025 0.51 0.025 0.51 0.025 0.51 0.025 0.51 0.025 0.51 0.025 0.51 0.025 0.51 0.025 0.51 0.025 0.51 0.025 0.509 0.025 0.51 0.025 0.509 0.025 0.509 0.025 1.019 0.049 0.509 0.025 0.509 0.025 0.509 0.025 0.509 0.025 0.509 0.025 0.509 0.025 1.019 0.049 0.509 0.025 1.019 0.049 0.509 0.025 0.509 0.025 1.528 0.074 0.509 0.025 0.509 0.025 0.509 0.025 0.509 0.025 0.487 0.53 0.509 0.025 1.528 0.074 1.018 0.049 0.509 0.025 1.018 0.049 1.527 0.074 1.527 0.074 1.018 0.049 0.509 0.025 0.509 0.025 0.509 0.025 0.509 0.025 0.509 0.025 0.509 0.025 1.527 0.074 1.527 0.074 0.509 0.025 0.509 0.025 1.018 0.049 0.531 -0.481 0.486 0.53 0.531 -0.481 0.486 0.53 1.526 0.074 0.509 0.025 1.018 0.049 0.509 0.025 0.509 0.025 0.509 0.025 0.509 0.025 0.531 -0.481 0.509 0.025 0.509 0.025 0.509 0.025 0.509 0.025 0.509 0.025 0.509 0.025 1.017 0.049 0.509 0.025 0.509 0.025 0.509 0.025 0.509 0.025 0.509 0.025 0.509 0.025 0.509 0.025 0.509 0.025 0.509 0.025 0.509 0.025 0.509 0.025 0.509 0.025 0.509 0.025 0.508 0.025 0.508 0.025 0.508 0.025 0.508 0.025 0.508 0.025 0.508 0.025 0.508 0.025 0.508 0.025 0.508 0.025 0.486 0.53 0.531 -0.481 0.486 0.53 0.531 -0.481 0.508 0.025 0.508 0.025 0.508 0.025 0.508 0.025 0.508 0.025 0.508 0.025 0.508 0.025 0.508 0.025 0.508 0.025 0.508 0.025 0.508 0.025 0.508 0.025 0.508 0.025 1.016 0.049 0.508 0.025 0.531 -0.481 0.508 0.025 1.016 0.049 0.508 0.025 0.508 0.025 1.016 0.049 0.508 0.025 1.016 0.049 0.508 0.025 0.508 0.025 0.531 -0.481 0.508 0.025 0.508 0.025 0.508 0.025 0.508 0.025 1.016 0.049 0.508 0.025 0.508 0.025 0.508 0.025 2.032 0.098 0.53 -0.481 0.508 0.025 1.524 0.074 1.524 0.074 0.508 0.025 0.508 0.025 0.508 0.025 0.508 0.025 0.508 0.025 0.508 0.025 0.508 0.025 0.508 0.025 0.53 -0.481 0.508 0.025 1.015 0.049 1.015 0.049 0.508 0.024 0.508 0.025 0.508 0.025 0.508 0.025 0.508 0.025 0.508 0.025 0.53 -0.481 0.485 0.53 0.53 -0.481 0.508 0.025 0.508 0.025 0.508 0.025 0.508 0.024 0.508 0.025 0.508 0.025 0.508 0.025 0.508 0.025 0.508 0.025 0.508 0.024 0.508 0.025 0.53 -0.481 0.508 0.025 0.508 0.024 1.522 0.074 0.507 0.025 0.507 0.024 0.507 0.025 0.507 0.025 0.507 0.024 0.507 0.025 0.507 0.025 0.53 -0.481 0.507 0.025 0.507 0.025 0.507 0.024 0.507 0.025 0.507 0.025 0.507 0.024 0.507 0.025 0.507 0.025 0.507 0.024 0.507 0.025 0.507 0.024 1.015 0.049 0.53 -0.481 0.507 0.024 0.507 0.025 0.507 0.024 1.014 0.049 0.507 0.024 0.507 0.025 0.507 0.024 0.507 0.025 0.507 0.024 0.53 -0.48 0.507 0.024 0.507 0.025 0.507 0.024 0.507 0.025 0.507 0.024 0.507 0.025 0.507 0.024 0.507 0.025 0.507 0.024 0.53 -0.48 0.507 0.024 0.507 0.025 0.507 0.024 0.507 0.025 0.507 0.024 0.507 0.025 1.014 0.049 0.507 0.025 0.53 -0.48 0.507 0.024 0.507 0.025 0.507 0.024 0.507 0.025 0.507 0.024 0.507 0.024 0.53 -0.48 1.014 0.049 0.507 0.025 0.507 0.024 0.507 0.025 0.507 0.024 0.507 0.024 0.529 -0.48 0.507 0.024 0.507 0.025 1.014 0.049 0.507 0.024 0.507 0.024 0.529 -0.48 0.507 0.024 0.507 0.024 0.507 0.024 0.507 0.024 0.507 0.024 0.507 0.024 0.529 -0.48 0.507 0.024 0.507 0.024 0.507 0.024 0.507 0.024 0.507 0.024 0.529 -0.48 0.507 0.024 0.507 0.024 0.507 0.024 0.507 0.024 0.507 0.024 0.529 -0.48 2.026 0.098 0.507 0.024 0.507 0.024 0.529 -0.48 1.52 0.073 1.52 0.073 0.529 -0.48 2.026 0.098 1.013 0.049 0.529 -0.48 1.519 0.073 1.519 0.073 0.529 -0.48 1.519 0.073 1.519 0.073 0.529 -0.48 0.506 0.024 0.506 0.024 0.506 0.024 0.506 0.024 1.013 0.049 0.529 -0.48 2.025 0.098 0.506 0.024 0.529 -0.48 0.506 0.024 0.506 0.024 1.012 0.049 0.506 0.024 0.506 0.024 0.529 -0.48 0.506 0.024 0.506 0.024 1.518 0.073 0.506 0.024 0.529 -0.48 1.012 0.049 0.506 0.024 0.506 0.024 0.506 0.024 0.529 -0.48 1.518 0.073 0.506 0.024 1.012 0.049 0.529 -0.48 1.012 0.049 0.506 0.024 0.506 0.024 0.506 0.024 0.506 0.024 0.529 -0.48 0.506 0.024 1.012 0.049 0.506 0.024 1.012 0.049 0.506 0.024 0.529 -0.48 0.506 0.024 0.506 0.024 0.506 0.024 0.506 0.024 0.506 0.024 0.506 0.024 0.506 0.024 0.529 -0.48 0.506 0.024 0.506 0.024 0.506 0.024 0.506 0.024 0.506 0.024 0.506 0.024 0.528 -0.48 0.506 0.024 0.506 0.024 0.506 0.024 0.506 0.024 0.506 0.024 0.506 0.024 0.506 0.024 0.528 -0.48 0.506 0.024 0.506 0.024 0.506 0.024 0.506 0.024 0.506 0.024 0.506 0.024 0.506 0.024 0.506 0.024 0.506 0.024 0.528 -0.48 0.506 0.024 0.506 0.024 2.022 0.097 0.506 0.024 0.528 -0.48 1.011 0.049 1.517 0.073 0.505 0.024 0.506 0.024 1.011 0.049 0.528 -0.48 2.022 0.097 0.505 0.024 0.505 0.024 0.505 0.024 0.505 0.024 0.505 0.024 0.528 -0.48 0.505 0.024 0.505 0.024 0.505 0.024 1.516 0.073 1.011 0.049 0.528 -0.48 0.505 0.024 2.527 0.122 0.505 0.024 1.516 0.073 0.528 -0.48 1.516 0.073 0.505 0.024 0.505 0.024 0.505 0.024 0.528 -0.48 0.482 0.529 0.505 0.024 0.528 -0.48 0.505 0.024 0.505 0.024 0.505 0.024 1.01 0.049 0.505 0.024 0.505 0.024 0.505 0.024 0.505 0.024 0.505 0.024 0.505 0.024 0.505 0.024 0.505 0.024 0.505 0.024 0.528 -0.48 0.505 0.024 0.505 0.024 0.505 0.024 0.505 0.024 0.505 0.024 0.505 0.024 0.505 0.024 0.505 0.024 0.505 0.024 0.505 0.024 0.505 0.024 0.505 0.024 0.505 0.024 0.505 0.024 1.515 0.073 0.505 0.024 0.528 -0.48 1.515 0.073 0.505 0.024 1.515 0.073 1.515 0.073 0.505 0.024 1.515 0.073 0.505 0.024 0.505 0.024 0.505 0.024 0.482 0.529 1.01 0.048 0.505 0.024 0.528 -0.48 0.505 0.024 0.505 0.024 0.505 0.024 0.505 0.024 0.505 0.024 0.505 0.024 0.528 -0.48 0.482 0.529 0.528 -0.48 0.505 0.024 0.505 0.024 0.505 0.024 0.505 0.024 0.505 0.024 0.505 0.024 0.505 0.024 0.505 0.024 0.505 0.024 0.505 0.024 0.505 0.024 0.505 0.024 1.009 0.048 0.505 0.024 0.505 0.024 0.505 0.024 1.009 0.048 0.505 0.024 1.009 0.048 0.505 0.024 0.505 0.024 0.505 0.024 0.505 0.024 0.505 0.024 1.009 0.048 0.505 0.024 0.505 0.024 0.505 0.024 0.482 0.528 0.505 0.024 0.505 0.024 0.505 0.024 0.482 0.528 0.505 0.024 0.482 0.528 0.505 0.024 0.482 0.528 0.482 0.528 1.445 1.585 0.963 1.057" />
  <path id="hole1" d="M-96.305 -24.975 l-1.526 -0.073 -0.509 -0.024 -0.531 0.481 -0.509 -0.024 -0.531 0.481 -0.531 0.481 -0.531 0.481 -0.023 0.505 -0.023 0.505 -0.531 0.481 -0.045 1.011 -0.023 0.505 0.486 0.53 -0.023 0.505 0.486 0.53 0.972 1.059 0.486 0.53 0.509 0.024 0.486 0.53 0.509 0.024 0.509 0.024 0.509 0.024 0.531 -0.481 0.508 0.024 0.531 -0.481 0.531 -0.481 0.531 -0.481 0.531 -0.481 0.023 -0.505 0.023 -0.505 0.531 -0.481 0.023 -0.505 0.023 -0.505 -0.486 -0.53 0.023 -0.505 -0.486 -0.53 0.023 -0.505 -0.486 -0.53 -0.509 -0.024 -0.486 -0.53 -0.509 -0.024 -0.486 -0.53" />
  <path id="hole2" d="M131.871 -20.152 l-0.482 -0.528 0.023 -0.504 -0.482 -0.528 -0.482 -0.528 -0.505 -0.024 -0.482 -0.528 -0.505 -0.024 -0.505 -0.024 -0.505 -0.024 -0.505 -0.024 -0.505 -0.024 -1.009 -0.048 -0.505 -0.024 -0.505 -0.024 -0.505 -0.024 -0.505 -0.024 -0.505 -0.024 -1.01 -0.048 -0.505 -0.024 -0.505 -0.024 -0.528 0.48 -1.056 0.96 -0.528 0.48 -0.046 1.008 -0.023 0.504 0.482 0.528 -0.023 0.504 0.482 0.528 0.482 0.528 0.505 0.024 0.482 0.528 1.514 0.072 1.01 0.048 1.009 0.048 1.514 0.072 0.505 0.024 0.505 0.024 1.009 0.048 1.009 0.048 1.583 -1.44 0.023 -0.504 0.528 -0.48 0.023 -0.504 0.023 -0.504" />
</svg>
