<!DOCTYPE svg PUBLIC "-//W3C//DTD SVG 1.1//EN" "http://www.w3.org/Graphics/SVG/1.1/DTD/svg11.dtd">
<svg xmlns:dc="http://purl.org/dc/elements/1.1/" xmlns:cc="http://creativecommons.org/ns#" xmlns:rdf="http://www.w3.org/1999/02/22-rdf-syntax-ns#" xmlns:svg="http://www.w3.org/2000/svg" version="1.1" width="500" height="500"  xmlns="http://www.w3.org/2000/svg">
  <circle cx="-0.336317922115995" cy="-0.319470390134498" r="8.14335164" style="fill:rgb(0,255,255);stroke-width:2;stroke:rgb(0,0,0)" />
  <path id="exterior" d="M -168.374163702116 -102.165163010134 L -169.342606052116 -102.059591720134 L -169.695762012116 -101.515570910134 L -169.734706112116 -93.4089889601344 L -169.907564412116 -92.4635925901343 L -170.198118322116 -91.8348407401343 L -170.964014912116 -90.9928935001345 L -171.909199052116 -90.5239614001345 L -172.856352682116 -90.3692789701343 L -175.399295122116 -90.3289527201343 L -177.304953262116 -90.4266332301343 L -179.210673462116 -90.7630469601343 L -182.065890162116 -91.7227049001343 L -183.969630352116 -92.7457680201343 L -188.102846102116 -95.3748144001343 L -191.924074672116 -97.1137308501345 L -194.951217932116 -97.9643766701343 L -200.834318662116 -99.2544315801343 L -204.657158322116 -99.7930094801345 L -206.889082092116 -99.7537029301345 L -209.121138952116 -99.3859073701345 L -215.488934752116 -97.4917210301344 L -221.533082742116 -96.0251900701344 L -229.486131552116 -94.4332160701343 L -235.210639182116 -93.5458402001345 L -245.703589162116 -92.4660694301343 L -251.744595072116 -92.1843296101343 L -258.746687992116 -92.1074225101343 L -285.166512102116 -92.6353111401344 L -289.620015992116 -92.9155916901345 L -295.023210262116 -93.6719221501343 L -305.516471962116 -96.0358492001345 L -310.608186322116 -96.6985062501345 L -315.062655652116 -96.8594722301343 L -321.427535982116 -96.7059436801345 L -361.075906002116 -94.4538414901343 L -366.455555362116 -94.3609639801343 L -369.298257942116 -94.8944736701345 L -371.192588352116 -95.5119783101343 L -376.818637902116 -98.4456231301343 L -379.800305552116 -99.4520253301345 L -388.733217052116 -101.024014030134 L -392.886635832116 -101.289425360134 L -395.445628242116 -101.058885740134 L -401.515791932116 -99.6825739301344 L -405.347572172116 -98.9810985001345 L -415.560682722116 -97.5444544201343 L -423.527601092116 -95.8398187101345 L -425.433149322116 -95.5712975001343 L -438.805078152116 -96.4152528301343 L -479.231149382116 -95.7962535401343 L -491.005588572116 -95.3126564901343 L -508.182684312116 -94.0019819101345 L -517.271239992116 -92.9962229701345 L -526.631823522116 -91.6843776101343 L -539.878121612116 -88.1355547901344 L -543.690233392116 -87.2725560601343 L -554.294295532116 -85.5540100201343 L -563.189860192116 -84.6759868601343 L -569.862173452116 -84.3429546501345 L -572.399196332116 -84.4241566801344 L -575.877021402116 -84.8174205201345 L -580.308295912116 -85.7998271201345 L -584.745017792116 -86.0552551801345 L -590.128078802116 -85.8192570501344 L -596.461804292116 -85.1068936901343 L -598.363271032116 -84.7863483201344 L -600.102876952116 -84.0060793501343 L -601.840903942116 -83.7642488301345 L -606.581535652116 -84.4624406001345 L -619.255223782116 -85.0959044601345 L -638.279578642116 -84.2975609601343 L -659.259560252116 -83.8629077401343 L -662.740520872116 -83.2838415601345 L -690.327015402116 -74.3876748701343 L -691.462890262116 -73.7713394001343 L -692.283231392116 -73.1159345801345 L -693.378260652116 -71.8812586501343 L -694.335630592116 -70.0544299701343 L -694.670475952116 -68.3313443701344 L -694.690755362116 -66.7372488201343 L -694.263824162116 -64.8220150901345 L -679.105412592116 -17.7427938901345 L -678.761196272116 -16.1570740601345 L -678.603450332116 -12.3449957001345 L -678.092590502116 35.3766814798657 L -678.590506772116 37.5985487798655 L -688.360226262116 71.3218970798655 L -690.962213582116 80.2250527798657 L -692.198369502116 83.7219822398655 L -692.675297512116 86.5895986598656 L -692.440883392116 89.1452957698655 L -691.792385632116 90.7464737898655 L -691.094179572116 91.7799118498655 L -689.861679682116 92.9847074998657 L -688.214269542116 93.9595588098655 L -661.425456952116 101.596175209865 L -657.610268832116 102.318836609866 L -655.374890662116 102.403128639865 L -634.703860162116 102.100766329866 L -617.224283382116 102.395329819866 L -602.932108962116 101.298489599866 L -598.809844802116 100.542741149865 L -597.235195672116 100.794879469865 L -595.340309132116 101.795495069866 L -594.378866922116 102.082684609866 L -587.081514812116 102.707346659866 L -581.051943932116 102.820695619866 L -577.556331162116 102.552271979866 L -571.834696592116 101.150553599866 L -569.620694652116 100.793562039865 L -566.773062152116 100.650767069866 L -560.758810932116 100.736829859866 L -554.427183272116 101.096041209866 L -547.146614012116 101.785774749866 L -538.281966632116 103.162290249865 L -523.060398212116 106.642318629866 L -515.439479832116 107.519733939866 L -504.644679372116 108.383157839866 L -496.388233702116 108.838647639866 L -485.278317062116 109.190583399866 L -469.726034412116 109.158207389866 L -435.726060792116 108.634461339866 L -422.047609852116 107.329858809866 L -419.827014022116 107.582880429866 L -411.240062252116 109.091578809866 L -400.422353662116 110.277097189866 L -392.152145982116 111.771566499866 L -388.965376192116 111.977399139866 L -385.938900702116 111.686791189866 L -378.134066452116 110.132742969865 L -375.610044202116 109.480496619866 L -373.349585012116 108.609287529865 L -372.072867852116 107.935803719866 L -368.257012492116 105.545644659866 L -366.355239892116 104.863363769866 L -363.500496532116 104.251991659866 L -360.010631412116 104.135001449866 L -316.471042342116 105.239041319865 L -312.015232322116 105.184168149866 L -308.832549122116 104.961821099866 L -304.057214322116 104.296544069866 L -299.808352342116 103.378017199866 L -292.598742932116 101.458733129866 L -286.232141782116 100.399277219866 L -277.634608232116 99.8395770798657 L -253.110303052116 98.6448597598655 L -246.749234372116 98.6308396398656 L -240.070710482116 98.9132252398656 L -229.895272492116 99.8559396798657 L -219.401968502116 101.511996399866 L -211.771685512116 103.179377789866 L -206.363665702116 104.594375999866 L -203.495885402116 104.933105769866 L -201.582549992116 104.873148189866 L -197.757766342116 104.147807139866 L -192.041685592116 102.721733619866 L -189.476828442116 101.929416289866 L -185.794777972116 100.192611149866 L -180.867821102116 96.9069586898655 L -178.008866112116 95.5495409498657 L -174.830677262116 94.7928418798656 L -171.017072512116 94.6013099398656 L -169.749605342116 94.6925511798656 L -168.804262952116 94.9831807598655 L -168.070807872116 95.4691664598657 L -167.426602122116 96.4158220098657 L -167.088645492116 97.9967683298656 L -166.874168402116 105.969888099866 L -166.600614202116 106.382483939866 L -165.308665672116 106.512338589866 L -146.836973062116 105.125463999866 L -141.731310942116 104.582996619866 L -141.210516912116 104.129263899865 L -141.076913352116 103.481583769866 L -141.068855452116 97.7459357398657 L -140.775716622116 96.1680174698655 L -140.423362882116 95.5341841798657 L -139.744567792116 94.9134561998657 L -138.845820422116 94.5117997598656 L -137.580734132116 94.3249689898656 L -71.658316072116 93.5939089898657 L -69.7550765921159 93.7433302098655 L -66.2587194021158 95.1380531798657 L -63.702791182116 95.7270020398657 L -46.496188002116 95.2078166898655 L -42.6700837421158 94.9789388398655 L -40.780561882116 94.5678842498657 L -38.8303390521158 93.6355489598656 L -36.8877204121159 92.3461371298656 L -35.6511178821157 91.8682265098657 L -34.0631331221159 91.6927404598656 L -24.1854902021158 91.3437352798655 L -23.536336962116 91.1906748298657 L -22.2608093621161 90.4587831498657 L -20.9990032521162 90.2153081698655 L -17.5007116821157 90.8594976398655 L -15.5846059221161 90.9605462998657 L 46.238548577884 88.7658755698657 L 47.5014112978843 88.9745049798657 L 50.4361992978842 90.3382794498655 L 51.644702017884 90.7412822298657 L 53.881219667884 91.0172376998657 L 55.7973165478842 90.9889071098657 L 75.5625998578842 89.8437134398655 L 77.4840174378842 89.4375954598657 L 80.9957320578841 87.7138712298655 L 81.9443586378841 87.3994519698656 L 93.7371374378841 86.7160603998657 L 98.517755807884 85.6153878598657 L 99.4634646278842 85.7544938498657 L 101.059958277884 86.3542645598657 L 105.211479197884 86.2467205198657 L 183.634763587884 82.3867232898655 L 223.182381387884 80.1891397498655 L 224.766753117884 80.3507014698657 L 225.711901047884 80.8053688998655 L 226.575310267884 81.8455745198657 L 227.191641107884 83.7705249098657 L 227.636068557884 83.9244645498657 L 228.599459107884 83.9215552898656 L 252.527719467884 81.9480521698656 L 252.871652327884 81.5904623998655 L 253.287171387884 79.9983658298657 L 253.902724277884 79.0548364898655 L 255.085470627884 78.3005928898655 L 256.672162017884 78.0200258098655 L 292.394007117884 75.9839076498655 L 321.738764957884 73.6861226098656 L 323.961465247884 73.8000567598655 L 328.744430657884 75.3187737898657 L 331.302710147884 75.3916371698655 L 351.718970117884 73.6142360698657 L 354.193189687884 72.9248009598657 L 357.474664757884 71.0536875598655 L 359.377681387884 70.5730711598657 L 375.011712887884 69.2720205898656 L 402.449145147884 67.3163856998655 L 441.360809147884 65.3269139898655 L 443.263322287884 65.5759533898655 L 445.815202517884 66.7627977798657 L 448.051843817884 67.3038951798657 L 461.769493857884 66.8194982198657 L 469.110789257884 66.4134425598657 L 471.035412337884 65.8614995198657 L 473.908581957884 64.2899048698655 L 476.131401907884 63.8425065298657 L 588.450157807884 59.8925414498655 L 591.013157797884 59.5151512498657 L 594.211273987884 57.8765806198656 L 596.116624777884 57.5236298798657 L 618.782786187884 56.9708653898655 L 629.637423997884 56.9598425498655 L 630.800650057884 56.6723777698657 L 632.527099527884 55.4643469998655 L 635.241405197884 51.8872476698655 L 636.697832437884 50.6193428598655 L 638.897128037884 49.4318994198657 L 641.436762227884 48.8759660498655 L 643.659109627884 48.9765625998655 L 646.368917497884 49.8208964898655 L 647.638271527884 50.5623057598655 L 648.847520177884 51.5883373498655 L 651.451036657884 54.9209919098655 L 653.511970527884 56.4723899198655 L 655.112549397884 56.9468407498655 L 657.347684817884 57.0277638798657 L 681.261884017884 56.5652171698656 L 684.455699507884 55.7090610698655 L 689.235737197884 56.4979654898655 L 695.620522597884 56.4629170798657 L 698.177308777884 56.3030393598655 L 699.817591317884 55.8404365798655 L 701.385588477884 54.8846815598656 L 702.366970687884 53.9227189798657 L 704.184331967884 51.6950992098655 L 706.487079487884 49.9768228298657 L 707.757936787884 49.3566735098657 L 709.034199947884 48.9604063798655 L 711.584521967884 48.6609082298657 L 714.134122327884 49.0041214098657 L 715.643639527884 49.4455695898656 L 716.920501917884 50.0789234998656 L 718.770998687884 51.4187280498656 L 720.752164707884 53.7134926298657 L 721.782165137884 54.6214035898657 L 723.377098307884 55.5898967998657 L 725.011859647884 55.9213712598657 L 772.007217697884 55.4636953098657 L 774.255030247884 54.8979333498657 L 775.218675997884 54.3851063398656 L 776.505682807884 53.3979656998655 L 777.148543447884 52.5925434998657 L 777.792814467884 51.3853002298655 L 778.163576577884 50.2981634698655 L 778.372937857884 49.0163546798657 L 776.550257877884 -71.2446268401342 L 776.382878907884 -72.5246841601343 L 775.903189697884 -74.1257538001344 L 775.372041117884 -75.1269514201343 L 774.633698227884 -76.0512111701343 L 773.540699267884 -77.0149873301343 L 772.456000177884 -77.6579913201343 L 770.854045417884 -78.2486537201343 L 770.211077047884 -78.3283754401344 L 723.227036517884 -77.6306342801343 L 721.619560337884 -77.3069895801343 L 719.689057237884 -76.1848401501343 L 718.721084697884 -75.2560116601343 L 716.796733977884 -72.9521127701343 L 714.561432297884 -71.3119329401345 L 712.009667057884 -70.3336623401345 L 709.460657867884 -70.0413792001343 L 706.691847827884 -70.3757590001345 L 704.790595187884 -71.1111095101343 L 703.523135797884 -71.8681784401343 L 702.256343357884 -72.9309661401344 L 700.355167897884 -75.1615101201343 L 699.077485537884 -76.2384737801343 L 696.737293477884 -77.2711759601343 L 695.137315917884 -77.4473204301343 L 687.476647347884 -77.3054350401343 L 683.009835747884 -76.3700161101343 L 681.222411847884 -76.5572141601343 L 680.267832737884 -76.8922007501345 L 680.439140767884 -76.9011755901344 L 679.823560457884 -76.9645920401344 L 670.890052387884 -76.9271302001343 L 646.939048087884 -76.6694649201343 L 645.016432987884 -76.3993968201344 L 643.099859017884 -75.7985135001344 L 641.509581427884 -75.6729872201344 L 594.166998497884 -75.5914810201343 L 592.451891707884 -75.7660742101343 L 588.734209677884 -77.5271791301345 L 586.485754027884 -77.7555300801343 L 474.161305257884 -78.4730345901343 L 472.888214887884 -78.5805603401345 L 471.601305747884 -78.9058150501343 L 468.105971287884 -80.6130643401343 L 465.225261777884 -80.9706788201343 L 445.769868237884 -81.1121524101343 L 443.844742407884 -80.6633257201343 L 440.974441617884 -79.0850916501344 L 439.070738767884 -78.7438704001344 L 406.218404147884 -79.6332247701343 L 402.710865427884 -79.7647441901343 L 400.476420977884 -80.1028111901343 L 379.743437067884 -80.9493338001344 L 357.101978147884 -82.1039726601343 L 355.519048337884 -82.5099682201345 L 353.278310237884 -83.7682095701343 L 351.691475887884 -84.4553645401344 L 347.859750497884 -85.2266178601345 L 345.622744737884 -85.1465352901343 L 331.274108577884 -86.0221425001343 L 326.481459377884 -85.9504082701343 L 325.258504187884 -85.6415244901343 L 322.010061467884 -84.3310189801343 L 320.108026897884 -84.0650355601343 L 299.385532787884 -85.1635527201343 L 253.795784977884 -86.5374422401345 L 252.532448687884 -86.8237322401345 L 251.631648227884 -87.3838431501343 L 251.136552137884 -88.0126118201343 L 250.543651357884 -89.6093961401344 L 249.981553927884 -89.9845458601345 L 226.703695787884 -91.1150155901343 L 225.423766837884 -91.1038234501343 L 224.761853137884 -90.9095235801345 L 224.116632367884 -88.9880487201343 L 223.483660787884 -88.1828877301343 L 222.851257627884 -87.7485683901343 L 221.906182757884 -87.4023553701343 L 220.317863077884 -87.3295912901343 L 179.836128127884 -88.4188761101345 L 99.841267927884 -89.9264456901345 L 98.5611559978842 -89.8978415301343 L 96.331401737884 -89.2789125201343 L 91.2371484978842 -90.2841880101343 L 79.766953547884 -90.5484025701343 L 78.8183740978841 -90.8346862601344 L 75.6313265278841 -92.2989869901344 L 74.3525427878841 -92.6729048101343 L 72.7551016478841 -92.9079635601343 L 53.9478657678841 -93.3664238501345 L 51.0765404178841 -93.2933035801345 L 49.476562467884 -93.0481255701345 L 48.066359317884 -92.5859463201343 L 45.3244773978842 -91.1370912201343 L 43.422944217884 -90.8312205301343 L -8.95093071211602 -91.1187356001345 L -11.3987856621161 -90.9706399701344 L -15.2181347521159 -90.2371110301343 L -15.8481299521158 -90.3219964601345 L -17.7628682521157 -91.0666590701343 L -38.155433622116 -91.3249603201343 L -39.416964052116 -91.7393532101344 L -41.6439928421158 -93.1278782901343 L -43.241535082116 -93.8976774601343 L -44.839039852116 -94.2885039601343 L -46.437927302116 -94.4285806901343 L -66.3103595121158 -94.4512466601344 L -69.0572740421159 -93.8203552201344 L -72.250854632116 -92.3183636601345 L -74.152655952116 -92.0539880301345 L -140.057932622116 -90.9790707801345 L -141.324666262116 -91.0770384301345 L -142.270897662116 -91.4009646301343 L -143.160856882116 -92.0990634501343 L -143.584252532116 -92.7271164201345 L -143.960529362116 -94.3080770301341 L -144.108408402116 -100.361807610134 L -144.477199222116 -100.960370730134 L -145.767420572116 -101.138052360134 Z" style="fill:none;stroke:rgb(255,255,0);stroke-width:2" />
  <path d="M -506.687505332116 -1.29043045013449 L -505.107059562116 -1.0889294901343 L -503.844904432116 -0.647035070134407 L -501.737202492116 0.6426101998657 L -500.371984262116 2.1127337698655 L -499.312527302116 4.13427081986561 L -498.843579002116 6.35234327986569 L -498.870038912116 7.93698369986571 L -499.321529552116 9.8370693098657 L -500.075102242116 11.3925873498655 L -501.026606832116 12.6365737998657 L -502.293230242116 13.7237012998657 L -503.242842892116 14.2647476998657 L -505.224406602116 14.9746205198657 L -506.490242732116 15.1611033598656 L -515.382352342116 15.2586872298655 L -516.962498012116 15.0350344398655 L -518.862449512116 14.3341605898655 L -520.511319112116 13.2548361998655 L -522.103795462116 11.3484404098655 L -522.945395912116 9.4458223098657 L -523.333736482116 7.5451128498657 L -523.319393212116 6.2771139398657 L -523.040485502116 4.6953055898655 L -522.401924922116 3.11337516986571 L -521.315314872116 1.53248831986549 L -520.100773962116 0.391379549865604 L -518.833163062116 -0.375827280134303 L -516.838504592116 -1.06789562013429 L -515.892389862116 -1.1884190101343 Z" style="fill:none;stroke:rgb(255,255,0);stroke-width:2" />
  <path d="M 670.242496587884 -18.1722550001343 L 672.022029017884 -17.6598484801343 L 673.289875507884 -16.9402417101343 L 674.518136117884 -15.9578253601344 L 675.519341227884 -14.6875400701343 L 676.497874047884 -12.7823398901344 L 676.874942827884 -10.5600691301344 L 676.787285007884 -8.65618159013428 L 676.303489207884 -7.06801458013427 L 675.838164807884 -6.11879448013445 L 674.533536447884 -4.33866082013429 L 673.261582897884 -3.28958795013426 L 672.310252567884 -2.73352099013431 L 670.402785147884 -2.0468714501345 L 668.815440217884 -1.85344134013449 L 660.205412897884 -1.7573310901343 L 658.935101847884 -1.92302859013429 L 656.847601917884 -2.59496738013426 L 655.333151387884 -3.60881524013445 L 653.582082967884 -5.51899898013431 L 652.629875317884 -7.42406368013434 L 652.265040287884 -9.64663148013433 L 652.355035097884 -11.2336424001344 L 652.651016127884 -12.5022464601345 L 653.374804587884 -14.0891462501343 L 654.334317657884 -15.4442216801343 L 655.289078647884 -16.3630897201343 L 656.878043377884 -17.3847953101343 L 658.466287777884 -17.9723550401345 L 660.051932847884 -18.2016517901345 L 668.974734867884 -18.3370140701344 Z" style="fill:none;stroke:rgb(255,255,0);stroke-width:2" />
</svg>