<?xml version="1.0" encoding="UTF-8" standalone="no"?>
<!-- 2025-03-17 10:35:13 Generated by QCAD 3.32.2 SVG Exporter -->

<svg
  width="600mm"
  height="300mm"
  viewBox="-500 -75 600 300"
  version="1.1"
  style="stroke-linecap:round;stroke-linejoin:round;fill:none"
  id="svg25"
  sodipodi:docname="q1.svg"
  inkscape:version="1.4 (86a8ad7, 2024-10-11)"
  xmlns:inkscape="http://www.inkscape.org/namespaces/inkscape"
  xmlns:sodipodi="http://sodipodi.sourceforge.net/DTD/sodipodi-0.dtd"
  xmlns="http://www.w3.org/2000/svg"
  xmlns:svg="http://www.w3.org/2000/svg">
 <sodipodi:namedview
   id="namedview25"
   pagecolor="#ffffff"
   bordercolor="#666666"
   borderopacity="1.0"
   inkscape:showpageshadow="2"
   inkscape:pageopacity="0.0"
   inkscape:pagecheckerboard="0"
   inkscape:deskcolor="#d1d1d1"
   inkscape:document-units="mm"
   inkscape:zoom="0.50825755"
   inkscape:cx="1209.0327"
   inkscape:cy="516.47044"
   inkscape:window-width="1920"
   inkscape:window-height="1017"
   inkscape:window-x="-8"
   inkscape:window-y="-8"
   inkscape:window-maximized="1"
   inkscape:current-layer="g25" />
 <defs
   id="defs25" />
 <g
   transform="scale(1,-1)"
   id="g25">
  <!-- Referencia de bloque: B3992883001-pl / entities: 8 -->
  <g
    id="g7">
   <!-- C&#237;rculo -->
   <path
     id="circle1"
     style="stroke:#ffff00;stroke-width:0.35"
     d="M -390 0 L -390.194 1.96001 L -390.761 3.82683 L -391.68 5.54801 L -392.929 7.07107 L -394.452 8.31988 L -396.173 9.2388 L -398.04 9.80608 L -400 10 L -401.96 9.80608 L -403.827 9.2388 L -405.548 8.31988 L -407.071 7.07107 L -408.32 5.54801 L -409.239 3.82683 L -409.806 1.96001 L -410 1.22465e-15 L -409.806 -1.96001 L -409.239 -3.82683 L -408.32 -5.54801 L -407.071 -7.07107 L -405.548 -8.31988 L -403.827 -9.2388 L -401.96 -9.80608 L -400 -10 L -398.04 -9.80608 L -396.173 -9.2388 L -394.452 -8.31988 L -392.929 -7.07107 L -391.68 -5.54801 L -390.761 -3.82683 L -390.194 -1.96001 L -390 0 L -390 0" />
   <!-- C&#237;rculo -->
   <path
     id="circle2"
     style="stroke:#ffff00;stroke-width:0.35"
     d="M 50 -150 L 49.7553 -145.058 L 49.0304 -140.2 L 47.8387 -135.458 L 46.194 -130.866 L 44.1097 -126.455 L 41.5994 -122.26 L 38.6768 -118.312 L 35.3553 -114.645 L 31.6879 -111.323 L 27.74 -108.401 L 23.5445 -105.89 L 19.1342 -103.806 L 14.5418 -102.161 L 9.80007 -100.97 L 4.94189 -100.245 L 3.06162e-15 -100 L -4.94189 -100.245 L -9.80007 -100.97 L -14.5418 -102.161 L -19.1342 -103.806 L -23.5445 -105.89 L -27.74 -108.401 L -31.6879 -111.323 L -35.3553 -114.645 L -38.6768 -118.312 L -41.5994 -122.26 L -44.1097 -126.455 L -46.194 -130.866 L -47.8387 -135.458 L -49.0304 -140.2 L -49.7553 -145.058 L -50 -150 L -49.7553 -154.942 L -49.0304 -159.8 L -47.8387 -164.542 L -46.194 -169.134 L -44.1097 -173.545 L -41.5994 -177.74 L -38.6768 -181.688 L -35.3553 -185.355 L -31.6879 -188.677 L -27.74 -191.599 L -23.5445 -194.11 L -19.1342 -196.194 L -14.5418 -197.839 L -9.80007 -199.03 L -4.94189 -199.755 L -9.18485e-15 -200 L 4.94189 -199.755 L 9.80007 -199.03 L 14.5418 -197.839 L 19.1342 -196.194 L 23.5445 -194.11 L 27.74 -191.599 L 31.6879 -188.677 L 35.3553 -185.355 L 38.6768 -181.688 L 41.5994 -177.74 L 44.1097 -173.545 L 46.194 -169.134 L 47.8387 -164.542 L 49.0304 -159.8 L 49.7553 -154.942 L 50 -150 L 50 -150" />
   <!-- C&#237;rculo -->
   <path
     id="circle3"
     style="stroke:#ffff00;stroke-width:0.35"
     d="M 50 0 L 49.7553 4.94189 L 49.0304 9.80007 L 47.8387 14.5418 L 46.194 19.1342 L 44.1097 23.5445 L 41.5994 27.74 L 38.6768 31.6879 L 35.3553 35.3553 L 31.6879 38.6768 L 27.74 41.5994 L 23.5445 44.1097 L 19.1342 46.194 L 14.5418 47.8387 L 9.80007 49.0304 L 4.94189 49.7553 L 3.06162e-15 50 L -4.94189 49.7553 L -9.80007 49.0304 L -14.5418 47.8387 L -19.1342 46.194 L -23.5445 44.1097 L -27.74 41.5994 L -31.6879 38.6768 L -35.3553 35.3553 L -38.6768 31.6879 L -41.5994 27.74 L -44.1097 23.5445 L -46.194 19.1342 L -47.8387 14.5418 L -49.0304 9.80007 L -49.7553 4.94189 L -50 6.12323e-15 L -49.7553 -4.94189 L -49.0304 -9.80007 L -47.8387 -14.5418 L -46.194 -19.1342 L -44.1097 -23.5445 L -41.5994 -27.74 L -38.6768 -31.6879 L -35.3553 -35.3553 L -31.6879 -38.6768 L -27.74 -41.5994 L -23.5445 -44.1097 L -19.1342 -46.194 L -14.5418 -47.8387 L -9.80007 -49.0304 L -4.94189 -49.7553 L -3.63374e-15 -50 L 4.94189 -49.7553 L 9.80007 -49.0304 L 14.5418 -47.8387 L 19.1342 -46.194 L 23.5445 -44.1097 L 27.74 -41.5994 L 31.6879 -38.6768 L 35.3553 -35.3553 L 38.6768 -31.6879 L 41.5994 -27.74 L 44.1097 -23.5445 L 46.194 -19.1342 L 47.8387 -14.5418 L 49.0304 -9.80007 L 49.7553 -4.94189 L 50 0 L 50 0" />
   <!-- C&#237;rculo -->
   <path
     id="circle4"
     style="stroke:#ffff00;stroke-width:0.35"
     d="M -390 -150 L -390.194 -148.04 L -390.761 -146.173 L -391.68 -144.452 L -392.929 -142.929 L -394.452 -141.68 L -396.173 -140.761 L -398.04 -140.194 L -400 -140 L -401.96 -140.194 L -403.827 -140.761 L -405.548 -141.68 L -407.071 -142.929 L -408.32 -144.452 L -409.239 -146.173 L -409.806 -148.04 L -410 -150 L -409.806 -151.96 L -409.239 -153.827 L -408.32 -155.548 L -407.071 -157.071 L -405.548 -158.32 L -403.827 -159.239 L -401.96 -159.806 L -400 -160 L -398.04 -159.806 L -396.173 -159.239 L -394.452 -158.32 L -392.929 -157.071 L -391.68 -155.548 L -390.761 -153.827 L -390.194 -151.96 L -390 -150 L -390 -150" />
   <!-- L&#237;nea -->
   <!-- L&#237;nea -->
   <!-- L&#237;nea -->
   <!-- L&#237;nea -->
   <path
     id="path7"
     style="stroke:#ffff00;stroke-width:0.35"
     d="M 100 75 L -500 75 L -500 -225 L 100 -225 L 100 75"
     sodipodi:nodetypes="ccccc" />
  </g>
  <!-- Texto: QCAD.org
Trial Version
Random lines added -->
  <g
    id="g10" />
  <!-- L&#237;nea -->
  <!-- L&#237;nea -->
  <!-- L&#237;nea -->
  <!-- Texto: QCAD.org
Trial Version
Random lines added -->
  <g
    id="g16" />
  <!-- L&#237;nea -->
  <!-- L&#237;nea -->
  <!-- L&#237;nea -->
  <!-- Texto: QCAD.org
Trial Version
Random lines added -->
  <g
    id="g22" />
  <!-- L&#237;nea -->
  <!-- L&#237;nea -->
  <!-- L&#237;nea -->
 </g>
</svg>
