<svg viewBox="-499.21 58.11 0.00 0.00" xmlns="http://www.w3.org/2000/svg" xmlns:xlink="http://www.w3.org/1999/xlink">
  <path id="exterior" d="M-499.207 58.106 l0.502 -0.53 -0.01 -0.512 -0.01 -0.512 -0.01 -0.512 0.502 -0.53 -0.01 -0.512 -0.01 -0.512 0.502 -0.53 -0.01 -0.512 0.502 -0.53 -0.01 -0.512 0.502 -0.53 -0.01 -0.512 0.502 -0.53 -0.01 -0.512 0.502 -0.53 -0.01 -0.512 0.502 -0.53 -0.01 -0.512 0.502 -0.53 -0.01 -0.512 0.502 -0.529 -0.01 -0.512 0.502 -0.529 -0.01 -0.512 0.502 -0.529 -0.01 -0.512 0.502 -0.529 -0.01 -0.512 0.502 -0.529 -0.01 -0.512 0.502 -0.529 -0.01 -0.512 0.502 -0.529 -0.01 -0.512 0.502 -0.529 -0.01 -0.512 -0.01 -0.512 1.004 -1.059 -0.01 -0.512 -0.01 -0.512 0.502 -0.529 -0.01 -0.512 0.502 -0.529 -0.01 -0.512 0.502 -0.529 -0.01 -0.512 0.502 -0.529 -0.01 -0.512 0.502 -0.529 -0.01 -0.512 0.502 -0.529 -0.01 -0.512 -0.01 -0.512 0.502 -0.529 -0.01 -0.512 0.502 -0.529 -0.01 -0.512 0.502 -0.529 -0.01 -0.512 0.502 -0.529 -0.01 -0.512 -0.01 -0.512 0.502 -0.529 -0.01 -0.512 0.502 -0.529 -0.01 -0.512 -0.01 -0.512 0.502 -0.529 -0.01 -0.512 0.502 -0.529 -0.01 -0.512 0.502 -0.529 -0.01 -0.511 -0.01 -0.512 0.502 -0.529 -0.01 -0.511 0.502 -0.529 -0.01 -0.511 -0.01 -0.511 0.502 -0.529 -0.01 -0.511 0.502 -0.529 -0.01 -0.511 -0.01 -0.511 0.502 -0.529 -0.01 -0.511 0.501 -0.529 -0.01 -0.511 -0.01 -0.511 0.501 -0.529 -0.01 -0.511 0.501 -0.529 -0.01 -0.511 -0.01 -0.511 0.502 -0.529 -0.01 -0.511 0.501 -0.529 -0.01 -0.511 0.501 -0.529 -0.01 -0.511 -0.01 -0.511 0.501 -0.529 -0.01 -0.511 -0.01 -0.511 -0.01 -0.511 0.501 -0.529 -0.01 -0.511 0.501 -0.529 -0.02 -1.022 0.501 -0.528 -0.01 -0.511 -0.01 -0.511 0.501 -0.528 -0.01 -0.511 -0.01 -0.511 0.501 -0.528 -0.01 -0.511 -0.01 -0.511 -0.01 -0.511 0.501 -0.528 -0.01 -0.511 0.501 -0.528 -0.01 -0.511 -0.02 -1.022 0.501 -0.528 -0.01 -0.511 -0.01 -0.511 0.501 -0.528 -0.01 -0.511 -0.01 -0.511 0.501 -0.528 -0.01 -0.511 -0.01 -0.511 0.501 -0.528 -0.01 -0.511 -0.01 -0.511 0.501 -0.528 -0.01 -0.511 -0.01 -0.511 0.501 -0.528 -0.02 -1.022 0.501 -0.528 -0.01 -0.511 -0.01 -0.511 -0.01 -0.511 0.501 -0.528 -0.01 -0.511 -0.01 -0.511 0.501 -0.528 -0.01 -0.511 -0.021 -1.022 0.501 -0.528 -0.01 -0.511 -0.01 -0.511 0.501 -0.528 -0.02 -1.021 -0.01 -0.511 0.501 -0.528 -0.01 -0.511 -0.01 -0.511 0.501 -0.528 -0.01 -0.511 -0.01 -0.511 -0.021 -1.021 0.501 -0.528 -0.01 -0.511 -0.01 -0.511 -0.01 -0.511 0.501 -0.528 -0.021 -1.021 -0.01 -0.511 0.501 -0.528 -0.01 -0.511 -0.01 -0.511 -0.01 -0.511 0.501 -0.528 -0.01 -0.511 -0.021 -1.021 0.501 -0.528 -0.031 -1.531 0.501 -0.528 -0.01 -0.51 -0.01 -0.51 -0.01 -0.51 0.501 -0.528 -0.01 -0.51 -0.01 -0.51 -0.01 -0.51 -0.01 -0.51 0.501 -0.527 -0.021 -1.021 -0.01 -0.51 -0.01 -0.51 0.501 -0.527 -0.01 -0.51 -0.01 -0.51 -0.01 -0.51 -0.01 -0.51 0.501 -0.527 -0.031 -1.531 0.501 -0.527 -0.021 -1.02 -0.01 -0.51 -0.01 -0.51 0.501 -0.527 -0.01 -0.51 -0.01 -0.51 0.501 -0.527 -0.01 -0.51 -0.01 -0.51 -0.01 -0.51 0.501 -0.527 -0.01 -0.51 -0.021 -1.02 -0.01 -0.51 0.501 -0.527 -0.01 -0.51 0.501 -0.527 1.001 -1.054 0.501 -0.527 0.511 -0.017 0.501 -0.527 0.501 -0.527 0.511 -0.017 0.5 -0.527 0.511 -0.017 1.022 -0.034 0.511 -0.017 0.521 0.493 1.022 -0.034 0.511 -0.017 0.511 -0.017 0.511 -0.017 1.533 -0.051 0.511 -0.017 0.521 0.493 1.022 -0.034 0.511 -0.017 0.511 -0.017 0.511 -0.017 0.511 -0.017 0.511 -0.017 0.511 -0.017 0.511 -0.017 0.521 0.493 0.511 -0.017 0.511 -0.017 0.511 -0.017 0.511 -0.017 1.532 -0.051 0.521 0.493 0.511 -0.017 0.511 -0.017 0.511 -0.017 0.511 -0.017 0.511 -0.017 0.511 -0.017 0.511 -0.017 0.511 -0.017 0.511 -0.017 0.521 0.493 0.511 -0.017 0.511 -0.017 1.021 -0.034 0.51 -0.017 1.531 -0.051 1.021 -0.034 0.51 -0.017 0.51 -0.017 1.021 -0.034 0.51 -0.017 0.51 -0.017 0.51 -0.017 0.51 -0.017 1.021 -0.034 0.51 -0.017 1.531 -0.051 0.5 -0.527 1.021 -0.034 0.51 -0.017 0.51 -0.017 0.51 -0.017 0.51 -0.017 0.51 -0.017 0.51 -0.017 0.5 -0.527 0.51 -0.017 0.51 -0.017 0.51 -0.017 1.531 -0.05 0.51 -0.017 0.5 -0.527 0.51 -0.017 0.51 -0.017 0.51 -0.017 0.51 -0.017 0.51 -0.017 0.51 -0.017 0.499 -0.527 0.51 -0.017 0.51 -0.017 0.51 -0.017 0.51 -0.017 0.51 -0.017 0.499 -0.527 0.51 -0.017 0.51 -0.017 0.51 -0.017 0.499 -0.526 0.51 -0.017 0.51 -0.017 0.51 -0.017 0.51 -0.017 0.499 -0.526 1.53 -0.05 0.51 -0.017 0.499 -0.526 0.51 -0.017 0.51 -0.017 0.51 -0.017 0.499 -0.526 0.51 -0.017 1.02 -0.033 0.499 -0.526 1.02 -0.033 0.51 -0.017 0.499 -0.526 0.51 -0.017 0.51 -0.017 0.499 -0.526 0.51 -0.017 0.51 -0.017 0.499 -0.526 1.019 -0.033 0.499 -0.526 0.51 -0.017 0.51 -0.017 0.51 -0.017 0.499 -0.526 0.51 -0.017 0.51 -0.017 0.499 -0.526 0.51 -0.017 0.51 -0.017 0.499 -0.526 0.51 -0.017 0.51 -0.017 0.499 -0.526 0.51 -0.017 0.499 -0.526 0.51 -0.017 0.51 -0.017 0.499 -0.526 0.51 -0.017 0.509 -0.017 0.499 -0.526 0.509 -0.017 0.509 -0.017 0.499 -0.526 0.509 -0.017 0.509 -0.017 0.499 -0.526 0.509 -0.017 0.509 -0.017 0.499 -0.526 0.509 -0.017 0.509 -0.017 0.499 -0.526 0.509 -0.017 0.499 -0.526 0.509 -0.017 0.509 -0.017 0.498 -0.526 0.509 -0.017 0.509 -0.017 0.498 -0.526 1.019 -0.033 0.498 -0.526 0.509 -0.017 0.509 -0.017 0.498 -0.526 0.509 -0.017 0.509 -0.017 0.498 -0.526 0.509 -0.017 0.498 -0.526 0.509 -0.017 0.509 -0.017 0.498 -0.526 0.509 -0.016 0.509 -0.017 0.498 -0.526 0.509 -0.017 0.498 -0.526 0.509 -0.017 0.509 -0.016 0.498 -0.526 0.509 -0.017 0.509 -0.016 0.498 -0.526 0.509 -0.016 0.509 -0.016 0.498 -0.526 0.509 -0.016 0.509 -0.016 0.509 -0.016 0.498 -0.526 0.509 -0.016 0.509 -0.016 0.498 -0.526 1.018 -0.033 0.498 -0.526 1.018 -0.033 0.498 -0.525 0.509 -0.016 0.509 -0.016 0.509 -0.016 0.509 -0.016 0.498 -0.525 0.509 -0.016 1.018 -0.033 0.498 -0.525 0.509 -0.016 0.509 -0.016 0.498 -0.525 0.509 -0.016 0.509 -0.016 0.509 -0.016 0.498 -0.525 1.526 -0.049 0.509 -0.016 0.509 -0.016 0.509 -0.016 0.498 -0.525 1.017 -0.033 0.509 -0.016 0.498 -0.525 1.017 -0.033 0.509 -0.016 0.509 -0.016 0.497 -0.525 0.509 -0.016 0.509 -0.016 0.509 -0.016 0.509 -0.016 0.497 -0.525 0.509 -0.016 1.017 -0.033 0.509 -0.016 0.508 -0.016 0.508 -0.016 0.508 -0.016 0.497 -0.525 1.017 -0.033 0.508 -0.016 0.508 -0.016 0.508 -0.016 0.508 -0.016 0.497 -0.525 0.508 -0.016 0.508 -0.016 0.508 -0.016 1.017 -0.032 0.508 -0.016 1.017 -0.032 0.519 0.493 0.508 -0.016 0.519 0.493 0.497 -0.525 0.519 0.493 0.497 -0.525 0.497 -0.525 0.508 -0.016 1.039 0.985 0.519 0.493 0.519 0.493 0.508 -0.016 0.497 -0.525 -0.011 -0.509 0.994 -1.05 0.497 -0.525 0.508 -0.016 0.508 -0.016 1.016 -0.032 2.032 -0.065 1.016 -0.032 0.508 -0.016 0.508 -0.016 0.508 -0.016 0.508 -0.016 0.508 -0.016 2.032 -0.065 1.016 -0.032 0.508 -0.016 0.508 -0.016 0.508 -0.016 0.508 -0.016 0.508 -0.016 0.508 -0.016 0.508 -0.016 0.508 -0.016 0.508 -0.016 1.524 -0.048 0.508 -0.016 0.508 -0.016 0.519 0.493 0.508 -0.016 0.508 -0.016 0.508 -0.016 0.508 -0.016 0.508 -0.016 1.523 -0.048 0.508 -0.016 0.508 -0.016 0.508 -0.016 0.508 -0.016 0.508 -0.016 0.508 -0.016 0.508 -0.016 2.031 -0.064 0.508 -0.016 0.508 -0.016 0.508 -0.016 0.508 -0.016 0.508 -0.016 0.508 -0.016 0.519 0.493 0.508 -0.016 0.508 -0.016 1.015 -0.032 1.015 -0.032 0.508 -0.016 0.508 -0.016 0.508 -0.016 0.496 -0.525 0.508 -0.016 0.508 -0.016 1.523 -0.048 0.508 -0.016 0.496 -0.525 0.508 -0.016 0.508 -0.016 0.507 -0.016 0.496 -0.525 0.507 -0.016 0.507 -0.016 0.496 -0.525 0.507 -0.016 0.507 -0.016 0.496 -0.524 0.507 -0.016 0.496 -0.524 0.507 -0.016 0.496 -0.524 0.507 -0.016 0.496 -0.524 0.496 -0.524 0.507 -0.016 0.496 -0.524 0.507 -0.016 0.496 -0.524 0.496 -0.524 0.507 -0.016 0.496 -0.524 0.507 -0.016 0.496 -0.524 0.507 -0.016 0.496 -0.524 0.507 -0.016 0.496 -0.524 0.507 -0.016 0.496 -0.524 0.496 -0.524 0.507 -0.016 0.496 -0.524 0.507 -0.016 0.496 -0.524 0.496 -0.524 0.507 -0.016 0.496 -0.524 0.507 -0.016 0.496 -0.524 0.507 -0.016 0.496 -0.524 0.507 -0.016 0.496 -0.524 0.495 -0.524 0.507 -0.016 0.507 -0.016 0.495 -0.524 0.507 -0.016 0.495 -0.524 0.507 -0.016 1.521 -0.047 0.507 -0.016 0.507 -0.016 0.507 -0.016 0.507 -0.016 0.507 -0.016 0.507 -0.016 0.507 -0.016 0.507 -0.016 0.507 -0.016 0.507 -0.016 0.507 -0.016 1.014 -0.031 1.014 -0.031 0.507 -0.016 0.507 -0.016 0.507 -0.016 1.014 -0.031 0.507 -0.016 0.507 -0.016 0.507 -0.016 0.519 0.493 0.507 -0.016 0.507 -0.016 1.014 -0.031 0.507 -0.016 0.519 0.493 0.507 -0.016 0.507 -0.016 0.519 0.493 0.507 -0.016 0.519 0.493 0.518 0.493 0.507 -0.016 1.037 0.985 0.519 0.493 0.507 -0.016 1.037 0.985 0.518 0.493 0.507 -0.016 0.518 0.493 0.519 0.493 0.507 -0.016 0.519 0.493 0.518 0.493 0.507 -0.016 1.037 0.985 0.518 0.493 0.507 -0.016 0.518 0.493 0.518 0.493 0.507 -0.016 0.518 0.493 0.518 0.493 0.518 0.493 0.507 -0.016 1.037 0.985 0.507 -0.016 0.518 0.493 0.507 -0.016 0.518 0.493 0.507 -0.016 0.518 0.493 0.507 -0.016 0.518 0.493 0.507 -0.016 0.518 0.493 0.507 -0.016 0.518 0.493 0.507 -0.016 0.507 -0.016 0.518 0.493 1.013 -0.031 0.507 -0.016 0.518 0.493 0.507 -0.016 1.013 -0.031 0.507 -0.016 0.507 -0.016 0.518 0.493 0.507 -0.016 0.506 -0.016 1.013 -0.031 1.519 -0.047 0.506 -0.016 0.506 -0.016 0.506 -0.016 0.506 -0.015 0.506 -0.016 1.013 -0.031 0.506 -0.015 0.518 0.493 0.494 -0.524 0.518 0.493 0.506 -0.016 1.013 -0.031 0.506 -0.015 0.506 -0.015 1.519 -0.046 0.506 -0.015 0.506 -0.015 0.506 -0.015 0.506 -0.015 1.519 -0.046 1.013 -0.031 1.013 -0.031 0.506 -0.015 0.506 -0.015 0.506 -0.015 0.506 -0.015 0.518 0.493 0.506 -0.015 0.506 -0.015 0.506 -0.015 1.012 -0.031 0.506 -0.015 0.506 -0.015 0.506 -0.015 0.506 -0.015 1.012 -0.031 1.012 -0.031 0.506 -0.015 0.506 -0.015 0.506 -0.015 0.506 -0.015 0.506 -0.015 0.506 -0.015 0.506 -0.015 1.518 -0.046 0.518 0.493 0.506 -0.015 0.506 -0.015 0.506 -0.015 0.506 -0.015 0.506 -0.015 0.506 -0.015 1.012 -0.031 0.506 -0.015 0.506 -0.015 0.506 -0.015 0.506 -0.015 0.506 -0.015 1.012 -0.031 1.518 -0.046 1.012 -0.031 0.506 -0.015 0.518 0.493 0.506 -0.015 0.506 -0.015 0.506 -0.015 0.506 -0.015 0.506 -0.015 0.506 -0.015 0.506 -0.015 0.506 -0.015 0.506 -0.015 0.506 -0.015 0.506 -0.015 0.506 -0.015 1.518 -0.046 0.506 -0.015 0.506 -0.015 0.506 -0.015 0.506 -0.015 0.506 -0.015 0.506 -0.015 0.506 -0.015 0.506 -0.015 0.506 -0.015 0.518 0.493 1.012 -0.03 0.506 -0.015 0.506 -0.015 1.517 -0.045 0.506 -0.015 0.506 -0.015 0.506 -0.015 1.012 -0.03 0.506 -0.015 0.506 -0.015 0.506 -0.015 0.506 -0.015 1.012 -0.03 0.506 -0.015 0.506 -0.015 0.506 -0.015 0.518 0.493 0.506 -0.015 1.011 -0.03 0.506 -0.015 0.506 -0.015 0.506 -0.015 1.517 -0.045 1.011 -0.03 0.506 -0.015 1.517 -0.045 0.506 -0.015 1.011 -0.03 0.506 -0.015 0.506 -0.015 0.506 -0.015 1.011 -0.03 0.518 0.493 0.506 -0.015 0.506 -0.015 0.506 -0.015 0.506 -0.015 0.506 -0.015 0.506 -0.015 0.506 -0.015 0.506 -0.015 0.506 -0.015 0.506 -0.015 1.011 -0.03 0.506 -0.015 0.506 -0.015 1.517 -0.045 1.011 -0.03 0.506 -0.015 0.506 -0.015 0.506 -0.015 0.506 -0.015 0.518 0.493 0.506 -0.015 1.011 -0.03 1.011 -0.03 0.505 -0.015 0.505 -0.015 0.505 -0.015 0.505 -0.015 0.505 -0.015 1.516 -0.045 1.011 -0.03 0.505 -0.015 0.505 -0.015 1.011 -0.03 0.505 -0.015 0.505 -0.015 1.011 -0.03 0.505 -0.015 0.505 -0.015 0.505 -0.015 0.505 -0.015 1.516 -0.045 0.518 0.493 0.505 -0.015 0.505 -0.015 0.505 -0.015 0.505 -0.015 0.505 -0.015 1.516 -0.044 1.516 -0.044 0.505 -0.015 0.505 -0.015 1.011 -0.03 0.505 -0.015 0.505 -0.015 0.505 -0.015 0.505 -0.015 0.505 -0.015 0.505 -0.015 0.505 -0.015 0.505 -0.015 0.505 -0.015 1.011 -0.03 0.518 0.493 0.505 -0.015 0.505 -0.015 0.505 -0.015 0.505 -0.015 0.505 -0.015 1.011 -0.029 0.505 -0.015 0.505 -0.015 0.505 -0.015 0.505 -0.015 0.505 -0.015 0.505 -0.015 0.505 -0.015 0.505 -0.015 0.505 -0.015 0.505 -0.015 0.505 -0.015 0.505 -0.015 0.505 -0.015 0.505 -0.015 0.505 -0.015 0.505 -0.015 1.01 -0.029 1.01 -0.029 0.518 0.493 0.505 -0.015 0.505 -0.015 0.505 -0.015 1.01 -0.029 1.01 -0.029 1.01 -0.029 0.505 -0.015 0.505 -0.015 0.505 -0.015 1.01 -0.029 0.505 -0.015 0.505 -0.015 0.505 -0.015 0.505 -0.015 0.505 -0.015 0.505 -0.015 1.01 -0.029 0.505 -0.015 0.505 -0.015 0.505 -0.015 0.505 -0.015 0.505 -0.015 0.518 0.493 0.505 -0.015 0.505 -0.015 0.505 -0.015 1.01 -0.029 1.01 -0.029 0.505 -0.015 0.505 -0.015 0.505 -0.015 0.505 -0.015 0.505 -0.015 0.505 -0.015 0.505 -0.015 0.505 -0.015 0.505 -0.014 0.505 -0.015 0.505 -0.014 0.505 -0.015 0.505 -0.014 0.518 0.494 1.515 -0.043 0.505 -0.014 0.505 -0.014 0.505 -0.014 1.01 -0.029 0.505 -0.014 0.505 -0.014 0.505 -0.014 1.01 -0.029 0.505 -0.014 0.505 -0.014 0.505 -0.014 0.505 -0.014 0.505 -0.014 0.505 -0.014 0.505 -0.014 1.01 -0.029 0.505 -0.014 0.505 -0.014 0.505 -0.014 0.518 0.494 1.515 -0.043 0.505 -0.014 0.505 -0.014 0.505 -0.014 0.505 -0.014 0.505 -0.014 0.505 -0.014 1.01 -0.029 0.505 -0.014 1.01 -0.029 1.01 -0.029 0.505 -0.014 0.505 -0.014 1.01 -0.029 0.505 -0.014 0.505 -0.014 0.505 -0.014 0.505 -0.014 0.505 -0.014 0.518 0.494 0.505 -0.014 0.505 -0.014 0.505 -0.014 0.505 -0.014 0.505 -0.014 0.505 -0.014 0.505 -0.014 0.505 -0.014 1.01 -0.029 0.505 -0.014 0.505 -0.014 0.505 -0.014 0.505 -0.014 0.505 -0.014 0.505 -0.014 0.505 -0.014 0.505 -0.014 0.505 -0.014 0.505 -0.014 1.01 -0.028 0.505 -0.014 0.505 -0.014 0.505 -0.014 1.01 -0.028 1.01 -0.028 0.505 -0.014 0.505 -0.014 0.505 -0.014 0.505 -0.014 1.01 -0.028 1.01 -0.028 0.505 -0.014 0.518 0.494 0.492 -0.522 0.518 0.494 0.505 -0.014 1.01 -0.028 1.01 -0.028 0.505 -0.014 0.505 -0.014 0.505 -0.014 0.505 -0.014 0.505 -0.014 1.01 -0.028 0.505 -0.014 0.505 -0.014 1.01 -0.028 0.505 -0.014 1.514 -0.042 1.01 -0.028 0.505 -0.014 0.505 -0.014 0.505 -0.014 0.505 -0.014 0.505 -0.014 1.01 -0.028 0.518 0.494 0.505 -0.014 0.505 -0.014 0.505 -0.014 0.505 -0.014 0.505 -0.014 1.514 -0.042 0.505 -0.014 1.01 -0.028 0.505 -0.014 0.505 -0.014 0.505 -0.014 1.01 -0.028 0.505 -0.014 0.505 -0.014 0.505 -0.014 0.505 -0.014 0.505 -0.014 1.514 -0.042 0.518 0.494 0.491 -0.522 0.505 -0.014 0.505 -0.014 0.505 -0.014 0.518 0.494 1.01 -0.028 0.505 -0.014 0.505 -0.014 0.505 -0.014 0.505 -0.014 0.505 -0.014 0.505 -0.014 0.505 -0.014 0.505 -0.014 1.01 -0.028 0.505 -0.014 0.505 -0.014 0.505 -0.014 0.505 -0.014 0.505 -0.014 1.514 -0.042 0.505 -0.014 0.505 -0.014 0.505 -0.014 0.518 0.494 0.491 -0.522 0.505 -0.014 0.518 0.494 0.505 -0.014 0.505 -0.014 0.505 -0.014 0.505 -0.014 0.505 -0.014 0.505 -0.014 0.505 -0.014 0.505 -0.014 0.505 -0.014 0.505 -0.014 0.505 -0.014 0.505 -0.014 0.505 -0.014 0.505 -0.014 0.505 -0.014 0.505 -0.014 0.505 -0.014 0.505 -0.014 0.505 -0.014 0.505 -0.014 0.505 -0.014 0.505 -0.014 1.01 -0.028 1.514 -0.041 1.01 -0.028 0.505 -0.014 0.505 -0.014 0.519 0.494 0.505 -0.014 2.019 -0.055 0.505 -0.014 0.505 -0.014 0.505 -0.014 0.505 -0.014 0.505 -0.014 0.505 -0.014 0.505 -0.014 0.505 -0.014 0.505 -0.014 0.505 -0.014 0.505 -0.014 0.505 -0.014 0.505 -0.014 0.505 -0.014 0.519 0.494 0.491 -0.522 0.519 0.494 0.505 -0.014 0.505 -0.014 3.029 -0.082 0.505 -0.014 0.505 -0.014 0.505 -0.014 0.505 -0.014 1.514 -0.041 0.505 -0.014 0.505 -0.014 0.505 -0.014 0.505 -0.014 0.505 -0.014 1.01 -0.027 0.519 0.494 1.01 -0.027 0.505 -0.014 0.505 -0.014 1.01 -0.027 0.505 -0.014 1.01 -0.027 0.505 -0.014 1.01 -0.027 1.01 -0.027 0.505 -0.014 0.505 -0.014 0.505 -0.013 1.514 -0.041 0.505 -0.013 0.505 -0.013 0.505 -0.014 1.01 -0.027 0.505 -0.013 0.505 -0.013 1.01 -0.027 0.505 -0.013 0.505 -0.013 0.505 -0.013 0.505 -0.013 0.519 0.495 0.505 -0.013 0.505 -0.013 0.505 -0.013 0.505 -0.013 0.505 -0.013 0.505 -0.013 0.505 -0.013 0.505 -0.013 0.505 -0.013 0.505 -0.013 0.505 -0.013 0.505 -0.013 0.505 -0.013 1.514 -0.04 1.01 -0.027 0.505 -0.013 0.505 -0.013 0.505 -0.013 0.505 -0.013 0.505 -0.013 1.515 -0.04 0.505 -0.013 0.505 -0.013 0.505 -0.013 0.519 0.495 0.505 -0.013 2.019 -0.053 0.505 -0.013 0.505 -0.013 0.505 -0.013 0.505 -0.013 0.505 -0.013 0.505 -0.013 0.505 -0.013 0.505 -0.013 1.01 -0.027 0.505 -0.013 0.505 -0.013 0.505 -0.013 0.505 -0.013 1.01 -0.027 0.505 -0.013 0.505 -0.013 0.505 -0.013 1.01 -0.026 0.505 -0.013 0.505 -0.013 0.519 0.495 0.491 -0.521 0.519 0.495 0.505 -0.013 0.505 -0.013 0.505 -0.013 0.505 -0.013 0.505 -0.013 0.505 -0.013 0.505 -0.013 0.505 -0.013 0.505 -0.013 0.505 -0.013 0.505 -0.013 0.505 -0.013 0.505 -0.013 1.01 -0.026 0.505 -0.013 0.505 -0.013 0.505 -0.013 0.505 -0.013 0.505 -0.013 1.01 -0.026 0.519 0.495 0.505 -0.013 0.505 -0.013 0.505 -0.013 0.505 -0.013 0.505 -0.013 1.01 -0.026 1.01 -0.026 0.505 -0.013 0.505 -0.013 0.505 -0.013 0.505 -0.013 0.505 -0.013 0.505 -0.013 0.505 -0.013 0.505 -0.013 0.505 -0.013 0.505 -0.013 0.505 -0.013 0.52 0.495 0.505 -0.013 2.02 -0.052 0.505 -0.013 0.49 -0.521 0.505 -0.013 0.52 0.495 1.01 -0.026 1.515 -0.039 0.505 -0.013 0.505 -0.013 0.505 -0.013 0.505 -0.013 0.505 -0.013 0.505 -0.013 0.505 -0.013 0.505 -0.013 0.505 -0.013 0.505 -0.013 0.505 -0.013 0.505 -0.013 0.505 -0.013 1.01 -0.026 1.01 -0.026 0.505 -0.013 0.49 -0.521 0.505 -0.013 0.505 -0.013 0.49 -0.521 0.505 -0.013 0.49 -0.521 0.505 -0.013 0.49 -0.521 0.49 -0.521 0.981 -1.042 0.49 -0.521 0.49 -0.521 0.49 -0.521 0.49 -0.521 0.49 -0.521 0.49 -0.521 0.505 -0.013 0.49 -0.521 0.505 -0.013 0.49 -0.521 0.505 -0.013 0.505 -0.013 0.49 -0.521 2.02 -0.052 0.505 -0.013 0.505 -0.013 0.505 -0.013 0.52 0.495 0.505 -0.013 0.505 -0.013 0.52 0.495 0.505 -0.013 0.52 0.495 0.52 0.495 0.505 -0.013 1.04 0.99 0.52 0.495 0.015 0.508 0.52 0.495 0.015 0.508 0.52 0.495 0.52 0.495 0.015 0.508 0.52 0.495 0.52 0.495 0.52 0.495 0.52 0.495 0.52 0.495 0.505 -0.013 0.52 0.495 0.52 0.495 0.505 -0.013 0.505 -0.013 0.52 0.495 0.505 -0.013 1.011 -0.026 0.52 0.495 0.505 -0.013 0.505 -0.013 1.011 -0.026 0.505 -0.013 0.505 -0.013 0.52 0.495 0.505 -0.013 0.505 -0.013 0.505 -0.013 0.505 -0.013 0.505 -0.013 0.52 0.495 0.505 -0.013 0.505 -0.013 0.505 -0.013 1.011 -0.025 0.52 0.496 0.505 -0.013 1.011 -0.025 0.505 -0.013 0.505 -0.013 0.52 0.496 0.505 -0.013 1.011 -0.025 0.505 -0.013 0.505 -0.013 0.52 0.496 0.505 -0.013 0.505 -0.013 1.011 -0.025 0.505 -0.013 0.52 0.496 1.516 -0.038 1.011 -0.025 0.521 0.496 0.505 -0.013 1.516 -0.038 0.505 -0.013 0.521 0.496 0.505 -0.013 0.506 -0.013 0.505 -0.013 0.506 -0.013 0.506 -0.013 0.505 -0.013 0.521 0.496 0.506 -0.013 0.506 -0.013 0.506 -0.013 0.506 -0.013 0.506 -0.013 0.521 0.496 0.506 -0.013 1.517 -0.038 0.521 0.496 0.506 -0.013 0.506 -0.013 1.011 -0.025 0.506 -0.013 0.521 0.496 1.011 -0.025 0.506 -0.012 0.506 -0.013 0.521 0.496 0.506 -0.013 1.011 -0.025 0.506 -0.012 0.506 -0.012 0.506 -0.012 0.521 0.496 0.506 -0.012 0.506 -0.012 0.506 -0.012 0.506 -0.012 0.521 0.496 0.506 -0.012 1.011 -0.025 0.521 0.496 1.011 -0.025 0.506 -0.012 1.011 -0.025 0.521 0.496 0.506 -0.012 0.506 -0.012 0.506 -0.012 0.506 -0.012 0.506 -0.012 0.506 -0.012 0.521 0.496 0.506 -0.012 0.506 -0.012 0.506 -0.012 0.521 0.496 0.506 -0.012 0.506 -0.012 0.506 -0.012 0.506 -0.012 0.521 0.496 0.506 -0.012 1.012 -0.025 0.506 -0.012 0.521 0.496 0.506 -0.012 0.506 -0.012 0.521 0.496 0.506 -0.012 1.012 -0.025 0.521 0.496 0.506 -0.012 0.506 -0.012 0.506 -0.012 0.521 0.496 1.012 -0.025 0.506 -0.012 0.506 -0.012 0.506 -0.012 0.506 -0.012 0.506 -0.012 0.521 0.496 0.506 -0.012 0.506 -0.012 0.506 -0.012 0.521 0.496 0.506 -0.012 0.506 -0.012 1.518 -0.037 0.522 0.496 0.506 -0.012 0.506 -0.012 0.506 -0.012 0.506 -0.012 0.522 0.496 0.506 -0.012 0.506 -0.012 0.506 -0.012 0.522 0.496 0.506 -0.012 0.506 -0.012 0.506 -0.012 0.506 -0.012 0.506 -0.012 0.522 0.496 1.518 -0.037 0.506 -0.012 0.522 0.496 0.506 -0.012 0.506 -0.012 0.506 -0.012 0.522 0.496 0.506 -0.012 0.506 -0.012 0.506 -0.012 0.506 -0.012 0.522 0.496 0.506 -0.012 0.506 -0.012 0.506 -0.012 0.506 -0.012 0.522 0.497 0.506 -0.012 0.506 -0.012 0.506 -0.012 0.522 0.497 0.506 -0.012 0.506 -0.012 1.013 -0.024 0.522 0.497 0.506 -0.012 0.506 -0.012 1.013 -0.024 0.522 0.497 2.025 -0.048 0.522 0.497 0.506 -0.012 1.013 -0.024 0.506 -0.012 0.506 -0.012 0.522 0.497 1.013 -0.024 0.506 -0.012 0.506 -0.012 0.522 0.497 1.013 -0.024 0.506 -0.012 0.506 -0.012 1.013 -0.024 0.522 0.497 0.506 -0.012 1.013 -0.024 0.506 -0.012 1.013 -0.024 0.522 0.497 0.506 -0.012 1.013 -0.024 0.507 -0.012 0.507 -0.012 1.013 -0.024 0.522 0.497 0.507 -0.012 0.507 -0.012 1.013 -0.024 0.507 -0.012 0.507 -0.012 0.507 -0.012 0.507 -0.012 0.522 0.497 0.507 -0.012 0.507 -0.012 0.507 -0.012 0.507 -0.012 0.507 -0.012 0.507 -0.012 2.027 -0.048 0.523 0.497 1.013 -0.024 1.013 -0.024 0.507 -0.012 0.507 -0.012 0.507 -0.012 0.507 -0.012 0.507 -0.012 0.507 -0.012 0.507 -0.012 0.507 -0.012 0.507 -0.012 0.507 -0.012 0.507 -0.012 1.52 -0.036 0.523 0.497 0.507 -0.012 0.507 -0.012 0.507 -0.012 0.507 -0.012 0.507 -0.012 0.507 -0.012 0.507 -0.012 0.507 -0.012 0.507 -0.012 0.507 -0.012 0.507 -0.012 0.507 -0.012 0.507 -0.012 0.507 -0.012 2.534 -0.059 0.507 -0.012 0.507 -0.012 0.507 -0.012 0.507 -0.012 2.535 -0.059 1.014 -0.024 0.507 -0.012 0.491 -0.521 0.507 -0.012 0.507 -0.012 1.014 -0.024 0.507 -0.012 0.507 -0.012 1.014 -0.024 0.507 -0.012 0.507 -0.012 0.507 -0.012 0.507 -0.012 0.507 -0.012 0.507 -0.012 0.507 -0.012 0.491 -0.521 0.507 -0.012 1.014 -0.023 0.507 -0.012 0.507 -0.012 1.014 -0.023 0.507 -0.012 1.014 -0.023 0.491 -0.521 0.507 -0.012 0.507 -0.012 0.507 -0.012 0.507 -0.012 1.014 -0.023 0.507 -0.012 0.507 -0.012 1.014 -0.023 0.491 -0.521 0.507 -0.012 0.507 -0.012 1.014 -0.023 0.507 -0.012 0.507 -0.012 0.507 -0.012 0.507 -0.012 0.507 -0.012 0.491 -0.521 1.522 -0.035 0.507 -0.012 0.507 -0.012 1.015 -0.023 0.507 -0.012 0.491 -0.521 0.507 -0.012 1.015 -0.023 0.507 -0.012 0.507 -0.012 0.507 -0.012 0.507 -0.012 0.507 -0.012 0.491 -0.521 0.507 -0.012 0.507 -0.012 1.015 -0.023 0.507 -0.012 0.507 -0.012 0.507 -0.012 0.508 -0.012 0.491 -0.521 0.507 -0.012 0.508 -0.012 0.507 -0.012 0.508 -0.012 0.508 -0.012 1.015 -0.023 0.508 -0.012 0.508 -0.012 0.491 -0.521 0.508 -0.012 0.508 -0.012 0.508 -0.012 0.508 -0.012 0.508 -0.012 0.508 -0.012 0.508 -0.012 0.508 -0.012 0.508 -0.012 0.491 -0.521 0.508 -0.012 0.508 -0.012 0.508 -0.012 0.508 -0.012 0.508 -0.012 0.508 -0.012 0.508 -0.012 0.508 -0.012 1.015 -0.023 0.508 -0.011 0.491 -0.521 0.508 -0.012 0.508 -0.012 0.508 -0.011 0.508 -0.012 1.015 -0.023 0.508 -0.011 0.491 -0.521 1.016 -0.023 0.508 -0.011 0.508 -0.011 1.016 -0.023 0.508 -0.011 0.508 -0.011 0.508 -0.011 0.491 -0.52 0.508 -0.011 0.508 -0.011 1.524 -0.034 0.508 -0.011 0.508 -0.011 0.508 -0.011 0.491 -0.52 0.508 -0.011 0.508 -0.011 0.508 -0.011 0.508 -0.011 0.508 -0.011 0.508 -0.011 1.016 -0.023 0.491 -0.52 0.508 -0.011 1.016 -0.023 0.508 -0.011 0.508 -0.011 1.524 -0.034 0.508 -0.011 0.492 -0.52 1.016 -0.023 0.508 -0.011 1.016 -0.023 0.508 -0.011 0.508 -0.011 0.508 -0.011 0.508 -0.011 0.492 -0.52 0.508 -0.011 0.508 -0.011 1.016 -0.023 0.508 -0.011 1.524 -0.034 0.508 -0.011 0.508 -0.011 1.049 0.995 1.05 0.995 0.525 0.498 0.525 0.498 0.017 0.509 0.525 0.498 0.017 0.509 -0.492 0.52 0.525 0.498 0.033 1.018 0.05 1.528 0.017 0.509 0.017 0.509 0.017 0.509 0.017 0.509 0.017 0.509 0.017 0.509 0.017 0.509 0.017 0.509 0.017 0.509 0.017 0.509 0.017 0.509 0.033 1.019 0.033 1.019 0.017 0.509 0.05 1.528 0.017 0.509 0.017 0.509 0.017 0.509 0.017 0.509 0.033 1.019 0.033 1.019 0.017 0.509 0.017 0.509 0.017 0.51 0.525 0.498 0.017 0.51 0.017 0.51 0.017 0.51 0.017 0.51 0.033 1.019 0.017 0.51 0.033 1.019 0.017 0.51 0.017 0.51 0.017 0.51 0.017 0.51 0.017 0.51 0.017 0.51 0.017 0.51 0.017 0.51 0.017 0.51 0.017 0.51 0.017 0.51 0.017 0.51 0.017 0.51 0.017 0.51 0.017 0.51 0.017 0.51 0.067 2.039 0.017 0.51 0.017 0.51 0.525 0.499 0.017 0.51 0.017 0.51 0.017 0.51 0.017 0.51 0.017 0.51 0.034 1.02 0.017 0.51 0.017 0.51 0.034 1.02 0.017 0.51 0.017 0.51 0.017 0.51 0.034 1.02 0.017 0.51 0.017 0.51 0.017 0.51 0.017 0.51 0.017 0.51 0.017 0.51 0.017 0.51 0.017 0.51 0.034 1.02 0.017 0.51 0.05 1.53 0.017 0.51 0.017 0.51 0.017 0.51 0.017 0.51 0.034 1.02 0.017 0.51 0.017 0.51 0.017 0.51 0.017 0.51 0.017 0.51 0.017 0.51 0.034 1.02 0.034 1.021 0.017 0.51 0.05 1.531 0.017 0.51 0.017 0.51 0.017 0.51 -0.492 0.521 0.017 0.51 0.525 0.499 0.017 0.51 0.017 0.51 0.017 0.51 0.017 0.51 -0.492 0.522 0.034 1.021 0.017 0.51 0.051 1.531 0.017 0.51 0.017 0.51 0.017 0.51 0.017 0.51 0.034 1.021 0.017 0.511 0.017 0.511 0.017 0.511 0.017 0.511 0.017 0.511 0.017 0.511 0.017 0.511 0.017 0.511 0.017 0.511 0.017 0.511 0.017 0.511 0.017 0.511 0.017 0.511 0.034 1.021 0.017 0.511 0.034 1.021 0.017 0.511 0.034 1.021 0.017 0.511 0.017 0.511 0.017 0.511 0.017 0.511 0.017 0.511 0.017 0.511 0.017 0.511 0.017 0.511 0.017 0.511 0.017 0.511 0.017 0.511 0.017 0.511 0.017 0.511 0.017 0.511 0.017 0.511 0.034 1.022 0.017 0.511 0.034 1.022 0.034 1.022 0.017 0.511 0.017 0.511 0.017 0.511 0.017 0.511 0.017 0.511 0.017 0.511 0.017 0.511 0.017 0.511 0.017 0.511 0.017 0.511 0.017 0.511 0.017 0.511 0.017 0.511 0.017 0.511 0.017 0.511 0.017 0.511 0.017 0.511 -0.492 0.522 0.017 0.511 0.034 1.022 0.034 1.022 0.017 0.511 0.034 1.022 0.017 0.511 0.017 0.511 0.017 0.511 0.017 0.511 0.017 0.511 0.017 0.511 0.034 1.023 0.017 0.511 0.017 0.511 0.034 1.023 -0.492 0.522 0.526 0.5 -0.492 0.522 0.017 0.511 0.017 0.511 0.017 0.511 0.017 0.511 0.017 0.511 0.017 0.511 0.034 1.023 0.034 1.023 0.017 0.511 0.017 0.511 -0.492 0.522 0.017 0.511 0.526 0.5 0.017 0.511 0.017 0.511 -0.492 0.523 0.017 0.512 0.017 0.512 0.034 1.023 0.017 0.512 0.017 0.512 0.017 0.512 0.017 0.512 0.017 0.512 0.017 0.512 0.017 0.512 0.017 0.512 0.017 0.512 0.017 0.512 -0.492 0.523 0.017 0.512 0.017 0.512 0.034 1.023 0.017 0.512 0.034 1.023 0.017 0.512 0.017 0.512 0.034 1.023 0.034 1.024 0.017 0.512 0.017 0.512 0.017 0.512 0.017 0.512 0.017 0.512 -0.492 0.523 0.017 0.512 0.034 1.024 0.034 1.024 0.017 0.512 0.017 0.512 0.017 0.512 0.034 1.024 0.017 0.512 0.017 0.512 0.034 1.024 0.017 0.512 0.017 0.512 0.017 0.512 0.017 0.512 0.017 0.512 0.017 0.512 0.017 0.512 0.017 0.512 -0.492 0.523 -0.492 0.523 -0.984 1.046 -0.492 0.523 -0.509 0.011 -0.492 0.523 -0.492 0.523 -0.492 0.523 -0.509 0.011 -0.509 0.011 -1.018 0.022 -0.526 -0.501 -0.509 0.011 -1.527 0.033 -0.526 -0.501 -0.509 0.011 -1.527 0.033 -0.509 0.011 -0.526 -0.501 -0.509 0.011 -0.526 -0.501 -0.509 0.011 -0.509 0.011 -0.526 -0.501 -0.509 0.011 -0.509 0.011 -0.509 0.011 -0.492 0.523 -0.509 0.011 -0.509 0.011 -0.509 0.011 -0.509 0.011 -0.509 0.011 -0.509 0.011 -0.509 0.011 -0.526 -0.501 -0.509 0.011 -0.509 0.011 -0.509 0.011 -0.509 0.011 -1.526 0.033 -0.526 -0.501 -0.509 0.011 -0.509 0.011 -0.509 0.011 -0.509 0.011 -0.509 0.011 -0.509 0.011 -0.526 -0.501 -0.509 0.011 -0.509 0.011 -0.509 0.011 -0.509 0.011 -1.017 0.022 -0.509 0.011 -0.526 -0.501 -0.509 0.011 -0.509 0.011 -0.509 0.011 -0.509 0.011 -0.509 0.011 -0.509 0.011 -0.509 0.011 -0.525 -0.501 -1.017 0.022 -1.017 0.022 -1.017 0.022 -0.525 -0.501 -0.509 0.011 -0.509 0.011 -0.509 0.011 -0.509 0.011 -0.509 0.011 -0.509 0.011 -0.509 0.011 -0.525 -0.501 -0.509 0.011 -1.017 0.022 -1.017 0.022 -0.525 -0.501 -0.508 0.011 -0.509 0.011 -1.525 0.034 -0.508 0.011 -0.508 0.011 -0.508 0.011 -0.525 -0.501 -0.508 0.011 -0.508 0.011 -1.525 0.034 -0.525 -0.501 -0.508 0.011 -1.525 0.034 -1.017 0.023 -0.525 -0.501 -0.508 0.011 -0.508 0.011 -0.508 0.011 -1.525 0.034 -0.508 0.011 -0.508 0.011 -1.017 0.023 -0.525 -0.501 -1.017 0.023 -0.508 0.011 -0.508 0.011 -0.508 0.011 -0.508 0.011 -1.016 0.023 -0.508 0.011 -0.508 0.011 -0.525 -0.5 -0.508 0.011 -0.508 0.011 -0.508 0.011 -1.016 0.023 -1.016 0.023 -1.016 0.023 -1.016 0.023 -0.508 0.011 -0.508 0.011 -0.508 0.011 -0.508 0.011 -0.508 0.011 -2.033 0.046 -0.508 0.011 -2.032 0.046 -0.508 0.011 -0.508 0.011 -1.016 0.023 -0.508 0.011 -0.508 0.011 -1.016 0.023 -0.508 0.012 -0.508 0.011 -0.508 0.011 -1.016 0.023 -0.508 0.012 -0.508 0.012 -0.508 0.012 -0.508 0.012 -0.508 0.012 -0.492 0.523 -0.524 -0.5 -0.508 0.012 -0.492 0.523 -0.508 0.012 -0.508 0.012 -0.508 0.012 -0.508 0.012 -0.508 0.012 -0.508 0.012 -0.508 0.012 -0.508 0.012 -0.508 0.012 -0.508 0.012 -0.508 0.012 -0.492 0.523 -0.508 0.012 -0.508 0.012 -0.508 0.012 -1.016 0.023 -0.508 0.012 -0.508 0.012 -1.016 0.023 -0.491 0.523 -0.508 0.012 -0.508 0.012 -0.508 0.012 -0.508 0.012 -0.508 0.012 -0.508 0.012 -0.491 0.524 -0.508 0.012 -0.508 0.012 -0.508 0.012 -1.016 0.023 -0.508 0.012 -0.491 0.524 -0.508 0.012 -0.508 0.012 -0.508 0.012 -1.016 0.023 -0.508 0.012 -0.508 0.012 -0.508 0.012 -0.508 0.012 -0.491 0.524 -1.015 0.023 -0.508 0.012 -0.508 0.012 -1.015 0.023 -0.508 0.012 -0.491 0.524 -0.508 0.012 -0.508 0.012 -1.015 0.023 -0.508 0.012 -0.508 0.012 -0.508 0.012 -0.491 0.524 -1.523 0.035 -1.523 0.035 -0.491 0.524 -0.508 0.012 -0.508 0.012 -0.508 0.012 -0.508 0.012 -0.508 0.012 -0.508 0.012 -0.508 0.012 -0.491 0.524 -2.03 0.047 -0.508 0.012 -0.491 0.524 -1.523 0.035 -0.491 0.524 -0.508 0.012 -0.491 0.524 -0.508 0.012 -0.491 0.524 -0.491 0.524 -0.491 0.524 -0.491 0.524 -0.491 0.524 -0.491 0.524 0.016 0.512 -0.491 0.524 0.016 0.512 -0.491 0.524 -0.491 0.524 -0.491 0.524 -0.983 1.048 -0.508 0.012 -0.491 0.524 -0.491 0.524 -0.508 0.012 -0.508 0.012 -0.491 0.524 -0.508 0.012 -0.508 0.012 -0.507 0.012 -1.015 0.024 -1.522 0.036 -0.508 0.012 -0.507 0.012 -0.523 -0.5 -0.507 0.012 -0.507 0.012 -0.523 -0.5 -0.507 0.012 -0.523 -0.5 -0.523 -0.5 -0.523 -0.5 -0.523 -0.5 -0.523 -0.5 -0.523 -0.5 -0.523 -0.5 -0.523 -0.5 -0.523 -0.5 -0.523 -0.5 -0.507 0.012 -0.523 -0.5 -0.523 -0.5 -0.507 0.012 -0.507 0.012 -0.523 -0.5 -0.507 0.012 -0.507 0.012 -0.507 0.012 -0.523 -0.5 -0.507 0.012 -0.507 0.012 -0.507 0.012 -1.522 0.036 -0.491 0.524 -0.507 0.012 -0.507 0.012 -0.507 0.012 -0.507 0.012 -0.507 0.012 -0.507 0.012 -0.507 0.012 -0.507 0.012 -1.014 0.024 -0.507 0.012 -0.507 0.012 -0.507 0.012 -0.507 0.012 -0.507 0.012 -1.522 0.036 -1.522 0.036 -0.507 0.012 -0.507 0.012 -0.507 0.012 -0.491 0.524 -0.507 0.012 -0.507 0.012 -0.507 0.012 -0.507 0.012 -0.507 0.012 -0.507 0.012 -0.523 -0.5 -0.507 0.012 -0.507 0.012 -0.523 -0.5 -0.523 -0.5 -0.507 0.012 -0.491 0.524 -0.523 -0.5 -0.491 0.524 -0.491 0.524 -0.491 0.524 -0.507 0.012 -0.507 0.012 -0.507 0.012 -0.491 0.524 -0.507 0.012 -1.014 0.024 -0.507 0.012 -1.014 0.024 -1.521 0.037 -0.507 0.012 -0.507 0.012 -0.507 0.012 -0.507 0.012 -0.507 0.012 -0.507 0.012 -0.507 0.012 -0.507 0.012 -0.507 0.012 -0.491 0.524 -0.507 0.012 -0.507 0.012 -0.507 0.012 -1.014 0.025 -0.507 0.012 -0.491 0.524 -0.507 0.012 -0.507 0.012 -0.491 0.524 -0.507 0.012 -0.491 0.524 -0.507 0.012 -0.491 0.524 -0.507 0.012 -0.491 0.524 -0.491 0.524 -0.507 0.012 -0.491 0.524 0.016 0.512 -0.491 0.524 -0.491 0.524 -0.983 1.049 0.016 0.512 -0.492 0.525 -0.492 0.525 -0.492 0.525 -0.491 0.525 -0.492 0.525 -0.492 0.525 -0.507 0.012 -0.492 0.525 -0.507 0.012 -0.492 0.525 -0.507 0.012 -1.014 0.025 -0.492 0.525 -1.014 0.025 -0.507 0.012 -2.028 0.05 -0.507 0.012 -0.507 0.012 -0.507 0.012 -0.507 0.013 -0.507 0.013 -0.507 0.013 -0.507 0.013 -0.507 0.013 -0.507 0.013 -0.507 0.013 -0.507 0.013 -1.014 0.025 -1.014 0.025 -1.014 0.025 -0.492 0.525 -1.014 0.025 -0.507 0.013 -0.507 0.013 -0.507 0.013 -0.507 0.013 -0.507 0.013 -1.014 0.025 -0.507 0.013 -1.014 0.025 -0.492 0.525 -0.507 0.013 -0.507 0.013 -1.014 0.025 -0.522 -0.5 -0.507 0.013 -0.507 0.013 -1.014 0.025 -0.522 -0.5 -0.507 0.013 -0.507 0.013 -0.522 -0.5 -0.507 0.013 -0.522 -0.5 -0.522 -0.5 -0.522 -0.5 -0.522 -0.499 -0.522 -0.499 -0.522 -0.499 -0.522 -0.499 -0.015 -0.512 -0.522 -0.499 -0.522 -0.499 -0.522 -0.499 -0.522 -0.499 -0.522 -0.499 -0.507 0.013 -0.522 -0.499 -0.522 -0.499 -0.507 0.013 -0.522 -0.499 -0.507 0.013 -0.522 -0.499 -0.507 0.013 -0.522 -0.499 -1.52 0.038 -0.522 -0.499 -1.52 0.038 -0.507 0.013 -0.507 0.013 -0.507 0.013 -0.507 0.013 -1.013 0.026 -0.507 0.013 -0.522 -0.499 -0.492 0.525 -0.507 0.013 -0.507 0.013 -0.507 0.013 -0.522 -0.499 -0.507 0.013 -0.492 0.525 -0.507 0.013 -0.522 -0.499 -0.492 0.525 -1.013 0.026 -0.507 0.013 -0.507 0.013 -0.507 0.013 -0.507 0.013 -0.507 0.013 -0.507 0.013 -0.507 0.013 -0.507 0.013 -0.507 0.013 -0.507 0.013 -0.507 0.013 -0.507 0.013 -0.521 -0.499 -0.492 0.525 -0.507 0.013 -0.507 0.013 -1.013 0.026 -1.013 0.026 -1.013 0.026 -0.507 0.013 -0.521 -0.499 -0.507 0.013 -0.492 0.525 -0.521 -0.499 -0.492 0.525 -0.507 0.013 -0.507 0.013 -0.507 0.013 -0.507 0.013 -0.507 0.013 -1.013 0.026 -2.026 0.052 -1.52 0.039 -0.507 0.013 -0.521 -0.499 -0.507 0.013 -0.507 0.013 -0.507 0.013 -0.492 0.525 -0.521 -0.499 -0.506 0.013 -0.492 0.525 -0.507 0.013 -0.521 -0.499 -0.506 0.013 -0.506 0.013 -0.506 0.013 -0.506 0.013 -0.506 0.013 -0.506 0.013 -1.519 0.039 -0.506 0.013 -1.519 0.039 -0.506 0.013 -0.506 0.013 -0.506 0.013 -0.506 0.013 -0.506 0.013 -0.506 0.013 -0.506 0.013 -0.506 0.013 -1.013 0.026 -0.506 0.013 -0.506 0.013 -1.013 0.026 -1.013 0.026 -0.506 0.013 -0.506 0.013 -0.506 0.013 -0.506 0.013 -0.506 0.013 -1.013 0.026 -0.506 0.013 -1.519 0.04 -0.506 0.013 -0.506 0.013 -0.506 0.013 -0.506 0.013 -0.506 0.013 -1.013 0.027 -1.519 0.04 -0.506 0.013 -0.506 0.013 -1.013 0.027 -1.013 0.027 -0.506 0.013 -0.506 0.013 -0.506 0.013 -0.506 0.013 -0.506 0.013 -1.013 0.027 -0.521 -0.499 -0.506 0.013 -1.519 0.04 -1.013 0.027 -0.492 0.525 -0.521 -0.499 -0.492 0.525 -0.521 -0.499 -0.506 0.013 -0.506 0.013 -0.506 0.013 -0.506 0.013 -0.506 0.013 -1.519 0.04 -0.506 0.013 -0.506 0.013 -0.506 0.013 -1.519 0.04 -1.519 0.04 -1.013 0.027 -0.506 0.014 -0.506 0.014 -1.519 0.041 -0.506 0.014 -0.506 0.014 -0.506 0.014 -0.506 0.014 -0.506 0.014 -0.506 0.014 -0.506 0.014 -0.506 0.014 -0.506 0.014 -0.506 0.014 -0.506 0.014 -1.519 0.041 -0.506 0.014 -0.506 0.014 -0.521 -0.498 -0.492 0.526 -0.521 -0.498 -0.506 0.014 -1.013 0.027 -0.492 0.526 -0.506 0.014 -0.52 -0.498 -0.506 0.014 -0.506 0.014 -0.506 0.014 -1.013 0.027 -2.025 0.055 -0.506 0.014 -0.506 0.014 -0.506 0.014 -0.506 0.014 -0.506 0.014 -0.506 0.014 -1.519 0.041 -0.506 0.014 -1.013 0.027 -0.506 0.014 -1.013 0.027 -0.506 0.014 -0.506 0.014 -0.506 0.014 -0.506 0.014 -0.506 0.014 -0.506 0.014 -0.506 0.014 -0.506 0.014 -0.506 0.014 -0.506 0.014 -0.506 0.014 -0.506 0.014 -0.506 0.014 -0.506 0.014 -0.506 0.014 -0.506 0.014 -0.52 -0.498 -0.506 0.014 -0.492 0.526 -0.52 -0.498 -1.013 0.028 -1.013 0.028 -0.506 0.014 -0.506 0.014 -0.506 0.014 -0.506 0.014 -0.506 0.014 -0.506 0.014 -0.506 0.014 -0.506 0.014 -0.506 0.014 -0.506 0.014 -0.506 0.014 -0.506 0.014 -0.506 0.014 -0.506 0.014 -0.506 0.014 -0.506 0.014 -0.506 0.014 -0.506 0.014 -0.506 0.014 -0.506 0.014 -0.506 0.014 -0.506 0.014 -0.52 -0.498 -0.506 0.014 -0.506 0.014 -0.506 0.014 -0.506 0.014 -0.506 0.014 -0.506 0.014 -0.506 0.014 -0.506 0.014 -0.506 0.014 -1.013 0.028 -0.506 0.014 -0.506 0.014 -0.506 0.014 -0.506 0.014 -1.013 0.028 -0.506 0.014 -0.506 0.014 -1.013 0.028 -1.519 0.042 -0.52 -0.498 -0.493 0.526 -1.013 0.028 -0.506 0.014 -0.506 0.014 -0.52 -0.498 -0.506 0.014 -0.506 0.014 -0.506 0.014 -0.506 0.014 -0.506 0.014 -0.506 0.014 -0.506 0.014 -0.506 0.014 -1.013 0.028 -0.506 0.014 -1.013 0.028 -0.506 0.014 -0.506 0.014 -0.506 0.014 -0.506 0.014 -0.506 0.014 -0.506 0.014 -0.506 0.014 -0.506 0.014 -0.506 0.014 -0.506 0.014 -0.506 0.014 -0.506 0.014 -0.506 0.014 -0.506 0.014 -0.506 0.014 -0.506 0.014 -1.013 0.028 -0.506 0.014 -1.013 0.028 -0.52 -0.498 -0.506 0.014 -0.506 0.014 -0.506 0.014 -0.506 0.014 -0.506 0.014 -0.506 0.014 -0.506 0.014 -1.013 0.029 -0.506 0.014 -0.506 0.014 -0.506 0.014 -0.506 0.014 -0.506 0.014 -0.506 0.014 -0.506 0.014 -0.506 0.014 -0.506 0.014 -0.506 0.014 -0.506 0.014 -1.013 0.029 -0.506 0.014 -0.506 0.014 -0.506 0.014 -0.506 0.014 -0.506 0.014 -0.506 0.014 -1.013 0.029 -0.52 -0.498 -1.013 0.029 -0.506 0.014 -0.493 0.526 -0.52 -0.498 -0.506 0.014 -1.519 0.043 -0.506 0.014 -0.506 0.014 -0.506 0.014 -0.506 0.014 -0.506 0.014 -0.506 0.014 -0.506 0.014 -0.506 0.014 -0.506 0.014 -0.506 0.014 -1.013 0.029 -1.013 0.029 -0.506 0.014 -0.506 0.014 -0.506 0.015 -0.506 0.014 -0.506 0.015 -0.52 -0.497 -1.013 0.029 -1.013 0.029 -0.506 0.015 -1.013 0.029 -1.519 0.044 -0.506 0.015 -0.506 0.015 -0.506 0.015 -0.506 0.015 -1.013 0.029 -0.506 0.015 -1.519 0.044 -0.506 0.015 -0.506 0.015 -0.506 0.015 -0.52 -0.497 -0.506 0.015 -0.506 0.015 -0.506 0.015 -1.013 0.029 -1.013 0.029 -0.52 -0.497 -0.52 -0.497 -0.493 0.527 -0.493 0.527 -0.507 0.015 -1.013 0.029 -0.507 0.015 -1.013 0.029 -0.507 0.015 -1.52 0.044 -1.52 0.044 -1.52 0.044 -0.507 0.015 -1.013 0.029 -0.507 0.015 -0.507 0.015 -0.507 0.015 -0.507 0.015 -0.507 0.015 -0.519 -0.497 -1.013 0.03 -1.52 0.044 -0.507 0.015 -0.507 0.015 -1.013 0.03 -1.013 0.03 -0.507 0.015 -0.507 0.015 -0.507 0.015 -0.507 0.015 -0.507 0.015 -1.52 0.045 -0.507 0.015 -0.507 0.015 -0.507 0.015 -0.507 0.015 -0.507 0.015 -1.013 0.03 -0.507 0.015 -1.013 0.03 -1.52 0.045 -0.507 0.015 -0.507 0.015 -0.519 -0.497 -0.507 0.015 -1.013 0.03 -1.52 0.045 -1.013 0.03 -1.013 0.03 -1.52 0.045 -1.013 0.03 -0.507 0.015 -0.507 0.015 -1.52 0.045 -1.013 0.03 -0.507 0.015 -0.507 0.015 -1.013 0.03 -0.507 0.015 -0.507 0.015 -0.507 0.015 -0.519 -0.497 -0.507 0.015 -1.013 0.03 -0.507 0.015 -0.507 0.015 -0.494 0.527 -0.519 -0.497 -0.507 0.015 -1.014 0.03 -0.507 0.015 -0.507 0.015 -0.507 0.015 -0.507 0.015 -1.52 0.045 -0.507 0.015 -0.507 0.015 -0.507 0.015 -0.507 0.015 -0.507 0.015 -1.014 0.03 -0.507 0.015 -0.507 0.015 -0.507 0.015 -0.507 0.015 -0.507 0.015 -0.507 0.015 -0.507 0.015 -0.507 0.015 -0.519 -0.497 -0.507 0.015 -0.507 0.015 -0.507 0.015 -0.507 0.015 -0.507 0.015 -0.507 0.015 -0.507 0.015 -0.507 0.015 -0.507 0.015 -0.507 0.015 -1.014 0.03 -0.507 0.015 -0.507 0.015 -0.507 0.015 -0.507 0.015 -0.507 0.015 -0.507 0.015 -0.507 0.015 -1.014 0.031 -0.507 0.015 -0.507 0.015 -0.507 0.015 -1.014 0.031 -0.507 0.015 -0.507 0.015 -0.507 0.015 -0.507 0.015 -0.507 0.015 -0.519 -0.497 -0.507 0.015 -0.507 0.015 -0.507 0.015 -1.521 0.046 -0.507 0.015 -0.507 0.015 -0.507 0.015 -0.507 0.015 -0.507 0.015 -0.507 0.015 -0.507 0.015 -0.507 0.015 -1.521 0.046 -2.028 0.062 -1.521 0.046 -0.519 -0.497 -1.014 0.031 -0.507 0.015 -0.507 0.015 -1.521 0.046 -0.507 0.015 -1.014 0.031 -0.507 0.015 -0.507 0.015 -1.014 0.031 -0.507 0.015 -1.014 0.031 -0.507 0.016 -0.507 0.016 -0.507 0.016 -0.507 0.016 -0.507 0.016 -1.014 0.031 -0.519 -0.497 -0.507 0.016 -0.507 0.016 -0.507 0.016 -0.507 0.016 -0.507 0.016 -0.507 0.016 -0.507 0.016 -0.507 0.016 -0.507 0.016 -0.507 0.016 -0.507 0.016 -0.507 0.016 -0.507 0.016 -0.507 0.016 -0.507 0.016 -0.507 0.016 -0.507 0.016 -0.507 0.016 -0.507 0.016 -0.507 0.016 -0.507 0.016 -0.507 0.016 -0.507 0.016 -0.519 -0.496 -0.495 0.528 -0.507 0.016 -0.507 0.016 -0.519 -0.496 -1.015 0.031 -0.507 0.016 -0.507 0.016 -0.507 0.016 -0.507 0.016 -0.507 0.016 -0.507 0.016 -0.507 0.016 -0.507 0.016 -0.507 0.016 -0.507 0.016 -0.507 0.016 -0.507 0.016 -0.507 0.016 -0.507 0.016 -0.507 0.016 -0.507 0.016 -0.507 0.016 -0.507 0.016 -0.507 0.016 -0.507 0.016 -1.015 0.032 -0.507 0.016 -0.519 -0.496 -0.507 0.016 -0.507 0.016 -0.496 0.528 -0.507 0.016 -0.519 -0.496 -0.507 0.016 -0.507 0.016 -0.507 0.016 -0.507 0.016 -0.507 0.016 -0.507 0.016 -1.522 0.047 -0.507 0.016 -0.507 0.016 -1.015 0.032 -1.015 0.032 -0.507 0.016 -0.508 0.016 -0.507 0.016 -0.508 0.016 -0.508 0.016 -0.508 0.016 -0.508 0.016 -0.508 0.016 -0.519 -0.496 -0.496 0.528 -0.519 -0.496 -0.508 0.016 -1.015 0.032 -2.03 0.064 -0.508 0.016 -0.508 0.016 -0.508 0.016 -0.508 0.016 -0.508 0.016 -0.508 0.016 -0.508 0.016 -0.508 0.016 -1.015 0.032 -1.015 0.032 -1.015 0.032 -0.508 0.016 -0.508 0.016 -0.519 -0.496 -1.015 0.032 -0.508 0.016 -1.015 0.032 -1.015 0.032 -0.508 0.016 -1.015 0.032 -0.508 0.016 -1.015 0.032 -1.015 0.032 -0.508 0.016 -0.508 0.016 -0.508 0.016 -0.508 0.016 -0.508 0.016 -1.016 0.032 -0.508 0.016 -0.508 0.016 -0.508 0.016 -0.508 0.016 -0.508 0.016 -0.519 -0.496 -1.016 0.032 -0.508 0.016 -0.508 0.016 -0.508 0.016 -0.508 0.016 -0.508 0.016 -0.508 0.016 -0.508 0.016 -0.508 0.016 -0.508 0.016 -0.508 0.016 -0.508 0.016 -0.508 0.016 -0.508 0.016 -1.016 0.032 -0.508 0.016 -0.508 0.016 -0.508 0.016 -1.016 0.032 -0.508 0.016 -0.508 0.016 -0.508 0.016 -1.016 0.032 -0.508 0.016 -0.508 0.016 -0.508 0.016 -0.508 0.016 -0.508 0.016 -0.508 0.016 -0.508 0.016 -0.508 0.016 -1.016 0.032 -0.519 -0.496 -0.508 0.016 -0.508 0.016 -0.508 0.016 -1.524 0.049 -0.508 0.016 -1.524 0.049 -0.508 0.016 -0.519 -0.496 -0.508 0.016 -0.508 0.016 -0.508 0.016 -0.508 0.016 -0.508 0.016 -0.508 0.016 -1.016 0.033 -0.508 0.016 -0.508 0.016 -1.016 0.033 -0.508 0.016 -0.508 0.016 -0.508 0.016 -0.508 0.016 -0.508 0.016 -1.016 0.033 -1.016 0.033 -1.016 0.033 -0.508 0.016 -0.508 0.016 -0.508 0.016 -1.017 0.033 -0.508 0.016 -0.508 0.016 -0.508 0.016 -0.52 -0.496 -0.508 0.016 -0.508 0.016 -2.033 0.066 -2.033 0.066 -0.508 0.016 -0.508 0.016 -1.017 0.033 -0.508 0.016 -0.508 0.016 -1.525 0.049 -0.508 0.016 -0.508 0.016 -0.508 0.016 -0.508 0.016 -0.508 0.016 -0.508 0.016 -0.52 -0.496 -1.017 0.033 -0.497 0.529 -1.017 0.033 -0.52 -0.496 -0.509 0.017 -0.508 0.016 -0.509 0.017 -0.508 0.017 -0.509 0.017 -0.509 0.017 -0.509 0.017 -1.017 0.033 -0.509 0.017 -0.509 0.017 -0.509 0.017 -1.017 0.033 -0.52 -0.496 -0.498 0.529 -0.509 0.017 -0.509 0.017 -0.509 0.017 -0.509 0.017 -1.017 0.033 -0.52 -0.496 -0.498 0.529 -0.52 -0.496 -2.035 0.066 -0.509 0.017 -0.509 0.017 -0.509 0.017 -0.509 0.017 -0.509 0.017 -2.035 0.066 -0.509 0.017 -0.509 0.017 -0.509 0.017 -0.52 -0.496 -0.509 0.017 -2.035 0.067 -0.509 0.017 -0.509 0.017 -0.498 0.529 -0.509 0.017 -0.52 -0.496 -0.509 0.017 -0.509 0.017 -0.509 0.017 -0.509 0.017 -0.509 0.017 -0.509 0.017 -0.509 0.017 -0.509 0.017 -0.509 0.017 -0.509 0.017 -0.509 0.017 -0.509 0.017 -2.036 0.067 -0.509 0.017 -0.52 -0.496 -0.498 0.529 -0.52 -0.496 -0.509 0.017 -0.509 0.017 -0.509 0.017 -0.509 0.017 -0.509 0.017 -0.509 0.017 -2.036 0.067 -0.509 0.017 -1.527 0.05 -1.018 0.034 -1.018 0.034 -1.527 0.05 -0.509 0.017 -2.037 0.067 -0.509 0.017 -0.509 0.017 -0.52 -0.495 -0.498 0.529 -0.52 -0.495 -0.509 0.017 -0.509 0.017 -0.509 0.017 -0.509 0.017 -0.509 0.017 -1.018 0.034 -0.509 0.017 -0.509 0.017 -0.52 -0.495 -0.509 0.017 -0.499 0.529 -0.509 0.017 -0.509 0.017 -0.509 0.017 -0.509 0.017 -0.509 0.017 -0.509 0.017 -0.509 0.017 -0.52 -0.495 -0.499 0.529 -0.509 0.017 -1.019 0.034 -1.019 0.034 -0.52 -0.495 -0.509 0.017 -0.509 0.017 -0.509 0.017 -0.509 0.017 -0.52 -0.495 -0.52 -0.495 -0.509 0.017 -0.52 -0.495 -0.52 -0.495 -0.52 -0.495 -0.509 0.017 -0.499 0.529 -0.509 0.017 -0.499 0.529 -0.499 0.529 -0.499 0.529 -0.499 0.529 -0.509 0.017 -0.51 0.017 -0.509 0.017 -0.51 0.017 -0.51 0.017 -0.51 0.017 -0.52 -0.495 -1.529 0.051 -0.51 0.017 -0.51 0.017 -0.51 0.017 -0.51 0.017 -0.51 0.017 -0.51 0.017 -0.51 0.017 -0.51 0.017 -0.52 -0.495 -1.529 0.051 -0.51 0.017 -0.51 0.017 -0.51 0.017 -0.51 0.017 -0.51 0.017 -0.51 0.017 -0.52 -0.495 -0.51 0.017 -0.51 0.017 -0.51 0.017 -0.51 0.017 -0.51 0.017 -0.51 0.017 -0.51 0.017 -0.51 0.017 -0.52 -0.495 -0.51 0.017 -0.51 0.017 -0.51 0.017 -0.51 0.017 -0.51 0.017 -1.02 0.034 -0.52 -0.495 -0.51 0.017 -0.51 0.017 -0.51 0.017 -0.51 0.017 -1.02 0.034 -0.52 -0.495 -1.02 0.034 -1.53 0.051 -0.52 -0.495 -0.51 0.017 -0.51 0.017 -0.51 0.017 -0.51 0.017 -0.51 0.017 -0.51 0.017 -0.52 -0.495 -0.51 0.017 -0.51 0.017 -0.51 0.017 -1.02 0.034 -0.52 -0.495 -1.02 0.034 -0.51 0.017 -0.51 0.017 -0.52 -0.495 -0.51 0.017 -0.51 0.017 -0.51 0.017 -0.51 0.017 -0.52 -0.495 -0.51 0.017 -0.51 0.017 -0.51 0.017 -0.521 -0.495 -0.51 0.017 -0.51 0.017 -0.51 0.017 -0.521 -0.495 -0.51 0.017 -0.51 0.017 -0.51 0.017 -0.521 -0.495 -0.51 0.017 -0.51 0.017 -0.521 -0.495 -0.51 0.017 -1.02 0.034 -0.521 -0.495 -1.02 0.034 -0.521 -0.495 -0.51 0.017 -0.51 0.017 -0.521 -0.495 -1.021 0.034 -0.51 0.017 -0.521 -0.495 -0.51 0.017 -0.51 0.017 -0.521 -0.495 -0.51 0.017 -0.521 -0.495 -1.021 0.034 -0.521 -0.495 -1.021 0.035 -0.521 -0.495 -0.51 0.017 -0.51 0.017 -0.521 -0.495 -0.51 0.017 -0.51 0.017 -0.521 -0.495 -0.51 0.017 -0.521 -0.495 -0.51 0.017 -0.521 -0.495 -1.021 0.035 -0.521 -0.495 -0.51 0.017 -0.521 -0.495 -0.51 0.017 -0.521 -0.495 -0.51 0.017 -0.521 -0.495 -0.51 0.017 -0.521 -0.495 -0.511 0.017 -0.521 -0.495 -0.51 0.017 -0.521 -0.495 -0.511 0.017 -0.511 0.017 -0.521 -0.495 -0.511 0.017 -0.511 0.017 -0.521 -0.495 -0.511 0.017 -0.521 -0.495 -0.511 0.017 -0.521 -0.495 -0.511 0.017 -0.521 -0.495 -0.511 0.017 -0.511 0.017 -0.521 -0.495 -0.511 0.017 -0.521 -0.495 -0.511 0.017 -0.521 -0.495 -0.511 0.017 -0.511 0.017 -0.521 -0.495 -0.511 0.017 -0.521 -0.495 -1.021 0.035 -0.521 -0.495 -0.511 0.017 -0.511 0.017 -0.521 -0.495 -0.511 0.017 -0.521 -0.495 -1.022 0.035 -0.521 -0.495 -0.511 0.017 -0.511 0.017 -0.521 -0.495 -0.511 0.017 -0.521 -0.495 -0.511 0.017 -0.511 0.017 -0.511 0.017 -0.521 -0.495 -0.511 0.017 -0.521 -0.495 -0.511 0.017 -0.511 0.017 -0.521 -0.495 -0.511 0.017 -0.511 0.017 -0.521 -0.495 -1.022 0.035 -0.521 -0.495 -0.511 0.017 -0.511 0.017 -0.521 -0.495 -0.511 0.017 -0.511 0.017 -0.511 0.017 -0.521 -0.495 -0.511 0.017 -0.511 0.017 -0.511 0.017 -0.521 -0.495 -0.511 0.017 -0.511 0.017 -0.511 0.017 -0.521 -0.495 -0.511 0.017 -0.511 0.017 -0.511 0.017 -0.521 -0.495 -1.022 0.035 -0.511 0.017 -0.511 0.017 -0.521 -0.495 -0.511 0.017 -0.511 0.017 -0.511 0.017 -0.511 0.017 -0.511 0.017 -0.521 -0.495 -0.511 0.017 -0.511 0.017 -0.511 0.017 -0.511 0.017 -0.511 0.017 -1.022 0.035 -0.521 -0.495 -0.511 0.017 -0.511 0.017 -0.511 0.017 -0.511 0.017 -0.511 0.017 -0.511 0.017 -0.511 0.017 -0.511 0.017 -1.023 0.035 -0.521 -0.495 -0.501 0.53 -0.511 0.017 -0.511 0.017 -0.521 -0.495 -0.511 0.017 -0.511 0.017 -2.045 0.07 -1.023 0.035 -0.511 0.017 -0.511 0.017 -0.511 0.017 -0.512 0.017 -0.511 0.017 -0.511 0.017 -3.58 0.122 -0.512 0.017 -0.512 0.018 -0.511 0.017 -0.512 0.018 -0.512 0.017 -0.512 0.018 -1.023 0.035 -3.07 0.105 -0.512 0.018 -0.512 0.018 -0.512 0.018 -0.512 0.018 -1.023 0.035 -0.512 0.018 -0.522 -0.495 -0.502 0.53 -0.512 0.018 -1.023 0.035 -0.512 0.018 -0.522 -0.495 -0.502 0.53 -0.512 0.018 -0.512 0.018 -0.522 -0.495 -0.512 0.018 -0.512 0.018 -1.535 0.053 -0.512 0.018 -0.512 0.018 -0.512 0.018 -0.512 0.018 -1.536 0.053 -0.512 0.018 -0.512 0.018 -0.512 0.018 -0.512 0.018 -0.512 0.018 -0.512 0.018 -0.512 0.018 -0.512 0.018 -0.512 0.018 -1.024 0.035 -0.512 0.018 -1.024 0.035 -0.512 0.018 -1.024 0.035 -0.512 0.018 -1.024 0.035 -0.512 0.018 -0.512 0.018 -0.522 -0.495 -0.522 -0.495 -0.522 -0.495 -0.522 -0.495 -0.522 -0.495 -0.01 -0.512" />
</svg>
