<svg xmlns="http://www.w3.org/2000/svg" xmlns:xlink="http://www.w3.org/1999/xlink">
  <path id="exterior" d="M426.355 -51.812 l-0.247 1.408 -0.123 0.704 -0.123 0.704 -0.123 0.704 -0.123 0.704 -0.123 0.704 -0.414 0.29 -0.414 0.29 -0.123 0.704 -0.414 0.29 -0.414 0.29 -0.414 0.29 -0.414 0.29 -0.414 0.29 -0.414 0.29 -0.414 0.29 -0.414 0.29 -0.414 0.29 -0.829 0.58 -0.705 -0.124 -0.829 0.58 -0.705 -0.124 -0.829 0.58 -0.705 -0.124 -0.414 0.29 -0.705 -0.124 -0.414 0.29 -0.705 -0.124 -0.414 0.29 -0.705 -0.124 -0.705 -0.124 -0.414 0.29 -0.705 -0.124 -0.414 0.29 -1.41 -0.247 -0.705 -0.124 -0.414 0.29 -0.705 -0.124 -0.705 -0.124 -0.705 -0.124 -0.414 0.29 -0.705 -0.124 -0.705 -0.124 -0.705 -0.124 -0.414 0.29 -0.705 -0.124 -0.705 -0.124 -0.705 -0.124 -0.414 0.29 -1.41 -0.247 -0.414 0.29 -0.705 -0.124 -0.414 0.29 -0.705 -0.124 -0.705 -0.124 -0.414 0.29 -0.705 -0.124 -0.414 0.29 -0.705 -0.124 -0.414 0.29 -0.705 -0.124 -0.414 0.29 -0.705 -0.124 -0.414 0.29 -0.414 0.29 -0.705 -0.124 -0.414 0.29 -0.705 -0.124 -0.414 0.29 -0.414 0.29 -0.705 -0.124 -0.414 0.29 -0.414 0.29 -0.705 -0.124 -0.828 0.58 -0.414 0.29 -0.705 -0.124 -0.414 0.29 -0.414 0.29 -0.414 0.29 -0.705 -0.124 -0.414 0.29 -1.242 0.87 -0.705 -0.124 -0.414 0.29 -0.414 0.29 -0.414 0.29 -0.414 0.29 -0.414 0.29 -0.414 0.29 -0.414 0.29 -0.414 0.29 -0.414 0.29 -0.414 0.29 -0.414 0.29 -0.705 -0.124 -0.414 0.29 -0.123 0.704 -0.705 -0.124 -0.828 0.58 -0.123 0.704 -0.414 0.29 -0.828 0.58 -0.414 0.29 -0.414 0.29 -0.828 0.58 -0.414 0.29 -0.414 0.29 -0.414 0.29 -0.123 0.704 -0.828 0.58 -0.414 0.29 -0.414 0.29 -0.123 0.704 -0.828 0.58 -0.414 0.29 -0.414 0.29 -0.414 0.29 -0.123 0.704 -0.414 0.29 -0.414 0.29 -0.123 0.704 -0.828 0.58 -0.123 0.704 -0.414 0.29 -0.414 0.29 -0.123 0.704 -0.828 0.58 -0.123 0.704 -0.414 0.29 -0.123 0.704 -0.414 0.29 -0.123 0.704 -0.414 0.29 -0.123 0.704 -0.414 0.29 -0.123 0.704 -0.414 0.29 -0.123 0.704 -0.414 0.29 -0.123 0.704 -0.123 0.704 -0.414 0.29 -0.123 0.704 -0.123 0.704 -0.414 0.29 -0.123 0.704 -0.414 0.29 -0.123 0.704 -0.123 0.704 -0.414 0.29 -0.123 0.704 -0.414 0.29 -0.123 0.704 -0.414 0.29 -0.369 2.111 -0.123 0.704 -0.123 0.704 0.291 0.414 -0.123 0.704 -0.123 0.704 -0.123 0.704 -0.123 0.704 -0.414 0.29 -0.123 0.704 -0.123 0.704 -0.414 0.29 -0.123 0.704 -0.123 0.704 -0.414 0.29 -0.414 0.29 -0.123 0.704 -0.414 0.29 -0.414 0.29 -0.414 0.29 -0.414 0.29 -0.414 0.29 -1.241 0.87 -0.414 0.29 -0.704 -0.124 -0.414 0.29 -0.414 0.29 -0.704 -0.124 -0.414 0.29 -0.704 -0.124 -0.414 0.29 -0.704 -0.124 -0.704 -0.124 -0.704 -0.124 -0.704 -0.124 -0.704 -0.124 -0.704 -0.124 -0.291 -0.414 -0.704 -0.124 -0.291 -0.414 -0.704 -0.124 -0.291 -0.414 -0.291 -0.414 -0.704 -0.124 -0.581 -0.827 -0.291 -0.414 -0.704 -0.124 -0.291 -0.414 -0.291 -0.414 -0.704 -0.124 -0.581 -0.827 -0.291 -0.414 -0.704 -0.124 -0.291 -0.414 -0.291 -0.414 -0.29 -0.414 -0.704 -0.124 -0.581 -0.827 -0.291 -0.414 -0.704 -0.124 -0.872 -1.241 -0.704 -0.124 -0.29 -0.414 -0.291 -0.414 -0.29 -0.414 -0.704 -0.124 -0.29 -0.414 -0.581 -0.827 -0.704 -0.124 -0.29 -0.414 -0.29 -0.414 -0.29 -0.414 -0.704 -0.124 -0.29 -0.414 -0.29 -0.414 -0.29 -0.414 -0.704 -0.124 -0.581 -0.827 -0.704 -0.124 -0.29 -0.414 -0.704 -0.124 -0.29 -0.414 -0.704 -0.124 -0.704 -0.124 -0.704 -0.124 -0.29 -0.414 -0.704 -0.124 -0.704 -0.124 -0.704 -0.124 -0.413 0.29 -1.408 -0.247 -0.413 0.29 -0.704 -0.124 -0.704 -0.124 -0.413 0.29 -0.704 -0.124 -0.827 0.58 -0.413 0.29 -0.704 -0.124 -0.827 0.58 -0.413 0.29 -0.413 0.29 -0.413 0.29 -0.413 0.29 -0.413 0.29 -0.413 0.29 -0.413 0.29 -0.413 0.29 -0.123 0.703 -0.827 0.58 -0.413 0.29 -0.123 0.703 -0.413 0.29 -0.123 0.703 -0.413 0.29 -0.123 0.703 -0.413 0.29 -0.123 0.703 -0.123 0.703 -0.123 0.703 -0.123 0.703 -0.369 2.11 -0.123 0.703 0.29 0.414 -0.123 0.703 -0.123 0.703 0.29 0.414 0.29 0.414 -0.123 0.703 0.29 0.414 0.29 0.414 -0.123 0.703 0.29 0.414 0.29 0.414 -0.123 0.704 0.581 0.827 0.29 0.414 -0.123 0.703 0.29 0.414 0.29 0.414 -0.123 0.704 0.29 0.414 0.581 0.827 -0.123 0.704 0.29 0.414 0.29 0.414 -0.123 0.704 0.29 0.414 0.29 0.414 0.29 0.414 -0.123 0.704 0.29 0.414 -0.123 0.704 0.29 0.414 -0.123 0.704 -0.246 1.407 -0.123 0.704 -0.123 0.704 -0.123 0.704 -0.413 0.29 -0.123 0.704 -0.413 0.29 -0.123 0.704 -0.827 0.58 -0.413 0.29 -0.413 0.29 -0.123 0.704 -0.413 0.29 -0.704 -0.124 -0.413 0.29 -0.413 0.29 -0.413 0.29 -0.413 0.29 -0.704 -0.124 -0.413 0.29 -0.413 0.29 -0.413 0.29 -0.704 -0.124 -0.413 0.29 -0.413 0.29 -0.413 0.29 -0.704 -0.124 -0.413 0.29 -0.413 0.29 -0.827 0.58 -0.704 -0.124 -0.827 0.58 -0.704 -0.124 -0.413 0.29 -1.24 0.87 -0.704 -0.124 -0.413 0.29 -0.827 0.58 -0.704 -0.124 -0.413 0.29 -0.413 0.29 -0.413 0.29 -0.413 0.29 -0.704 -0.124 -0.413 0.29 -0.413 0.29 -0.827 0.58 -0.704 -0.124 -0.413 0.29 -0.413 0.29 -0.827 0.58 -0.704 -0.124 -0.413 0.29 -0.413 0.29 -0.413 0.29 -0.413 0.29 -0.413 0.29 -0.704 -0.124 -0.413 0.29 -0.413 0.29 -0.413 0.29 -0.413 0.29 -0.704 -0.124 -0.413 0.29 -0.413 0.29 -0.413 0.29 -1.24 0.87 -0.704 -0.124 -0.827 0.58 -0.413 0.29 -0.413 0.29 -0.413 0.29 -0.413 0.29 -0.704 -0.124 -0.827 0.58 -0.827 0.58 -0.827 0.58 -0.704 -0.124 -0.413 0.29 -0.704 -0.124 -0.413 0.29 -0.413 0.29 -0.413 0.29 -0.704 -0.124 -0.413 0.29 -0.413 0.29 -0.413 0.29 -0.413 0.29 -0.413 0.29 -0.413 0.29 -0.413 0.29 -0.413 0.29 -0.413 0.29 -0.413 0.29 -0.413 0.29 -0.413 0.29 -0.413 0.29 -0.413 0.29 -0.704 -0.124 -0.413 0.29 -0.413 0.29 -0.413 0.29 -0.413 0.29 -0.413 0.29 -0.703 -0.124 -0.413 0.29 -0.413 0.29 -0.703 -0.124 -0.413 0.29 -0.703 -0.124 -0.413 0.29 -0.703 -0.124 -0.703 -0.124 -0.703 -0.124 -0.703 -0.124 -0.703 -0.124 -0.703 -0.124 -0.29 -0.414 -0.703 -0.124 -0.703 -0.124 -0.29 -0.414 -0.703 -0.124 -0.703 -0.124 -0.29 -0.414 -0.703 -0.124 -0.703 -0.124 -0.703 -0.124 -0.703 -0.124 -0.703 -0.124 -0.413 0.29 -0.703 -0.124 -0.413 0.29 -0.703 -0.124 -0.413 0.29 -0.827 0.58 -0.703 -0.124 -0.413 0.29 -0.827 0.58 -0.413 0.29 -0.413 0.29 -0.413 0.29 -0.413 0.29 -0.413 0.29 -0.413 0.29 -0.413 0.29 -0.413 0.29 -0.413 0.29 -0.123 0.704 -0.413 0.29 -0.413 0.29 -0.413 0.29 -0.413 0.29 -0.413 0.29 -0.123 0.704 -0.413 0.29 -0.123 0.704 -0.413 0.29 -0.123 0.704 -0.123 0.704 -0.123 0.704 -0.123 0.704 -0.123 0.704 -0.123 0.704 0.29 0.414 -0.123 0.704 -0.123 0.704 0.29 0.414 -0.123 0.704 0.29 0.414 -0.123 0.704 0.29 0.414 -0.123 0.704 0.29 0.414 -0.123 0.704 0.29 0.414 -0.123 0.704 0.29 0.414 -0.123 0.704 0.29 0.414 -0.123 0.704 0.29 0.414 -0.123 0.704 0.29 0.414 0.29 0.414 -0.123 0.704 -0.123 0.704 0.58 0.828 -0.123 0.704 -0.123 0.704 0.29 0.414 -0.123 0.704 -0.123 0.704 0.29 0.414 -0.123 0.704 -0.123 0.704 -0.123 0.704 -0.413 0.29 -0.123 0.704 -0.123 0.704 -0.413 0.29 -0.123 0.704 -0.413 0.29 -0.413 0.29 -0.123 0.704 -0.413 0.29 -0.413 0.29 -0.413 0.29 -0.413 0.29 -0.827 0.58 -0.413 0.29 -0.413 0.29 -0.413 0.29 -0.413 0.29 -0.704 -0.124 -0.827 0.58 -0.704 -0.124 -0.413 0.29 -0.413 0.29 -0.704 -0.124 -0.413 0.29 -0.703 -0.124 -0.413 0.29 -0.703 -0.124 -0.413 0.29 -0.703 -0.124 -0.703 -0.124 -0.413 0.29 -0.703 -0.124 -0.413 0.29 -0.703 -0.124 -0.413 0.29 -0.703 -0.124 -0.413 0.29 -0.703 -0.124 -0.703 -0.124 -0.413 0.29 -0.703 -0.124 -0.413 0.29 -0.703 -0.124 -0.413 0.29 -0.703 -0.124 -0.413 0.29 -0.703 -0.124 -0.413 0.29 -0.703 -0.124 -0.413 0.29 -0.413 0.29 -0.703 -0.124 -0.413 0.29 -0.413 0.29 -0.703 -0.124 -0.413 0.29 -0.413 0.29 -0.413 0.29 -0.413 0.29 -0.413 0.29 -0.123 0.704 -0.413 0.29 -0.413 0.29 -0.413 0.29 -0.413 0.29 -0.123 0.704 -0.413 0.29 -0.123 0.704 -0.413 0.29 -0.413 0.29 -0.123 0.704 -0.413 0.29 -0.123 0.704 -0.413 0.29 -0.123 0.704 -0.413 0.29 -0.123 0.704 -0.413 0.29 -0.123 0.704 -0.123 0.704 -0.413 0.29 -0.123 0.704 -0.413 0.29 -0.123 0.704 -0.413 0.29 -0.123 0.704 -0.123 0.704 -0.413 0.29 -0.123 0.704 -0.413 0.29 -0.123 0.704 -0.413 0.29 -0.123 0.705 -0.413 0.29 -0.123 0.705 -0.413 0.29 -0.123 0.705 -0.413 0.29 -0.123 0.705 -0.413 0.29 -0.413 0.29 -0.123 0.705 -0.414 0.29 -0.413 0.29 -0.413 0.29 -0.413 0.29 -0.413 0.29 -0.123 0.705 -0.413 0.29 -0.704 -0.124 -0.413 0.29 -0.414 0.29 -0.413 0.29 -0.827 0.581 -0.414 0.291 -0.704 -0.124 -0.414 0.29 -0.827 0.581 -0.704 -0.124 -0.414 0.29 -0.827 0.581 -0.704 -0.124 -0.827 0.581 -0.414 0.291 -0.704 -0.124 -0.413 0.291 -0.414 0.291 -0.414 0.291 -0.704 -0.124 -0.414 0.291 -0.414 0.291 -0.704 -0.124 -0.414 0.291 -0.414 0.291 -0.414 0.291 -0.704 -0.124 -0.414 0.291 -0.414 0.291 -0.414 0.291 -0.704 -0.124 -0.414 0.291 -0.414 0.291 -0.704 -0.124 -0.414 0.291 -0.414 0.291 -0.414 0.291 -0.704 -0.124 -0.414 0.291 -0.414 0.291 -0.704 -0.124 -0.827 0.581 -0.704 -0.124 -0.414 0.291 -0.414 0.291 -0.414 0.291 -0.704 -0.124 -0.414 0.291 -0.414 0.291 -0.704 -0.124 -0.827 0.581 -0.704 -0.124 -0.414 0.291 -0.414 0.291 -0.704 -0.124 -0.414 0.291 -0.414 0.291 -0.704 -0.124 -0.414 0.291 -0.414 0.291 -0.704 -0.124 -0.827 0.581 -0.704 -0.124 -0.827 0.581 -0.704 -0.124 -0.414 0.291 -0.414 0.291 -0.704 -0.124 -0.414 0.291 -0.414 0.291 -0.704 -0.124 -0.827 0.581 -0.414 0.291 -0.704 -0.124 -0.414 0.291 -0.414 0.291 -0.827 0.581 -0.414 0.291 -0.704 -0.124 -0.827 0.581 -0.414 0.291 -0.827 0.581 -0.827 0.581 -0.414 0.291 -0.414 0.291 -0.414 0.291 -0.414 0.291 -0.828 0.582 -0.704 -0.123 -0.414 0.291 -0.414 0.291 -0.414 0.291 -0.414 0.291 -0.414 0.291 -0.414 0.291 -0.414 0.291 -0.414 0.291 -0.414 0.291 -0.414 0.291 -0.414 0.291 -0.414 0.291 -0.414 0.291 -0.704 -0.123 -0.414 0.291 -0.414 0.291 -0.414 0.291 -0.414 0.291 -0.414 0.291 -0.414 0.291 -0.704 -0.123 -0.414 0.291 -0.414 0.291 -0.414 0.291 -0.414 0.291 -0.704 -0.123 -0.414 0.291 -0.414 0.291 -0.414 0.291 -0.414 0.291 -0.704 -0.123 -0.414 0.291 -0.414 0.291 -0.414 0.291 -0.704 -0.123 -1.242 0.873 -0.704 -0.123 -0.828 0.582 -0.414 0.291 -0.704 -0.123 -0.414 0.291 -0.828 0.582 -0.704 -0.123 -0.414 0.291 -0.414 0.291 -0.414 0.291 -0.704 -0.123 -0.414 0.291 -0.414 0.291 -0.414 0.291 -0.704 -0.123 -0.414 0.291 -0.828 0.582 -0.704 -0.123 -0.414 0.291 -0.414 0.291 -0.704 -0.123 -0.414 0.291 -0.704 -0.123 -0.704 -0.123 -0.414 0.291 -1.408 -0.247 -0.414 0.291 -0.704 -0.123 -0.414 0.291 -0.414 0.291 -0.704 -0.123 -0.414 0.291 -0.414 0.291 -0.704 -0.123 -0.414 0.291 -0.704 -0.123 -0.704 -0.123 -0.414 0.291 -0.704 -0.123 -0.704 -0.123 -0.414 0.291 -0.704 -0.123 -0.704 -0.123 -0.704 -0.123 -0.414 0.291 -0.704 -0.123 -0.704 -0.123 -0.414 0.291 -0.704 -0.123 -0.704 -0.123 -0.414 0.291 -0.704 -0.123 -0.704 -0.123 -0.704 -0.123 -0.414 0.291 -0.704 -0.123 -0.704 -0.123 -0.704 -0.123 -0.414 0.291 -0.704 -0.123 -0.704 -0.123 -0.414 0.291 -0.704 -0.123 -0.704 -0.123 -0.704 -0.123 -0.414 0.291 -0.704 -0.123 -0.704 -0.123 -0.414 0.291 -0.704 -0.123 -0.704 -0.123 -0.704 -0.123 -0.704 -0.123 -0.414 0.291 -0.704 -0.123 -1.408 -0.246 -0.704 -0.123 -0.414 0.291 -0.704 -0.123 -0.704 -0.123 -1.408 -0.246 -0.414 0.291 -0.704 -0.123 -0.704 -0.123 -0.704 -0.123 -0.704 -0.123 -0.704 -0.123 -0.704 -0.123 -0.704 -0.123 -0.414 0.291 -0.704 -0.123 -0.704 -0.123 -1.408 -0.246 -0.704 -0.123 -1.408 -0.246 -0.704 -0.123 -0.414 0.291 -0.704 -0.123 -0.704 -0.123 -0.704 -0.123 -0.704 -0.123 -0.704 -0.123 -0.704 -0.123 -0.704 -0.123 -0.704 -0.123 -0.704 -0.123 -0.414 0.291 -0.704 -0.123 -0.704 -0.123 -0.704 -0.123 -0.704 -0.123 -0.704 -0.123 -0.704 -0.123 -0.414 0.291 -0.704 -0.123 -0.704 -0.123 -0.704 -0.123 -1.409 -0.246 -0.704 -0.123 -0.704 -0.123 -0.704 -0.123 -0.704 -0.123 -0.704 -0.123 -0.704 -0.123 -0.415 0.291 -0.704 -0.123 -0.704 -0.123 -1.409 -0.246 -0.704 -0.123 -0.704 -0.123 -1.409 -0.246 -0.415 0.291 -1.409 -0.246 -0.704 -0.123 -2.113 -0.369 -1.409 -0.246 -2.818 -0.492 -0.415 0.291 -0.704 -0.123 -1.409 -0.246 -0.705 -0.123 -1.409 -0.246 -0.415 0.291 -0.705 -0.123 -1.409 -0.246 -0.705 -0.123 -0.705 -0.123 -0.705 -0.123 -0.705 -0.123 -0.415 0.291 -0.705 -0.123 -0.705 -0.123 -0.705 -0.123 -0.705 -0.123 -0.705 -0.123 -0.415 0.291 -1.409 -0.246 -2.114 -0.369 -0.415 0.291 -0.705 -0.123 -0.705 -0.123 -0.705 -0.123 -0.705 -0.123 -0.415 0.291 -1.409 -0.246 -0.705 -0.123 -1.41 -0.246 -0.415 0.291 -0.705 -0.123 -0.705 -0.123 -0.705 -0.123 -0.415 0.291 -0.705 -0.123 -0.705 -0.123 -0.705 -0.123 -0.705 -0.123 -0.415 0.291 -0.705 -0.123 -0.705 -0.123 -0.705 -0.123 -0.705 -0.123 -0.415 0.291 -1.41 -0.246 -0.705 -0.123 -0.415 0.291 -1.41 -0.246 -0.705 -0.123 -0.415 0.291 -0.705 -0.123 -0.705 -0.123 -0.705 -0.123 -0.705 -0.123 -0.415 0.291 -0.705 -0.123 -0.705 -0.123 -0.705 -0.123 -0.415 0.291 -0.705 -0.123 -0.705 -0.123 -0.705 -0.123 -0.415 0.292 -0.705 -0.123 -0.705 -0.123 -0.705 -0.123 -0.415 0.292 -1.41 -0.245 -0.415 0.292 -0.705 -0.123 -0.705 -0.123 -0.705 -0.123 -0.415 0.292 -0.705 -0.123 -0.705 -0.123 -0.415 0.291 -0.705 -0.123 -0.705 -0.123 -0.705 -0.123 -0.415 0.292 -0.705 -0.123 -0.705 -0.123 -0.415 0.292 -0.705 -0.123 -0.705 -0.123 -0.415 0.292 -1.411 -0.245 -0.705 -0.123 -0.415 0.292 -0.705 -0.123 -0.705 -0.123 -0.415 0.292 -0.705 -0.123 -0.705 -0.123 -0.705 -0.123 -0.415 0.292 -0.705 -0.123 -0.705 -0.123 -0.415 0.292 -0.705 -0.123 -0.705 -0.123 -0.705 -0.123 -0.415 0.292 -0.705 -0.123 -0.706 -0.123 -0.415 0.292 -0.706 -0.123 -0.706 -0.123 -0.706 -0.123 -0.416 0.292 -1.411 -0.245 -0.415 0.292 -0.706 -0.123 -0.706 -0.123 -0.415 0.292 -0.706 -0.123 -0.706 -0.123 -0.706 -0.123 -0.416 0.292 -0.706 -0.123 -0.706 -0.123 -0.416 0.292 -0.706 -0.123 -0.706 -0.123 -0.416 0.292 -0.706 -0.123 -1.411 -0.245 -0.416 0.292 -1.412 -0.245 -0.416 0.292 -0.706 -0.123 -0.706 -0.123 -0.416 0.292 -0.706 -0.123 -0.706 -0.122 -0.706 -0.123 -0.416 0.292 -0.706 -0.123 -0.416 0.292 -0.706 -0.123 -1.412 -0.245 -0.416 0.292 -0.706 -0.122 -0.706 -0.123 -0.416 0.292 -0.706 -0.122 -0.706 -0.123 -0.416 0.292 -0.706 -0.123 -0.706 -0.123 -0.416 0.292 -0.706 -0.122 -0.416 0.292 -0.706 -0.123 -0.706 -0.122 -0.416 0.292 -0.706 -0.123 -0.706 -0.122 -0.706 -0.122 -0.416 0.292 -0.706 -0.122 -0.706 -0.122 -0.416 0.292 -0.706 -0.122 -0.706 -0.122 -0.416 0.292 -1.412 -0.245 -0.416 0.292 -0.706 -0.122 -0.706 -0.122 -0.706 -0.122 -0.416 0.292 -1.413 -0.245 -1.413 -0.245 -0.416 0.292 -0.706 -0.122 -0.706 -0.122 -0.706 -0.122 -0.706 -0.122 -0.706 -0.122 -0.29 -0.414 -0.706 -0.122 -0.29 -0.414 -1.413 -0.245 -0.706 -0.122 -1.413 -0.245 -0.416 0.292 -0.707 -0.122 -0.707 -0.122 -0.707 -0.122 -0.29 -0.414 -0.707 -0.122 -1.413 -0.245 -0.29 -0.414 -1.413 -0.245 -0.707 -0.122 -0.29 -0.414 -0.707 -0.122 -0.707 -0.122 -0.29 -0.414 -0.707 -0.122 -0.29 -0.414 -0.707 -0.122 -0.707 -0.122 -0.29 -0.414 -0.707 -0.122 -0.29 -0.414 -0.707 -0.122 -0.707 -0.122 -0.29 -0.414 -0.707 -0.122 -0.29 -0.414 -0.707 -0.122 -0.29 -0.414 -0.707 -0.122 -0.29 -0.414 -0.707 -0.122 -0.29 -0.414 -0.707 -0.122 -0.29 -0.414 -0.707 -0.122 -0.29 -0.414 -0.707 -0.122 -0.707 -0.122 -0.29 -0.414 -0.707 -0.122 -0.29 -0.414 -0.707 -0.122 -0.29 -0.414 -0.707 -0.122 -0.29 -0.414 -0.707 -0.122 -0.29 -0.414 -0.707 -0.122 -0.707 -0.122 -0.29 -0.414 -0.707 -0.122 -0.29 -0.414 -0.707 -0.122 -0.707 -0.122 -0.29 -0.414 -0.707 -0.122 -0.707 -0.122 -0.291 -0.414 -0.707 -0.122 -0.707 -0.122 -0.707 -0.122 -0.29 -0.414 -0.707 -0.122 -0.707 -0.122 -0.291 -0.414 -1.414 -0.245 -0.707 -0.122 -0.707 -0.122 -0.291 -0.414 -0.707 -0.122 -0.707 -0.122 -0.707 -0.122 -0.707 -0.122 -0.707 -0.122 -1.415 -0.245 -0.707 -0.122 -0.291 -0.414 -0.707 -0.122 -0.707 -0.122 -0.707 -0.122 -0.707 -0.122 -0.707 -0.122 -0.417 0.292 -0.708 -0.122 -0.708 -0.122 -0.708 -0.122 -0.708 -0.122 -0.708 -0.122 -0.708 -0.122 -0.708 -0.122 -0.708 -0.122 -0.417 0.292 -0.708 -0.122 -0.708 -0.122 -0.708 -0.122 -0.708 -0.122 -0.417 0.292 -1.415 -0.245 -1.415 -0.245 -0.708 -0.122 -0.417 0.292 -0.708 -0.122 -1.416 -0.245 -0.417 0.292 -0.708 -0.122 -0.708 -0.122 -0.708 -0.122 -0.417 0.292 -0.708 -0.122 -0.708 -0.122 -0.708 -0.122 -0.417 0.292 -2.124 -0.367 -0.417 0.292 -0.708 -0.122 -1.416 -0.245 -0.708 -0.122 -0.417 0.292 -0.708 -0.122 -0.708 -0.122 -0.417 0.292 -0.708 -0.122 -0.708 -0.122 -1.416 -0.245 -0.417 0.292 -0.708 -0.122 -1.416 -0.245 -0.417 0.292 -0.708 -0.122 -0.708 -0.122 -1.417 -0.245 -0.417 0.292 -0.708 -0.122 -1.417 -0.245 -0.708 -0.122 -0.417 0.292 -0.708 -0.122 -0.708 -0.122 -0.708 -0.122 -0.709 -0.122 -0.708 -0.122 -0.418 0.292 -0.709 -0.122 -0.709 -0.122 -1.417 -0.244 -0.418 0.292 -0.709 -0.122 -0.709 -0.122 -2.126 -0.367 -0.418 0.292 -0.709 -0.122 -0.709 -0.122 -0.709 -0.122 -0.709 -0.122 -0.418 0.292 -0.709 -0.122 -1.418 -0.244 -0.709 -0.122 -0.418 0.292 -0.709 -0.122 -0.709 -0.122 -0.709 -0.122 -0.418 0.292 -0.709 -0.122 -0.709 -0.122 -1.418 -0.244 -0.418 0.292 -0.709 -0.122 -0.709 -0.122 -0.709 -0.122 -0.418 0.292 -1.418 -0.244 -1.418 -0.244 -0.418 0.292 -0.709 -0.122 -1.418 -0.244 -1.418 -0.244 -0.291 -0.415 -0.709 -0.122 -0.709 -0.122 -0.291 -0.415 -0.291 -0.415 -0.291 -0.415 -0.709 -0.122 0.127 -0.707 -0.291 -0.415 -0.291 -0.415 -0.291 -0.414 0.127 -0.707 -0.583 -0.829 0.127 -0.707 0.127 -0.707 -0.291 -0.415 0.127 -0.707 -0.291 -0.414 0.127 -0.707 0.127 -0.707 0.127 -0.707 0.254 -1.413 -0.291 -0.415 0.253 -1.413 0.127 -0.707 0.127 -0.707 -0.291 -0.415 0.127 -0.707 0.127 -0.707 -0.291 -0.414 0.127 -0.707 0.127 -0.707 0.127 -0.707 -0.291 -0.414 0.127 -0.707 -0.291 -0.414 0.127 -0.707 -0.291 -0.414 0.127 -0.707 -0.291 -0.414 0.127 -0.707 -0.291 -0.414 -0.291 -0.414 0.127 -0.707 -0.291 -0.414 -0.291 -0.414 -0.291 -0.414 -0.291 -0.414 -0.291 -0.414 -0.291 -0.414 0.127 -0.706 -0.291 -0.414 -0.291 -0.414 -0.291 -0.414 -0.709 -0.122 -1.166 -1.658 -0.291 -0.414 -0.709 -0.122 -0.291 -0.414 -0.583 -0.829 -0.709 -0.122 -0.292 -0.414 -0.709 -0.122 -0.291 -0.414 -0.291 -0.414 -0.71 -0.122 -0.291 -0.414 -0.71 -0.122 -0.291 -0.414 -0.71 -0.122 -0.291 -0.414 -0.71 -0.122 -0.71 -0.122 -0.292 -0.414 -0.71 -0.122 -0.71 -0.122 -0.71 -0.122 -0.292 -0.414 -2.129 -0.367 -0.71 -0.122 -0.71 -0.122 -2.13 -0.367 -0.71 -0.122 -0.71 -0.122 -0.71 -0.122 -0.418 0.292 -0.71 -0.122 -0.71 -0.122 -0.418 0.292 -0.71 -0.122 -0.418 0.292 -0.71 -0.122 -0.418 0.292 -0.71 -0.122 -0.418 0.292 -0.71 -0.122 -0.418 0.292 -2.13 -0.367 -0.71 -0.122 -0.292 -0.415 -0.292 -0.415 0.127 -0.707 -0.292 -0.415 0.127 -0.707 -0.292 -0.415 0.127 -0.707 -0.292 -0.415 0.127 -0.707 -0.292 -0.414 -0.292 -0.415 0.127 -0.707 -0.292 -0.415 0.127 -0.707 -0.292 -0.414 -0.292 -0.415 -0.292 -0.415 -0.292 -0.415 -0.292 -0.414 -1.459 -2.073 -0.584 -0.829 -0.71 -0.123 -0.292 -0.415 -1.421 -0.245 -0.71 -0.123 -0.418 0.292 -0.71 -0.123 -0.418 0.292 -0.419 0.292 -0.71 -0.123 -0.419 0.292 -0.127 0.707 -0.419 0.292 -0.419 0.292 -0.127 0.707 -0.419 0.292 -0.127 0.707 -0.127 0.707 -0.127 0.707 0.292 0.415 0.292 0.415 -0.127 0.707 0.292 0.415 0.292 0.415 -0.127 0.707 0.292 0.415 0.292 0.415 1.167 1.658 0.292 0.415 0.292 0.415 0.292 0.415 0.292 0.415 0.584 0.829 0.292 0.415 0.292 0.415 0.292 0.415 0.292 0.415 0.292 0.415 0.292 0.415 0.583 0.829 0.292 0.415 0.292 0.415 0.292 0.415 0.292 0.415 0.292 0.415 0.875 1.244 0.292 0.415 0.292 0.415 0.292 0.415 0.875 1.244 0.292 0.415 0.292 0.415 0.292 0.415 0.292 0.415 0.292 0.415 0.292 0.415 -0.127 0.707 0.292 0.415 0.292 0.415 -0.127 0.707 0.292 0.415 -0.127 0.707 -0.127 0.707 -0.127 0.707 -0.254 1.414 -0.419 0.292 -0.127 0.707 -0.419 0.292 -0.419 0.292 -0.419 0.292 -0.127 0.707 -0.419 0.292 -0.419 0.292 -0.71 -0.122 -0.419 0.292 -0.419 0.292 -0.71 -0.122 -0.837 0.585 -1.421 -0.245 -0.419 0.292 -0.71 -0.122 -0.419 0.292 -0.71 -0.122 -0.71 -0.122 -0.419 0.292 -0.711 -0.122 -1.421 -0.245 -0.711 -0.122 -0.711 -0.122 -0.419 0.292 -0.711 -0.122 -0.419 0.292 -0.711 -0.122 -0.838 0.585 -0.711 -0.122 -0.838 0.585 -0.711 -0.122 -0.711 -0.122 -0.419 0.292 -0.711 -0.122 -0.419 0.292 -0.711 -0.122 -0.419 0.292 -0.711 -0.122 -0.419 0.293 -0.711 -0.122 -0.419 0.293 -0.711 -0.122 -0.419 0.292 -0.711 -0.122 -0.419 0.292 -0.711 -0.122 -0.419 0.293 -0.711 -0.122 -0.419 0.293 -0.711 -0.122 -0.419 0.293 -0.711 -0.122 -0.838 0.585 -1.422 -0.244 -0.419 0.293 -0.711 -0.122 -0.711 -0.122 -0.711 -0.122 -0.292 -0.415 -0.292 -0.415 -0.584 -0.83 0.127 -0.707 -0.292 -0.415 -0.292 -0.415 0.127 -0.707 -0.584 -0.83 0.127 -0.707 -0.292 -0.415 -0.292 -0.415 -0.292 -0.415 0.127 -0.707 -0.292 -0.415 -0.292 -0.415 0.127 -0.707 -0.292 -0.415 -0.292 -0.415 0.127 -0.707 -0.292 -0.415 -0.292 -0.415 0.127 -0.707 -0.584 -0.83 0.127 -0.707 -0.292 -0.415 -0.292 -0.415 0.127 -0.707 -0.292 -0.415 -0.292 -0.415 0.127 -0.707 -0.292 -0.415 -0.292 -0.415 0.127 -0.707 -0.292 -0.415 -0.292 -0.415 0.127 -0.707 -0.584 -0.829 0.127 -0.707 -0.292 -0.415 -0.292 -0.415 0.127 -0.707 -0.292 -0.415 -0.292 -0.415 -0.292 -0.415 0.127 -0.707 -0.292 -0.415 -0.292 -0.415 0.127 -0.707 -0.292 -0.415 -0.292 -0.415 0.127 -0.707 -0.292 -0.415 -0.292 -0.415 0.127 -0.707 -0.584 -0.83 -0.292 -0.415 0.127 -0.707 -0.292 -0.415 -0.292 -0.415 0.127 -0.707 -0.292 -0.415 -0.292 -0.415 0.127 -0.707 -0.292 -0.415 -0.292 -0.415 0.127 -0.707 -0.292 -0.415 -0.292 -0.415 0.127 -0.707 -0.292 -0.415 -0.292 -0.415 0.127 -0.707 -0.292 -0.415 -0.292 -0.415 0.127 -0.707 -0.585 -0.83 0.127 -0.707 -0.292 -0.415 -0.292 -0.415 0.127 -0.707 -0.585 -0.829 -0.292 -0.415 0.127 -0.707 -0.292 -0.415 -0.292 -0.415 0.127 -0.707 -0.292 -0.415 -0.292 -0.415 -0.292 -0.415 0.127 -0.707 -0.292 -0.415 0.127 -0.707 -0.292 -0.415 -0.292 -0.415 -0.292 -0.415 0.127 -0.707 -0.292 -0.415 -0.292 -0.415 0.127 -0.707 -0.292 -0.415 -0.292 -0.415 0.127 -0.707 -0.292 -0.415 -0.292 -0.415 0.127 -0.707 -0.292 -0.415 -0.292 -0.415 0.127 -0.707 -0.292 -0.415 -0.292 -0.415 -0.292 -0.415 0.127 -0.707 -0.585 -0.83 0.127 -0.707 -0.293 -0.415 -0.293 -0.415 0.127 -0.707 -0.292 -0.415 -0.292 -0.415 0.127 -0.707 -0.878 -1.244 0.127 -0.707 -0.293 -0.415 -0.292 -0.415 0.127 -0.707 -0.293 -0.415 -0.293 -0.415 0.127 -0.707 -0.293 -0.415 -0.293 -0.415 0.127 -0.707 -0.293 -0.415 -0.293 -0.415 0.127 -0.707 -0.585 -0.83 0.127 -0.707 -0.585 -0.83 0.127 -0.707 -0.293 -0.415 -0.293 -0.415 0.127 -0.707 -0.293 -0.415 -0.293 -0.415 0.127 -0.707 -0.293 -0.415 -0.293 -0.415 -0.293 -0.415 0.127 -0.707 -0.585 -0.83 0.127 -0.707 -0.293 -0.415 -0.293 -0.415 0.127 -0.707 -0.293 -0.415 -0.293 -0.415 0.126 -0.707 -0.878 -1.244 0.127 -0.707 -0.293 -0.415 0.126 -0.707 -0.293 -0.415 -0.293 -0.415 -0.293 -0.415 0.126 -0.707 -0.293 -0.415 -0.293 -0.415 0.126 -0.707 -0.293 -0.415 -0.293 -0.415 0.126 -0.707 -0.293 -0.415 -0.293 -0.415 -0.293 -0.415 0.126 -0.707 -0.586 -0.83 0.126 -0.707 -0.586 -0.83 0.126 -0.706 -0.293 -0.415 -0.586 -0.83 0.126 -0.707 -0.586 -0.83 0.126 -0.706 -0.586 -0.83 0.126 -0.706 -0.293 -0.415 -0.293 -0.415 0.126 -0.706 -0.293 -0.415 -0.586 -0.83 0.126 -0.706 -0.293 -0.415 0.126 -0.706 -0.293 -0.415 -0.586 -0.83 0.126 -0.706 -0.293 -0.415 -0.293 -0.415 0.126 -0.706 -0.293 -0.415 -0.293 -0.415 0.126 -0.706 -0.293 -0.415 -0.293 -0.415 0.126 -0.706 -0.586 -0.83 0.126 -0.706 -0.293 -0.415 -0.293 -0.415 0.126 -0.706 -0.879 -1.245 0.126 -0.706 -0.293 -0.415 0.126 -0.706 -0.293 -0.415 -0.293 -0.415 -0.293 -0.415 0.126 -0.706 -0.293 -0.415 -0.293 -0.415 0.126 -0.706 -0.586 -0.83 0.126 -0.706 -0.293 -0.415 -0.293 -0.415 0.126 -0.706 -0.293 -0.415 -0.293 -0.415 0.126 -0.706 -0.586 -0.83 0.126 -0.706 -0.586 -0.83 0.126 -0.706 -0.293 -0.415 -0.293 -0.415 -0.293 -0.415 0.126 -0.706 -0.293 -0.415 -0.293 -0.415 0.126 -0.706 -0.293 -0.415 -0.293 -0.415 0.126 -0.706 -0.293 -0.415 -0.293 -0.415 0.126 -0.706 -0.586 -0.83 -0.293 -0.415 0.126 -0.706 -0.293 -0.415 0.126 -0.706 -0.293 -0.415 -0.293 -0.415 -0.293 -0.415 0.126 -0.706 -0.293 -0.415 0.126 -0.706 -0.587 -0.83 0.126 -0.706 -0.293 -0.415 -0.293 -0.415 0.126 -0.706 -0.587 -0.83 0.126 -0.706 -0.587 -0.83 0.126 -0.706 -0.293 -0.415 -0.587 -0.83 0.126 -0.706 -0.293 -0.415 -0.293 -0.415 0.126 -0.706 -0.293 -0.415 -0.293 -0.415 0.126 -0.706 -0.293 -0.415 -0.293 -0.415 0.126 -0.706 -0.293 -0.415 -0.293 -0.415 -0.293 -0.415 0.126 -0.706 -0.587 -0.83 0.126 -0.706 -0.293 -0.415 -0.293 -0.415 -0.294 -0.415 0.126 -0.706 -0.293 -0.415 0.126 -0.706 -0.293 -0.415 -0.294 -0.415 -0.293 -0.415 0.126 -0.706 -0.294 -0.415 -0.294 -0.415 0.126 -0.706 -0.294 -0.415 -0.294 -0.415 0.126 -0.706 -0.294 -0.415 -0.294 -0.415 0.126 -0.706 -0.294 -0.415 -0.294 -0.415 0.126 -0.706 -0.587 -0.83 0.126 -0.706 -0.587 -0.83 0.126 -0.706 -0.294 -0.415 -0.294 -0.415 0.126 -0.706 -0.881 -1.245 0.126 -0.706 -0.294 -0.415 -0.294 -0.415 0.126 -0.706 -0.587 -0.83 0.126 -0.706 -0.294 -0.415 -0.294 -0.415 0.126 -0.706 -0.294 -0.415 -0.294 -0.415 0.125 -0.706 -0.294 -0.415 -0.294 -0.415 0.125 -0.706 -0.294 -0.415 -0.294 -0.415 0.125 -0.706 -0.294 -0.415 -0.294 -0.415 0.125 -0.706 -0.294 -0.415 -0.294 -0.415 0.125 -0.706 -0.294 -0.415 -0.294 -0.415 0.125 -0.706 -0.294 -0.415 -0.294 -0.415 0.125 -0.706 -0.588 -0.83 0.125 -0.706 -0.294 -0.415 -0.294 -0.415 0.125 -0.706 -0.294 -0.415 -0.294 -0.415 0.125 -0.706 -0.588 -0.831 -0.294 -0.415 0.125 -0.706 -0.588 -0.831 0.125 -0.706 -0.588 -0.831 0.125 -0.706 -0.294 -0.415 -0.294 -0.415 -0.294 -0.415 0.125 -0.706 -0.294 -0.415 -0.294 -0.415 0.125 -0.706 -0.294 -0.415 -0.294 -0.415 0.125 -0.706 -0.588 -0.831 -0.294 -0.415 0.125 -0.706 -0.294 -0.415 0.125 -0.706 -0.294 -0.415 -0.294 -0.415 -0.294 -0.415 0.125 -0.706 -0.588 -0.831 0.125 -0.706 -0.294 -0.415 -0.294 -0.415 0.125 -0.706 -0.294 -0.415 -0.294 -0.415 0.125 -0.706 -0.294 -0.415 0.125 -0.706 0.125 -0.706 0.125 -0.706 0.838 -0.582 0.419 -0.291 0.419 -0.291 0.125 -0.706 0.419 -0.291 0.419 -0.291 0.419 -0.291 1.257 -0.873 0.419 -0.291 0.419 -0.291 0.419 -0.291 0.419 -0.291 0.125 -0.706 0.838 -0.582 1.676 -1.163 0.838 -0.582 0.419 -0.291 0.125 -0.706 0.419 -0.291 0.419 -0.291 0.419 -0.291 0.838 -0.582 0.419 -0.291 0.838 -0.582 1.675 -1.163 0.419 -0.291 0.419 -0.291 0.713 0.125 0.419 -0.291 0.419 -0.291 0.419 -0.291 0.419 -0.291 0.713 0.125 0.419 -0.291 0.419 -0.291 0.713 0.125 0.419 -0.291 0.713 0.125 0.419 -0.291 0.713 0.125 0.837 -0.581 0.713 0.125 0.713 0.125 0.419 -0.291 0.713 0.125 0.419 -0.291 0.712 0.125 0.419 -0.291 1.425 0.249 0.419 -0.291 0.712 0.125 0.419 -0.291 0.712 0.125 0.419 -0.291 0.712 0.125 0.712 0.125 0.418 -0.291 0.712 0.125 0.418 -0.291 0.712 0.125 0.712 0.125 0.418 -0.291 0.712 0.125 0.418 -0.291 0.712 0.125 0.712 0.125 0.418 -0.291 0.712 0.125 0.418 -0.291 0.712 0.125 0.418 -0.291 0.712 0.125 0.712 0.125 0.418 -0.291 0.712 0.125 0.418 -0.291 0.712 0.125 0.418 -0.291 0.712 0.125 0.712 0.125 0.418 -0.291 0.712 0.125 0.418 -0.291 0.712 0.125 0.418 -0.291 0.712 0.125 0.712 0.125 0.418 -0.291 0.712 0.125 0.418 -0.291 0.712 0.125 0.712 0.125 0.418 -0.291 0.712 0.125 0.418 -0.291 0.712 0.125 0.418 -0.291 0.712 0.125 0.712 0.125 0.418 -0.291 0.712 0.125 0.418 -0.291 0.712 0.125 0.711 0.125 0.418 -0.291 0.711 0.125 0.418 -0.291 0.711 0.125 0.418 -0.291 0.711 0.125 0.418 -0.291 0.711 0.125 0.418 -0.291 0.711 0.125 0.711 0.125 0.418 -0.291 0.711 0.125 0.418 -0.291 0.711 0.125 0.711 0.125 0.418 -0.29 0.711 0.125 0.418 -0.29 0.711 0.125 0.418 -0.291 1.422 0.249 0.418 -0.29 1.422 0.249 0.418 -0.29 0.711 0.125 0.418 -0.29 0.711 0.125 0.418 -0.29 0.418 -0.29 0.711 0.125 0.418 -0.29 0.711 0.125 0.418 -0.29 0.711 0.125 0.418 -0.29 0.711 0.125 0.418 -0.29 0.711 0.125 0.418 -0.29 0.711 0.125 0.835 -0.581 0.711 0.125 0.418 -0.29 0.711 0.125 0.418 -0.29 0.711 0.125 0.417 -0.29 0.417 -0.29 0.711 0.125 0.417 -0.29 0.711 0.125 0.417 -0.29 0.417 -0.29 0.711 0.125 0.417 -0.29 0.417 -0.29 0.711 0.125 0.417 -0.29 0.417 -0.29 0.71 0.125 0.835 -0.581 0.71 0.125 0.417 -0.29 0.417 -0.29 0.417 -0.29 0.71 0.125 0.835 -0.581 0.71 0.125 0.417 -0.29 0.417 -0.29 0.417 -0.29 0.71 0.125 0.834 -0.581 0.71 0.125 1.252 -0.871 0.71 0.125 0.417 -0.29 0.417 -0.29 0.417 -0.29 0.417 -0.29 0.417 -0.29 0.71 0.125 0.417 -0.29 0.834 -0.581 0.417 -0.29 0.417 -0.29 0.417 -0.29 0.417 -0.29 0.417 -0.29 0.417 -0.29 0.417 -0.29 0.417 -0.29 0.417 -0.29 0.834 -0.581 0.417 -0.29 0.417 -0.29 0.417 -0.29 0.417 -0.29 0.417 -0.29 1.668 -1.161 0.834 -0.58 0.417 -0.29 0.417 -0.29 0.71 0.125 0.417 -0.29 0.417 -0.29 0.417 -0.29 1.251 -0.871 0.71 0.125 0.834 -0.58 0.417 -0.29 0.71 0.125 0.417 -0.29 0.417 -0.29 0.71 0.125 0.834 -0.58 0.71 0.125 0.71 0.125 0.417 -0.29 0.71 0.125 0.417 -0.29 0.709 0.125 1.419 0.249 2.128 0.374 0.709 0.125 0.709 0.125 0.709 0.125 0.709 0.125 0.293 0.415 0.709 0.125 0.293 0.415 0.709 0.125 0.293 0.415 0.709 0.125 0.585 0.829 0.709 0.125 0.293 0.415 0.293 0.415 0.293 0.415 0.293 0.415 0.709 0.124 0.293 0.415 0.293 0.415 0.878 1.244 0.293 0.415 0.293 0.415 0.293 0.415 0.293 0.415 0.293 0.415 0.293 0.415 0.293 0.415 -0.124 0.705 0.585 0.829 0.293 0.415 -0.124 0.705 0.585 0.829 -0.124 0.705 0.292 0.415 -0.124 0.705 0.292 0.415 -0.124 0.705 0.292 0.415 -0.124 0.705 0.292 0.415 -0.248 1.41 -0.248 1.41 -0.124 0.705 -0.124 0.705 -0.248 1.41 -0.124 0.705 -0.124 0.705 -0.417 0.29 -0.124 0.705 -0.417 0.29 -0.124 0.705 -0.417 0.29 -0.124 0.705 -0.124 0.705 -0.124 0.705 -0.124 0.705 -0.124 0.705 -0.124 0.705 -0.124 0.705 -0.373 2.114 -0.124 0.705 -0.124 0.705 -0.124 0.705 -0.124 0.705 0.292 0.414 -0.249 1.41 -0.124 0.705 -0.124 0.705 -0.124 0.705 -0.124 0.705 0.292 0.414 -0.124 0.705 -0.124 0.705 -0.249 1.41 0.292 0.414 -0.124 0.705 -0.124 0.705 0.292 0.414 -0.249 1.41 0.292 0.414 -0.124 0.705 0.292 0.414 -0.124 0.705 -0.124 0.705 0.292 0.414 0.292 0.414 -0.124 0.705 0.292 0.414 0.292 0.414 -0.124 0.705 0.292 0.414 0.292 0.414 -0.124 0.705 0.292 0.414 0.292 0.414 0.292 0.414 -0.124 0.705 0.292 0.414 0.292 0.414 -0.124 0.705 0.292 0.414 -0.124 0.705 -0.124 0.705 -0.124 0.705 -0.124 0.705 -0.124 0.705 -0.125 0.705 -0.417 0.29 -0.417 0.29 -0.125 0.705 -0.834 0.581 -0.125 0.705 -0.417 0.29 -0.834 0.581 -0.125 0.705 -0.417 0.29 -0.834 0.581 -0.417 0.29 -0.125 0.705 -0.417 0.291 -0.417 0.29 -0.417 0.291 -0.834 0.581 -0.834 0.581 -0.125 0.705 -0.417 0.291 -0.834 0.581 -0.417 0.291 -0.834 0.581 -0.417 0.291 -0.417 0.291 -0.417 0.291 -0.417 0.291 -0.417 0.291 -0.417 0.291 -0.417 0.291 -0.125 0.705 -0.417 0.291 -0.125 0.705 -0.25 1.41 0.292 0.414 0.585 0.829 0.709 0.124 1.419 0.248 0.709 0.124 0.417 -0.291 0.417 -0.291 0.417 -0.291 0.709 0.124 0.417 -0.291 1.251 -0.872 0.417 -0.291 0.834 -0.581 0.417 -0.291 0.709 0.124 0.417 -0.291 0.417 -0.291 0.417 -0.291 0.417 -0.291 0.417 -0.291 0.417 -0.291 0.417 -0.291 0.417 -0.291 1.667 -1.162 0.709 0.124 0.417 -0.29 0.417 -0.291 0.417 -0.29 0.417 -0.29 0.417 -0.291 0.417 -0.29 0.417 -0.291 0.417 -0.29 0.417 -0.29 0.709 0.124 0.833 -0.581 1.25 -0.871 0.417 -0.29 0.833 -0.581 0.417 -0.29 0.709 0.124 1.25 -0.871 0.417 -0.29 0.417 -0.29 0.709 0.124 0.417 -0.29 0.417 -0.29 0.709 0.124 0.416 -0.29 0.709 0.124 0.417 -0.29 0.709 0.124 0.708 0.124 0.708 0.124 0.292 0.414 1.417 0.248 0.292 0.414 0.708 0.124 0.708 0.124 0.292 0.414 0.708 0.124 0.292 0.414 0.708 0.124 0.292 0.414 1.417 0.248 0.292 0.414 1.417 0.248 0.292 0.414 0.708 0.124 0.708 0.124 0.292 0.414 0.708 0.124 0.708 0.124 0.708 0.124 0.708 0.124 0.708 0.124 0.708 0.124 0.416 -0.29 0.708 0.124 0.708 0.124 0.416 -0.29 0.708 0.124 0.416 -0.29 0.708 0.124 0.416 -0.29 0.708 0.124 0.416 -0.29 0.708 0.124 1.416 0.247 0.708 0.124 0.708 0.124 2.123 0.371 0.292 0.414 0.708 0.124 0.292 0.414 0.708 0.124 0.292 0.414 0.708 0.124 0.292 0.414 0.708 0.124 0.583 0.828 0.708 0.124 0.292 0.414 0.708 0.124 0.708 0.124 0.292 0.414 0.708 0.124 2.123 0.371 0.708 0.124 0.416 -0.29 0.708 0.124 0.416 -0.29 0.416 -0.29 0.416 -0.29 0.416 -0.29 0.416 -0.29 0.416 -0.29 0.832 -0.581 0.416 -0.29 0.832 -0.581 0.416 -0.29 0.416 -0.29 0.832 -0.581 0.416 -0.29 0.416 -0.29 0.832 -0.581 0.707 0.124 0.832 -0.581 0.707 0.124 0.707 0.124 1.414 0.247 0.707 0.124 0.707 0.124 0.291 0.414 0.707 0.124 0.291 0.414 0.707 0.124 0.291 0.414 0.291 0.414 0.707 0.124 0.291 0.414 0.707 0.124 0.291 0.414 0.291 0.414 0.707 0.124 0.291 0.414 0.707 0.124 0.291 0.414 0.707 0.124 0.583 0.828 0.707 0.124 0.291 0.414 0.707 0.124 0.291 0.414 0.707 0.124 0.291 0.414 0.291 0.414 0.707 0.124 0.291 0.414 0.707 0.124 0.291 0.414 0.707 0.124 0.291 0.414 0.707 0.124 0.291 0.414 0.291 0.414 0.707 0.124 0.291 0.414 0.707 0.124 0.291 0.414 0.291 0.414 0.707 0.124 0.291 0.414 0.707 0.124 0.291 0.414 0.707 0.124 0.291 0.414 0.291 0.414 0.707 0.124 0.291 0.414 0.707 0.124 0.291 0.414 0.707 0.124 0.582 0.828 0.707 0.124 0.291 0.414 0.707 0.124 0.291 0.414 0.707 0.124 0.291 0.414 0.707 0.123 0.291 0.414 0.291 0.414 0.707 0.124 0.291 0.414 0.706 0.124 0.291 0.414 0.706 0.123 0.291 0.414 0.291 0.414 0.706 0.123 0.291 0.414 0.706 0.123 0.291 0.414 0.706 0.123 0.291 0.414 0.291 0.414 0.706 0.123 0.291 0.414 0.706 0.123 0.291 0.414 0.706 0.123 0.291 0.414 0.291 0.414 0.706 0.123 0.291 0.414 0.706 0.123 0.291 0.414 0.706 0.123 0.291 0.414 0.291 0.414 0.706 0.123 0.291 0.414 0.706 0.123 0.291 0.414 0.706 0.123 0.582 0.827 0.706 0.123 0.291 0.414 0.706 0.123 0.291 0.414 0.291 0.414 0.706 0.123 0.291 0.414 0.706 0.123 0.291 0.414 0.706 0.123 0.291 0.414 0.706 0.123 0.291 0.414 0.291 0.414 0.706 0.123 0.291 0.414 0.706 0.123 0.291 0.414 0.706 0.123 0.291 0.414 0.706 0.123 0.291 0.414 0.706 0.123 0.291 0.414 0.291 0.414 0.706 0.123 0.291 0.414 0.706 0.123 0.291 0.414 0.706 0.123 0.291 0.414 0.706 0.123 0.291 0.414 0.706 0.123 0.291 0.414 0.706 0.123 0.291 0.414 0.706 0.123 0.291 0.414 0.706 0.123 0.291 0.414 0.291 0.414 0.706 0.123 0.291 0.414 0.706 0.123 0.291 0.414 0.706 0.123 0.706 0.123 0.291 0.414 0.706 0.123 0.291 0.414 0.706 0.123 0.291 0.414 0.706 0.123 0.291 0.414 0.706 0.123 0.291 0.414 0.706 0.123 0.291 0.414 0.706 0.123 0.291 0.414 0.706 0.123 0.291 0.414 0.705 0.123 0.291 0.414 1.411 0.247 0.291 0.414 0.705 0.123 0.291 0.414 0.705 0.123 0.291 0.414 0.705 0.123 0.291 0.414 0.705 0.123 0.705 0.123 0.291 0.414 0.705 0.123 0.291 0.414 0.705 0.123 0.705 0.123 0.291 0.414 0.705 0.123 0.291 0.414 0.705 0.123 0.705 0.123 0.291 0.414 0.705 0.123 0.29 0.413 0.705 0.123 0.705 0.123 0.291 0.414 0.705 0.123 0.291 0.414 0.705 0.123 0.705 0.123 0.29 0.413 0.705 0.123 0.705 0.123 0.29 0.413 0.705 0.123 0.705 0.123 0.29 0.413 0.705 0.123 0.29 0.413 0.705 0.123 0.705 0.123 0.29 0.413 0.705 0.123 0.29 0.413 0.705 0.123 0.29 0.414 0.705 0.123 0.705 0.123 0.29 0.413 0.705 0.123 0.705 0.123 0.705 0.123 0.705 0.123 0.705 0.123 0.705 0.123 0.705 0.123 0.705 0.123 0.705 0.123 0.29 0.413 0.705 0.123 0.705 0.123 0.705 0.123 1.41 0.246 0.705 0.123 0.29 0.413 0.705 0.123 0.705 0.123 0.705 0.123 0.705 0.123 1.41 0.246 0.705 0.123 0.705 0.123 0.29 0.413 0.705 0.123 1.409 0.246 1.409 0.246 0.705 0.123 0.705 0.123 1.409 0.246 0.29 0.413 1.409 0.246 0.705 0.123 0.705 0.123 0.705 0.123 1.409 0.246 0.705 0.123 0.705 0.123 0.705 0.123 0.705 0.123 0.29 0.413 0.705 0.123 1.409 0.246 0.704 0.123 0.704 0.123 0.704 0.123 0.704 0.123 0.704 0.123 0.29 0.413 0.704 0.123 0.704 0.123 0.704 0.123 1.409 0.246 0.704 0.123 2.113 0.37 0.29 0.413 0.704 0.123 0.704 0.123 0.704 0.123 0.704 0.123 0.704 0.123 1.409 0.246 1.408 0.246 0.29 0.413 0.704 0.123 0.704 0.123 0.704 0.123 0.704 0.123 0.704 0.123 0.704 0.123 0.704 0.123 0.29 0.413 1.408 0.246 0.704 0.123 0.704 0.123 0.704 0.123 0.704 0.123 0.704 0.123 0.704 0.123 0.704 0.123 0.704 0.123 0.704 0.123 0.29 0.413 0.704 0.123 0.704 0.123 0.704 0.123 1.408 0.246 0.704 0.123 0.704 0.123 0.704 0.123 0.704 0.123 0.704 0.123 0.29 0.413 0.704 0.123 2.112 0.37 0.704 0.123 0.704 0.123 0.704 0.123 0.704 0.123 0.704 0.123 0.704 0.123 0.704 0.123 0.704 0.123 0.29 0.413 2.112 0.369 0.704 0.123 2.111 0.37 0.704 0.123 0.704 0.123 0.704 0.123 0.414 -0.29 0.704 0.123 0.704 0.123 0.704 0.123 0.414 -0.29 0.704 0.123 0.414 -0.29 0.704 0.123 0.414 -0.29 0.704 0.123 0.414 -0.29 0.704 0.123 0.414 -0.29 0.414 -0.29 0.414 -0.29 0.704 0.123 0.414 -0.29 0.414 -0.29 0.704 0.123 0.414 -0.29 0.414 -0.29 0.414 -0.29 0.704 0.123 0.414 -0.29 0.414 -0.29 0.414 -0.29 0.704 0.123 0.414 -0.29 0.414 -0.29 0.414 -0.29 0.704 0.123 0.414 -0.29 0.827 -0.58 0.704 0.123 0.414 -0.29 0.414 -0.29 0.704 0.123 0.414 -0.29 0.704 0.123 0.414 -0.29 0.704 0.123 0.414 -0.29 0.704 0.123 0.704 0.123 0.704 0.123 0.414 -0.29 0.704 0.123 0.704 0.123 1.407 0.246 0.704 0.123 0.703 0.123 0.414 -0.29 0.703 0.123 2.11 0.37 0.703 0.123 0.703 0.123 1.407 0.246 0.703 0.123 0.703 0.123 0.703 0.123 0.703 0.123 0.703 0.123 0.703 0.123 1.407 0.246 0.703 0.123 0.703 0.123 0.703 0.123 1.407 0.246 1.407 0.246 0.703 0.123 0.703 0.123 0.413 -0.29 0.703 0.123 2.11 0.37 0.413 -0.29 0.703 0.123 0.703 0.123 0.703 0.123 0.703 0.123 0.413 -0.29 0.703 0.123 0.703 0.123 0.703 0.123 0.413 -0.29 0.703 0.123 0.703 0.123 0.413 -0.29 0.703 0.123 0.703 0.123 0.703 0.123 0.413 -0.29 0.703 0.123 0.703 0.123 0.703 0.123 0.413 -0.29 1.406 0.246 0.703 0.123 0.413 -0.29 0.703 0.123 0.413 -0.29 0.703 0.123 0.703 0.123 0.413 -0.29 0.703 0.123 0.413 -0.29 1.406 0.247 0.413 -0.29 0.413 -0.29 0.703 0.123 0.703 0.123 0.413 -0.29 0.703 0.123 0.413 -0.29 0.703 0.123 0.413 -0.29 0.703 0.123 0.413 -0.29 0.703 0.123 0.413 -0.29 0.703 0.123 0.413 -0.29 0.703 0.123 0.703 0.123 0.413 -0.29 0.703 0.123 0.703 0.123 0.703 0.123 0.703 0.123 0.413 -0.29 0.703 0.123 0.703 0.123 0.413 -0.29 0.413 -0.29 0.703 0.123 0.413 -0.29 0.703 0.123 0.413 -0.29 1.406 0.247 0.413 -0.29 0.703 0.123 0.413 -0.29 0.703 0.123 0.413 -0.29 0.703 0.123 0.413 -0.29 0.703 0.123 0.703 0.123 0.413 -0.29 0.703 0.123 0.413 -0.29 0.703 0.123 0.413 -0.29 0.703 0.123 0.413 -0.29 0.703 0.123 0.703 0.123 0.413 -0.29 0.703 0.123 0.413 -0.29 0.703 0.123 0.413 -0.29 0.703 0.123 0.413 -0.29 0.703 0.123 0.413 -0.29 0.703 0.123 0.413 -0.29 0.703 0.123 0.413 -0.29 0.703 0.123 0.413 -0.29 0.703 0.123 0.413 -0.29 0.703 0.123 0.413 -0.29 0.703 0.123 0.413 -0.29 0.703 0.123 0.413 -0.29 0.413 -0.29 0.703 0.123 0.413 -0.29 0.703 0.123 0.413 -0.29 0.703 0.123 0.413 -0.29 0.703 0.123 0.413 -0.29 0.703 0.123 0.413 -0.29 0.703 0.123 0.413 -0.29 0.413 -0.29 0.703 0.123 0.413 -0.29 0.703 0.123 0.413 -0.29 0.703 0.123 0.413 -0.29 0.703 0.123 0.413 -0.29 0.703 0.123 0.826 -0.58 0.703 0.123 0.413 -0.29 0.703 0.123 0.413 -0.29 0.413 -0.29 0.703 0.123 0.413 -0.29 0.703 0.123 0.826 -0.58 0.703 0.123 0.413 -0.29 0.703 0.123 0.413 -0.29 0.413 -0.29 0.703 0.123 0.413 -0.29 0.413 -0.29 0.703 0.123 0.413 -0.29 0.413 -0.29 0.703 0.123 0.413 -0.29 0.703 0.123 0.413 -0.29 0.413 -0.29 0.703 0.123 0.826 -0.58 0.703 0.123 0.413 -0.29 0.413 -0.29 0.703 0.123 0.826 -0.58 0.703 0.123 0.413 -0.29 0.703 0.123 0.413 -0.29 0.413 -0.29 0.703 0.123 0.826 -0.58 0.703 0.123 0.413 -0.29 0.826 -0.58 0.703 0.123 0.413 -0.29 0.413 -0.29 0.703 0.123 0.413 -0.29 0.413 -0.29 0.703 0.123 0.413 -0.29 0.413 -0.29 0.703 0.123 1.239 -0.87 0.703 0.123 0.413 -0.29 0.413 -0.29 0.703 0.123 0.826 -0.58 0.413 -0.29 0.703 0.123 0.413 -0.29 0.413 -0.29 0.413 -0.29 0.703 0.123 0.413 -0.29 0.413 -0.29 0.703 0.123 0.413 -0.29 0.413 -0.29 0.413 -0.29 0.413 -0.29 0.703 0.123 0.413 -0.29 0.413 -0.29 0.413 -0.29 0.703 0.123 0.413 -0.29 0.413 -0.29 0.413 -0.29 0.413 -0.29 0.703 0.123 0.413 -0.29 0.413 -0.29 0.413 -0.29 0.703 0.123 0.413 -0.29 0.413 -0.29 0.413 -0.29 0.413 -0.29 0.703 0.123 0.413 -0.29 0.413 -0.29 0.413 -0.29 0.703 0.123 0.413 -0.29 0.826 -0.58 0.413 -0.29 0.703 0.123 0.413 -0.29 0.413 -0.29 0.413 -0.29 0.413 -0.29 0.703 0.123 0.413 -0.29 0.413 -0.29 0.413 -0.29 0.413 -0.29 0.413 -0.29 0.703 0.123 0.413 -0.29 0.413 -0.29 0.413 -0.29 0.413 -0.29 0.413 -0.29 0.703 0.123 0.413 -0.29 0.413 -0.29 0.413 -0.29 0.826 -0.58 0.413 -0.29 0.703 0.123 0.413 -0.29 0.413 -0.29 0.413 -0.29 0.413 -0.29 0.413 -0.29 0.413 -0.29 0.703 0.123 0.413 -0.29 0.413 -0.29 0.413 -0.29 0.413 -0.29 0.413 -0.29 0.413 -0.29 0.826 -0.58 0.703 0.123 0.413 -0.29 0.826 -0.58 0.413 -0.29 0.413 -0.29 0.703 0.123 0.413 -0.29 0.413 -0.29 0.413 -0.29 0.413 -0.29 0.703 0.123 0.826 -0.58 0.413 -0.29 0.413 -0.29 0.703 0.123 0.413 -0.29 0.413 -0.29 0.413 -0.29 0.413 -0.29 0.703 0.123 0.413 -0.29 0.413 -0.29 0.413 -0.29 0.413 -0.29 0.413 -0.29 0.413 -0.29 0.703 0.123 0.413 -0.29 0.826 -0.58 0.413 -0.29 0.413 -0.29 0.413 -0.29 0.413 -0.29 0.413 -0.29 0.826 -0.58 0.413 -0.29 0.413 -0.29 0.413 -0.29 0.413 -0.29 0.413 -0.29 0.413 -0.29 0.703 0.123 0.413 -0.29 0.413 -0.29 0.413 -0.29 0.413 -0.29 0.413 -0.29 0.826 -0.58 0.413 -0.29 0.826 -0.58 0.413 -0.29 0.413 -0.29 0.826 -0.58 0.413 -0.29 0.413 -0.29 1.24 -0.87 0.413 -0.29 0.826 -0.58 0.826 -0.58 0.413 -0.29 0.413 -0.29 1.653 -1.159 0.413 -0.29 0.413 -0.29 0.413 -0.29 0.413 -0.29 0.413 -0.29 0.413 -0.29 0.413 -0.29 0.413 -0.29 0.413 -0.29 0.413 -0.29 0.703 0.123 0.413 -0.29 0.123 -0.703 0.413 -0.29 1.653 -1.159 0.413 -0.29 0.413 -0.29 0.413 -0.29 0.413 -0.29 0.413 -0.29 0.826 -0.58 0.703 0.123 0.413 -0.29 0.413 -0.29 0.703 0.123 0.413 -0.29 0.413 -0.29 1.407 0.247 0.413 -0.29 0.703 0.123 0.703 0.123 1.407 0.247 1.407 0.247 0.703 0.123 1.407 0.247 0.703 0.123 0.703 0.123 0.703 0.123 0.703 0.123 0.703 0.123 0.413 -0.29 0.703 0.123 0.703 0.123 0.413 -0.29 0.413 -0.29 0.703 0.123 0.413 -0.29 0.413 -0.29 0.413 -0.29 0.413 -0.29 0.413 -0.29 0.413 -0.29 0.413 -0.29 0.413 -0.29 0.413 -0.29 0.413 -0.29 0.703 0.123 0.123 -0.703 0.413 -0.29 0.413 -0.29 0.703 0.123 0.413 -0.29 0.413 -0.29 0.413 -0.29 0.413 -0.29 0.827 -0.58 0.413 -0.29 0.827 -0.58 0.413 -0.29 0.827 -0.58 0.413 -0.29 0.413 -0.29 0.413 -0.29 0.413 -0.29 0.827 -0.58 0.413 -0.29 0.827 -0.58 0.413 -0.29 0.413 -0.29 0.827 -0.58 0.704 0.123 0.413 -0.29 0.413 -0.29 0.413 -0.29 0.413 -0.29 1.654 -1.16 0.413 -0.29 0.413 -0.29 0.827 -0.58 1.24 -0.87 0.413 -0.29 0.827 -0.58 0.413 -0.29 0.413 -0.29 0.413 -0.29 0.413 -0.29 0.414 -0.29 1.24 -0.87 0.704 0.123 0.413 -0.29 0.123 -0.703 0.413 -0.29 0.704 0.123 0.413 -0.29 1.241 -0.87 0.414 -0.29 0.413 -0.29 0.827 -0.58 0.414 -0.29 0.414 -0.29 0.827 -0.58 0.414 -0.29 1.654 -1.16 0.414 -0.29 1.241 -0.87 0.414 -0.29 0.414 -0.29 0.827 -0.58 0.414 -0.29 0.414 -0.29 0.704 0.123 0.414 -0.29 0.414 -0.29 0.414 -0.29 0.414 -0.29 0.414 -0.29 0.414 -0.29 0.414 -0.29 0.414 -0.29 0.414 -0.29 0.414 -0.29 0.414 -0.29 0.414 -0.29 0.414 -0.29 0.414 -0.29 0.414 -0.29 0.414 -0.29 0.414 -0.29 0.414 -0.29 0.414 -0.29 0.414 -0.29 0.414 -0.29 0.414 -0.29 0.414 -0.29 0.414 -0.29 0.414 -0.29 0.414 -0.29 0.704 0.123 0.414 -0.29 0.414 -0.29 0.414 -0.29 0.414 -0.29 0.414 -0.29 0.827 -0.58 0.414 -0.29 0.414 -0.29 0.414 -0.29 0.414 -0.29 0.414 -0.29 0.414 -0.29 0.828 -0.58 0.414 -0.29 0.828 -0.58 0.414 -0.29 0.828 -0.58 0.414 -0.29 0.828 -0.58 0.414 -0.29 0.414 -0.29 0.704 0.123 0.123 -0.703 0.704 0.123 0.828 -0.58 0.414 -0.29 0.414 -0.29 0.414 -0.29 0.414 -0.29 1.242 -0.87 1.242 -0.87 0.414 -0.29 0.414 -0.29 0.414 -0.29 1.242 -0.871 0.414 -0.29 0.414 -0.29 0.414 -0.29 0.414 -0.29 0.828 -0.58 0.704 0.123 0.414 -0.29 0.704 0.123 1.242 -0.871 0.414 -0.29 0.414 -0.29 0.414 -0.29 0.414 -0.29 0.828 -0.58 0.828 -0.58 0.414 -0.29 0.828 -0.58 0.704 0.123 0.414 -0.29 0.414 -0.29 0.704 0.123 0.414 -0.29 0.704 0.123 0.705 0.123 0.704 0.123 0.704 0.123 0.705 0.123 0.705 0.123 0.29 0.413 0.705 0.123 0.581 0.827 0.291 0.413 0.705 0.123 0.581 0.827 0.29 0.413 0.291 0.413 0.872 1.24 0.291 0.413 0.29 0.413 0.291 0.413 0.291 0.413 0.29 0.413 0.581 0.827 0.291 0.413 0.291 0.413 0.291 0.413 0.291 0.413 0.291 0.413 1.162 1.653 0.705 0.123 0.291 0.413 0.705 0.123 0.705 0.123 0.414 -0.29 0.705 0.123 0.414 -0.29 0.705 0.123 0.414 -0.29 0.705 0.123 0.414 -0.29 0.705 0.123 0.414 -0.29 0.705 0.123 0.414 -0.29 1.41 0.246 0.705 0.123 0.705 0.123 0.291 0.413 0.705 0.123 0.291 0.413 0.291 0.413 0.581 0.827 0.291 0.413 0.291 0.413 -0.124 0.704 0.291 0.413 0.291 0.413 0.291 0.413 0.872 1.24 0.291 0.413 0.581 0.827 0.291 0.413 0.291 0.413 0.291 0.413 0.291 0.413 1.163 1.654 0.291 0.413 0.291 0.413 1.163 1.654 0.291 0.413 0.291 0.413 0.291 0.413 0.291 0.414 0.291 0.413 0.291 0.413 0.872 1.24 0.291 0.413 0.291 0.413 0.291 0.414 0.291 0.413 0.582 0.827 -0.123 0.704 0.291 0.413 -0.123 0.704 0.291 0.414 -0.124 0.704 -0.124 0.704 -0.123 0.704 -0.414 0.29 -0.124 0.704 -0.123 0.704 -0.414 0.29 -0.123 0.704 -0.414 0.29 -0.37 2.111 -0.414 0.29 -0.124 0.704 -0.123 0.704 0.291 0.413 -0.123 0.704 -0.123 0.704 0.582 0.827 -0.123 0.704 0.291 0.414 0.291 0.414 0.291 0.414 0.291 0.414 0.291 0.414 0.291 0.414 0.582 0.827 0.291 0.414 0.291 0.414 0.291 0.414 0.291 0.414 0.582 0.827 0.291 0.414 0.582 0.827 0.291 0.414 0.291 0.414 0.291 0.414 0.291 0.414 0.291 0.414 1.164 1.654 0.291 0.414 0.291 0.414 0.291 0.414 0.291 0.414 0.291 0.414 0.582 0.827 0.291 0.414 0.291 0.414 0.291 0.414 0.291 0.414 -0.123 0.704 0.291 0.414 0.582 0.827 0.291 0.414 -0.123 0.704 0.705 0.124 -0.123 0.704 0.291 0.414 0.705 0.124 -0.123 0.704 0.291 0.414 1.164 1.655 -0.123 0.704 0.291 0.414 0.291 0.414 -0.123 0.704 0.291 0.414" />
  <path id="hole1" d="M37.248 63.774 l-0.29 -0.414 -0.29 -0.414 0.124 -0.704 -0.58 -0.827 -0.29 -0.414 -0.29 -0.414 -0.704 -0.123 -0.29 -0.414 -0.29 -0.414 -0.704 -0.123 -0.29 -0.414 -0.704 -0.123 -0.704 -0.123 -0.704 -0.123 -0.704 -0.123 -0.414 0.291 -0.704 -0.123 -0.828 0.581 -0.704 -0.123 -0.414 0.291 -0.414 0.291 -0.704 -0.123 -0.828 0.581 -0.704 -0.123 -0.414 0.291 -0.704 -0.123 -0.828 0.581 -0.704 -0.123 -0.414 0.291 -0.414 0.291 -0.704 -0.123 -0.828 0.581 -0.704 -0.123 -0.414 0.291 -0.414 0.291 -0.704 -0.123 -0.414 0.291 -0.414 0.291 -0.704 -0.123 -0.414 0.291 -0.414 0.291 -0.704 -0.123 -0.828 0.581 -0.414 0.291 -0.414 0.291 -0.414 0.291 -0.414 0.291 -0.124 0.704 -0.414 0.291 -0.124 0.704 -0.414 0.291 -0.124 0.704 -0.124 0.704 -0.124 0.704 0.29 0.414 -0.124 0.704 0.29 0.414 -0.124 0.704 0.29 0.414 0.29 0.414 0.29 0.414 0.29 0.414 0.58 0.827 0.704 0.123 0.29 0.414 0.29 0.414 0.704 0.123 0.704 0.123 0.29 0.414 0.704 0.123 0.414 -0.291 0.704 0.123 0.704 0.123 0.414 -0.291 0.414 -0.291 0.704 0.123 0.414 -0.291 0.414 -0.291 0.704 0.123 0.414 -0.291 0.704 0.123 0.414 -0.291 0.414 -0.291 0.704 0.123 0.414 -0.291 0.414 -0.291 0.704 0.123 0.414 -0.291 0.414 -0.291 0.704 0.123 0.414 -0.291 0.414 -0.291 0.704 0.123 0.414 -0.291 0.704 0.123 0.414 -0.291 0.414 -0.291 0.704 0.123 0.414 -0.291 0.414 -0.291 0.704 0.123 0.414 -0.291 0.414 -0.291 0.414 -0.291 0.414 -0.291 0.828 -0.581 0.414 -0.291 0.414 -0.291 0.124 -0.704 0.414 -0.291 0.124 -0.704 0.124 -0.704 0.248 -1.408 0.248 -1.408" />
</svg>
